G04 #@! TF.GenerationSoftware,KiCad,Pcbnew,7.0.11-7.0.11~ubuntu22.04.1*
G04 #@! TF.CreationDate,2024-04-10T12:23:29+02:00*
G04 #@! TF.ProjectId,pcb_rduhr_lderyck,7063625f-7264-4756-9872-5f6c64657279,rev?*
G04 #@! TF.SameCoordinates,Original*
G04 #@! TF.FileFunction,Legend,Top*
G04 #@! TF.FilePolarity,Positive*
%FSLAX46Y46*%
G04 Gerber Fmt 4.6, Leading zero omitted, Abs format (unit mm)*
G04 Created by KiCad (PCBNEW 7.0.11-7.0.11~ubuntu22.04.1) date 2024-04-10 12:23:29*
%MOMM*%
%LPD*%
G01*
G04 APERTURE LIST*
G04 Aperture macros list*
%AMRoundRect*
0 Rectangle with rounded corners*
0 $1 Rounding radius*
0 $2 $3 $4 $5 $6 $7 $8 $9 X,Y pos of 4 corners*
0 Add a 4 corners polygon primitive as box body*
4,1,4,$2,$3,$4,$5,$6,$7,$8,$9,$2,$3,0*
0 Add four circle primitives for the rounded corners*
1,1,$1+$1,$2,$3*
1,1,$1+$1,$4,$5*
1,1,$1+$1,$6,$7*
1,1,$1+$1,$8,$9*
0 Add four rect primitives between the rounded corners*
20,1,$1+$1,$2,$3,$4,$5,0*
20,1,$1+$1,$4,$5,$6,$7,0*
20,1,$1+$1,$6,$7,$8,$9,0*
20,1,$1+$1,$8,$9,$2,$3,0*%
%AMFreePoly0*
4,1,9,5.362500,-0.866500,1.237500,-0.866500,1.237500,-0.450000,-1.237500,-0.450000,-1.237500,0.450000,1.237500,0.450000,1.237500,0.866500,5.362500,0.866500,5.362500,-0.866500,5.362500,-0.866500,$1*%
G04 Aperture macros list end*
%ADD10C,0.300000*%
%ADD11C,0.150000*%
%ADD12C,0.100000*%
%ADD13C,0.120000*%
%ADD14C,0.200000*%
%ADD15RoundRect,0.237500X0.237500X-0.250000X0.237500X0.250000X-0.237500X0.250000X-0.237500X-0.250000X0*%
%ADD16RoundRect,0.237500X-0.237500X0.300000X-0.237500X-0.300000X0.237500X-0.300000X0.237500X0.300000X0*%
%ADD17RoundRect,0.237500X-0.250000X-0.237500X0.250000X-0.237500X0.250000X0.237500X-0.250000X0.237500X0*%
%ADD18RoundRect,0.237500X0.250000X0.237500X-0.250000X0.237500X-0.250000X-0.237500X0.250000X-0.237500X0*%
%ADD19R,3.000000X7.500000*%
%ADD20RoundRect,0.237500X0.287500X0.237500X-0.287500X0.237500X-0.287500X-0.237500X0.287500X-0.237500X0*%
%ADD21RoundRect,0.150000X-0.512500X-0.150000X0.512500X-0.150000X0.512500X0.150000X-0.512500X0.150000X0*%
%ADD22RoundRect,0.237500X0.237500X-0.300000X0.237500X0.300000X-0.237500X0.300000X-0.237500X-0.300000X0*%
%ADD23R,1.700000X1.700000*%
%ADD24O,1.700000X1.700000*%
%ADD25R,1.800000X2.100000*%
%ADD26RoundRect,0.375000X-0.625000X-0.375000X0.625000X-0.375000X0.625000X0.375000X-0.625000X0.375000X0*%
%ADD27RoundRect,0.500000X-0.500000X-1.400000X0.500000X-1.400000X0.500000X1.400000X-0.500000X1.400000X0*%
%ADD28R,1.000000X1.500000*%
%ADD29RoundRect,0.237500X-0.237500X0.250000X-0.237500X-0.250000X0.237500X-0.250000X0.237500X0.250000X0*%
%ADD30RoundRect,0.237500X-0.300000X-0.237500X0.300000X-0.237500X0.300000X0.237500X-0.300000X0.237500X0*%
%ADD31RoundRect,0.237500X-0.237500X0.287500X-0.237500X-0.287500X0.237500X-0.287500X0.237500X0.287500X0*%
%ADD32R,0.550000X0.800000*%
%ADD33C,1.500000*%
%ADD34RoundRect,0.225000X-0.225000X0.925000X-0.225000X-0.925000X0.225000X-0.925000X0.225000X0.925000X0*%
%ADD35FreePoly0,270.000000*%
%ADD36RoundRect,0.225000X0.225000X-0.925000X0.225000X0.925000X-0.225000X0.925000X-0.225000X-0.925000X0*%
%ADD37FreePoly0,90.000000*%
%ADD38RoundRect,0.237500X-0.287500X-0.237500X0.287500X-0.237500X0.287500X0.237500X-0.287500X0.237500X0*%
%ADD39RoundRect,0.100000X-0.637500X-0.100000X0.637500X-0.100000X0.637500X0.100000X-0.637500X0.100000X0*%
%ADD40RoundRect,0.150000X-0.587500X-0.150000X0.587500X-0.150000X0.587500X0.150000X-0.587500X0.150000X0*%
%ADD41R,1.100000X1.800000*%
%ADD42RoundRect,0.237500X0.300000X0.237500X-0.300000X0.237500X-0.300000X-0.237500X0.300000X-0.237500X0*%
%ADD43RoundRect,0.050000X0.760000X0.840000X-0.760000X0.840000X-0.760000X-0.840000X0.760000X-0.840000X0*%
G04 APERTURE END LIST*
D10*
X133585828Y-98431203D02*
X133585828Y-99145489D01*
X133585828Y-99145489D02*
X132085828Y-99145489D01*
X133585828Y-97716917D02*
X133514400Y-97859774D01*
X133514400Y-97859774D02*
X133442971Y-97931203D01*
X133442971Y-97931203D02*
X133300114Y-98002631D01*
X133300114Y-98002631D02*
X132871542Y-98002631D01*
X132871542Y-98002631D02*
X132728685Y-97931203D01*
X132728685Y-97931203D02*
X132657257Y-97859774D01*
X132657257Y-97859774D02*
X132585828Y-97716917D01*
X132585828Y-97716917D02*
X132585828Y-97502631D01*
X132585828Y-97502631D02*
X132657257Y-97359774D01*
X132657257Y-97359774D02*
X132728685Y-97288346D01*
X132728685Y-97288346D02*
X132871542Y-97216917D01*
X132871542Y-97216917D02*
X133300114Y-97216917D01*
X133300114Y-97216917D02*
X133442971Y-97288346D01*
X133442971Y-97288346D02*
X133514400Y-97359774D01*
X133514400Y-97359774D02*
X133585828Y-97502631D01*
X133585828Y-97502631D02*
X133585828Y-97716917D01*
X132585828Y-95931203D02*
X133585828Y-95931203D01*
X132585828Y-96574060D02*
X133371542Y-96574060D01*
X133371542Y-96574060D02*
X133514400Y-96502631D01*
X133514400Y-96502631D02*
X133585828Y-96359774D01*
X133585828Y-96359774D02*
X133585828Y-96145488D01*
X133585828Y-96145488D02*
X133514400Y-96002631D01*
X133514400Y-96002631D02*
X133442971Y-95931203D01*
X133585828Y-95216917D02*
X132585828Y-95216917D01*
X132085828Y-95216917D02*
X132157257Y-95288345D01*
X132157257Y-95288345D02*
X132228685Y-95216917D01*
X132228685Y-95216917D02*
X132157257Y-95145488D01*
X132157257Y-95145488D02*
X132085828Y-95216917D01*
X132085828Y-95216917D02*
X132228685Y-95216917D01*
X133514400Y-94574059D02*
X133585828Y-94431202D01*
X133585828Y-94431202D02*
X133585828Y-94145488D01*
X133585828Y-94145488D02*
X133514400Y-94002631D01*
X133514400Y-94002631D02*
X133371542Y-93931202D01*
X133371542Y-93931202D02*
X133300114Y-93931202D01*
X133300114Y-93931202D02*
X133157257Y-94002631D01*
X133157257Y-94002631D02*
X133085828Y-94145488D01*
X133085828Y-94145488D02*
X133085828Y-94359774D01*
X133085828Y-94359774D02*
X133014400Y-94502631D01*
X133014400Y-94502631D02*
X132871542Y-94574059D01*
X132871542Y-94574059D02*
X132800114Y-94574059D01*
X132800114Y-94574059D02*
X132657257Y-94502631D01*
X132657257Y-94502631D02*
X132585828Y-94359774D01*
X132585828Y-94359774D02*
X132585828Y-94145488D01*
X132585828Y-94145488D02*
X132657257Y-94002631D01*
X133585828Y-92145488D02*
X132085828Y-92145488D01*
X132085828Y-92145488D02*
X132085828Y-91788345D01*
X132085828Y-91788345D02*
X132157257Y-91574059D01*
X132157257Y-91574059D02*
X132300114Y-91431202D01*
X132300114Y-91431202D02*
X132442971Y-91359773D01*
X132442971Y-91359773D02*
X132728685Y-91288345D01*
X132728685Y-91288345D02*
X132942971Y-91288345D01*
X132942971Y-91288345D02*
X133228685Y-91359773D01*
X133228685Y-91359773D02*
X133371542Y-91431202D01*
X133371542Y-91431202D02*
X133514400Y-91574059D01*
X133514400Y-91574059D02*
X133585828Y-91788345D01*
X133585828Y-91788345D02*
X133585828Y-92145488D01*
X132800114Y-90645488D02*
X132800114Y-90145488D01*
X133585828Y-89931202D02*
X133585828Y-90645488D01*
X133585828Y-90645488D02*
X132085828Y-90645488D01*
X132085828Y-90645488D02*
X132085828Y-89931202D01*
X133585828Y-88431202D02*
X132871542Y-88931202D01*
X133585828Y-89288345D02*
X132085828Y-89288345D01*
X132085828Y-89288345D02*
X132085828Y-88716916D01*
X132085828Y-88716916D02*
X132157257Y-88574059D01*
X132157257Y-88574059D02*
X132228685Y-88502630D01*
X132228685Y-88502630D02*
X132371542Y-88431202D01*
X132371542Y-88431202D02*
X132585828Y-88431202D01*
X132585828Y-88431202D02*
X132728685Y-88502630D01*
X132728685Y-88502630D02*
X132800114Y-88574059D01*
X132800114Y-88574059D02*
X132871542Y-88716916D01*
X132871542Y-88716916D02*
X132871542Y-89288345D01*
X132871542Y-87502630D02*
X133585828Y-87502630D01*
X132085828Y-88002630D02*
X132871542Y-87502630D01*
X132871542Y-87502630D02*
X132085828Y-87002630D01*
X133442971Y-85645488D02*
X133514400Y-85716916D01*
X133514400Y-85716916D02*
X133585828Y-85931202D01*
X133585828Y-85931202D02*
X133585828Y-86074059D01*
X133585828Y-86074059D02*
X133514400Y-86288345D01*
X133514400Y-86288345D02*
X133371542Y-86431202D01*
X133371542Y-86431202D02*
X133228685Y-86502631D01*
X133228685Y-86502631D02*
X132942971Y-86574059D01*
X132942971Y-86574059D02*
X132728685Y-86574059D01*
X132728685Y-86574059D02*
X132442971Y-86502631D01*
X132442971Y-86502631D02*
X132300114Y-86431202D01*
X132300114Y-86431202D02*
X132157257Y-86288345D01*
X132157257Y-86288345D02*
X132085828Y-86074059D01*
X132085828Y-86074059D02*
X132085828Y-85931202D01*
X132085828Y-85931202D02*
X132157257Y-85716916D01*
X132157257Y-85716916D02*
X132228685Y-85645488D01*
X133585828Y-85002631D02*
X132085828Y-85002631D01*
X133585828Y-84145488D02*
X132728685Y-84788345D01*
X132085828Y-84145488D02*
X132942971Y-85002631D01*
X132800114Y-83502631D02*
X132800114Y-83002631D01*
X133585828Y-82788345D02*
X133585828Y-83502631D01*
X133585828Y-83502631D02*
X132085828Y-83502631D01*
X132085828Y-83502631D02*
X132085828Y-82788345D01*
X133585828Y-81288345D02*
X132871542Y-81788345D01*
X133585828Y-82145488D02*
X132085828Y-82145488D01*
X132085828Y-82145488D02*
X132085828Y-81574059D01*
X132085828Y-81574059D02*
X132157257Y-81431202D01*
X132157257Y-81431202D02*
X132228685Y-81359773D01*
X132228685Y-81359773D02*
X132371542Y-81288345D01*
X132371542Y-81288345D02*
X132585828Y-81288345D01*
X132585828Y-81288345D02*
X132728685Y-81359773D01*
X132728685Y-81359773D02*
X132800114Y-81431202D01*
X132800114Y-81431202D02*
X132871542Y-81574059D01*
X132871542Y-81574059D02*
X132871542Y-82145488D01*
X132800114Y-80645488D02*
X132800114Y-80145488D01*
X133585828Y-79931202D02*
X133585828Y-80645488D01*
X133585828Y-80645488D02*
X132085828Y-80645488D01*
X132085828Y-80645488D02*
X132085828Y-79931202D01*
X136000828Y-98288346D02*
X135286542Y-98788346D01*
X136000828Y-99145489D02*
X134500828Y-99145489D01*
X134500828Y-99145489D02*
X134500828Y-98574060D01*
X134500828Y-98574060D02*
X134572257Y-98431203D01*
X134572257Y-98431203D02*
X134643685Y-98359774D01*
X134643685Y-98359774D02*
X134786542Y-98288346D01*
X134786542Y-98288346D02*
X135000828Y-98288346D01*
X135000828Y-98288346D02*
X135143685Y-98359774D01*
X135143685Y-98359774D02*
X135215114Y-98431203D01*
X135215114Y-98431203D02*
X135286542Y-98574060D01*
X135286542Y-98574060D02*
X135286542Y-99145489D01*
X136000828Y-97431203D02*
X135929400Y-97574060D01*
X135929400Y-97574060D02*
X135857971Y-97645489D01*
X135857971Y-97645489D02*
X135715114Y-97716917D01*
X135715114Y-97716917D02*
X135286542Y-97716917D01*
X135286542Y-97716917D02*
X135143685Y-97645489D01*
X135143685Y-97645489D02*
X135072257Y-97574060D01*
X135072257Y-97574060D02*
X135000828Y-97431203D01*
X135000828Y-97431203D02*
X135000828Y-97216917D01*
X135000828Y-97216917D02*
X135072257Y-97074060D01*
X135072257Y-97074060D02*
X135143685Y-97002632D01*
X135143685Y-97002632D02*
X135286542Y-96931203D01*
X135286542Y-96931203D02*
X135715114Y-96931203D01*
X135715114Y-96931203D02*
X135857971Y-97002632D01*
X135857971Y-97002632D02*
X135929400Y-97074060D01*
X135929400Y-97074060D02*
X136000828Y-97216917D01*
X136000828Y-97216917D02*
X136000828Y-97431203D01*
X136000828Y-96288346D02*
X135000828Y-96288346D01*
X135143685Y-96288346D02*
X135072257Y-96216917D01*
X135072257Y-96216917D02*
X135000828Y-96074060D01*
X135000828Y-96074060D02*
X135000828Y-95859774D01*
X135000828Y-95859774D02*
X135072257Y-95716917D01*
X135072257Y-95716917D02*
X135215114Y-95645489D01*
X135215114Y-95645489D02*
X136000828Y-95645489D01*
X135215114Y-95645489D02*
X135072257Y-95574060D01*
X135072257Y-95574060D02*
X135000828Y-95431203D01*
X135000828Y-95431203D02*
X135000828Y-95216917D01*
X135000828Y-95216917D02*
X135072257Y-95074060D01*
X135072257Y-95074060D02*
X135215114Y-95002631D01*
X135215114Y-95002631D02*
X136000828Y-95002631D01*
X136000828Y-93645489D02*
X135215114Y-93645489D01*
X135215114Y-93645489D02*
X135072257Y-93716917D01*
X135072257Y-93716917D02*
X135000828Y-93859774D01*
X135000828Y-93859774D02*
X135000828Y-94145489D01*
X135000828Y-94145489D02*
X135072257Y-94288346D01*
X135929400Y-93645489D02*
X136000828Y-93788346D01*
X136000828Y-93788346D02*
X136000828Y-94145489D01*
X136000828Y-94145489D02*
X135929400Y-94288346D01*
X135929400Y-94288346D02*
X135786542Y-94359774D01*
X135786542Y-94359774D02*
X135643685Y-94359774D01*
X135643685Y-94359774D02*
X135500828Y-94288346D01*
X135500828Y-94288346D02*
X135429400Y-94145489D01*
X135429400Y-94145489D02*
X135429400Y-93788346D01*
X135429400Y-93788346D02*
X135357971Y-93645489D01*
X136000828Y-92931203D02*
X135000828Y-92931203D01*
X134500828Y-92931203D02*
X134572257Y-93002631D01*
X134572257Y-93002631D02*
X134643685Y-92931203D01*
X134643685Y-92931203D02*
X134572257Y-92859774D01*
X134572257Y-92859774D02*
X134500828Y-92931203D01*
X134500828Y-92931203D02*
X134643685Y-92931203D01*
X135000828Y-92216917D02*
X136000828Y-92216917D01*
X135143685Y-92216917D02*
X135072257Y-92145488D01*
X135072257Y-92145488D02*
X135000828Y-92002631D01*
X135000828Y-92002631D02*
X135000828Y-91788345D01*
X135000828Y-91788345D02*
X135072257Y-91645488D01*
X135072257Y-91645488D02*
X135215114Y-91574060D01*
X135215114Y-91574060D02*
X136000828Y-91574060D01*
X136000828Y-89716917D02*
X134500828Y-89716917D01*
X134500828Y-89716917D02*
X134500828Y-89359774D01*
X134500828Y-89359774D02*
X134572257Y-89145488D01*
X134572257Y-89145488D02*
X134715114Y-89002631D01*
X134715114Y-89002631D02*
X134857971Y-88931202D01*
X134857971Y-88931202D02*
X135143685Y-88859774D01*
X135143685Y-88859774D02*
X135357971Y-88859774D01*
X135357971Y-88859774D02*
X135643685Y-88931202D01*
X135643685Y-88931202D02*
X135786542Y-89002631D01*
X135786542Y-89002631D02*
X135929400Y-89145488D01*
X135929400Y-89145488D02*
X136000828Y-89359774D01*
X136000828Y-89359774D02*
X136000828Y-89716917D01*
X134500828Y-88216917D02*
X135715114Y-88216917D01*
X135715114Y-88216917D02*
X135857971Y-88145488D01*
X135857971Y-88145488D02*
X135929400Y-88074060D01*
X135929400Y-88074060D02*
X136000828Y-87931202D01*
X136000828Y-87931202D02*
X136000828Y-87645488D01*
X136000828Y-87645488D02*
X135929400Y-87502631D01*
X135929400Y-87502631D02*
X135857971Y-87431202D01*
X135857971Y-87431202D02*
X135715114Y-87359774D01*
X135715114Y-87359774D02*
X134500828Y-87359774D01*
X136000828Y-86645488D02*
X134500828Y-86645488D01*
X135215114Y-86645488D02*
X135215114Y-85788345D01*
X136000828Y-85788345D02*
X134500828Y-85788345D01*
X136000828Y-84216916D02*
X135286542Y-84716916D01*
X136000828Y-85074059D02*
X134500828Y-85074059D01*
X134500828Y-85074059D02*
X134500828Y-84502630D01*
X134500828Y-84502630D02*
X134572257Y-84359773D01*
X134572257Y-84359773D02*
X134643685Y-84288344D01*
X134643685Y-84288344D02*
X134786542Y-84216916D01*
X134786542Y-84216916D02*
X135000828Y-84216916D01*
X135000828Y-84216916D02*
X135143685Y-84288344D01*
X135143685Y-84288344D02*
X135215114Y-84359773D01*
X135215114Y-84359773D02*
X135286542Y-84502630D01*
X135286542Y-84502630D02*
X135286542Y-85074059D01*
X72354510Y-58100828D02*
X72354510Y-56600828D01*
X72354510Y-56600828D02*
X72854510Y-57672257D01*
X72854510Y-57672257D02*
X73354510Y-56600828D01*
X73354510Y-56600828D02*
X73354510Y-58100828D01*
X74068796Y-58100828D02*
X74068796Y-57100828D01*
X74068796Y-56600828D02*
X73997368Y-56672257D01*
X73997368Y-56672257D02*
X74068796Y-56743685D01*
X74068796Y-56743685D02*
X74140225Y-56672257D01*
X74140225Y-56672257D02*
X74068796Y-56600828D01*
X74068796Y-56600828D02*
X74068796Y-56743685D01*
X75425940Y-58029400D02*
X75283082Y-58100828D01*
X75283082Y-58100828D02*
X74997368Y-58100828D01*
X74997368Y-58100828D02*
X74854511Y-58029400D01*
X74854511Y-58029400D02*
X74783082Y-57957971D01*
X74783082Y-57957971D02*
X74711654Y-57815114D01*
X74711654Y-57815114D02*
X74711654Y-57386542D01*
X74711654Y-57386542D02*
X74783082Y-57243685D01*
X74783082Y-57243685D02*
X74854511Y-57172257D01*
X74854511Y-57172257D02*
X74997368Y-57100828D01*
X74997368Y-57100828D02*
X75283082Y-57100828D01*
X75283082Y-57100828D02*
X75425940Y-57172257D01*
X76068796Y-58100828D02*
X76068796Y-57100828D01*
X76068796Y-57386542D02*
X76140225Y-57243685D01*
X76140225Y-57243685D02*
X76211654Y-57172257D01*
X76211654Y-57172257D02*
X76354511Y-57100828D01*
X76354511Y-57100828D02*
X76497368Y-57100828D01*
X77211653Y-58100828D02*
X77068796Y-58029400D01*
X77068796Y-58029400D02*
X76997367Y-57957971D01*
X76997367Y-57957971D02*
X76925939Y-57815114D01*
X76925939Y-57815114D02*
X76925939Y-57386542D01*
X76925939Y-57386542D02*
X76997367Y-57243685D01*
X76997367Y-57243685D02*
X77068796Y-57172257D01*
X77068796Y-57172257D02*
X77211653Y-57100828D01*
X77211653Y-57100828D02*
X77425939Y-57100828D01*
X77425939Y-57100828D02*
X77568796Y-57172257D01*
X77568796Y-57172257D02*
X77640225Y-57243685D01*
X77640225Y-57243685D02*
X77711653Y-57386542D01*
X77711653Y-57386542D02*
X77711653Y-57815114D01*
X77711653Y-57815114D02*
X77640225Y-57957971D01*
X77640225Y-57957971D02*
X77568796Y-58029400D01*
X77568796Y-58029400D02*
X77425939Y-58100828D01*
X77425939Y-58100828D02*
X77211653Y-58100828D01*
X78997368Y-58029400D02*
X78854510Y-58100828D01*
X78854510Y-58100828D02*
X78568796Y-58100828D01*
X78568796Y-58100828D02*
X78425939Y-58029400D01*
X78425939Y-58029400D02*
X78354510Y-57957971D01*
X78354510Y-57957971D02*
X78283082Y-57815114D01*
X78283082Y-57815114D02*
X78283082Y-57386542D01*
X78283082Y-57386542D02*
X78354510Y-57243685D01*
X78354510Y-57243685D02*
X78425939Y-57172257D01*
X78425939Y-57172257D02*
X78568796Y-57100828D01*
X78568796Y-57100828D02*
X78854510Y-57100828D01*
X78854510Y-57100828D02*
X78997368Y-57172257D01*
X79854510Y-58100828D02*
X79711653Y-58029400D01*
X79711653Y-58029400D02*
X79640224Y-57957971D01*
X79640224Y-57957971D02*
X79568796Y-57815114D01*
X79568796Y-57815114D02*
X79568796Y-57386542D01*
X79568796Y-57386542D02*
X79640224Y-57243685D01*
X79640224Y-57243685D02*
X79711653Y-57172257D01*
X79711653Y-57172257D02*
X79854510Y-57100828D01*
X79854510Y-57100828D02*
X80068796Y-57100828D01*
X80068796Y-57100828D02*
X80211653Y-57172257D01*
X80211653Y-57172257D02*
X80283082Y-57243685D01*
X80283082Y-57243685D02*
X80354510Y-57386542D01*
X80354510Y-57386542D02*
X80354510Y-57815114D01*
X80354510Y-57815114D02*
X80283082Y-57957971D01*
X80283082Y-57957971D02*
X80211653Y-58029400D01*
X80211653Y-58029400D02*
X80068796Y-58100828D01*
X80068796Y-58100828D02*
X79854510Y-58100828D01*
X80997367Y-57100828D02*
X80997367Y-58100828D01*
X80997367Y-57243685D02*
X81068796Y-57172257D01*
X81068796Y-57172257D02*
X81211653Y-57100828D01*
X81211653Y-57100828D02*
X81425939Y-57100828D01*
X81425939Y-57100828D02*
X81568796Y-57172257D01*
X81568796Y-57172257D02*
X81640225Y-57315114D01*
X81640225Y-57315114D02*
X81640225Y-58100828D01*
X82140225Y-57100828D02*
X82711653Y-57100828D01*
X82354510Y-56600828D02*
X82354510Y-57886542D01*
X82354510Y-57886542D02*
X82425939Y-58029400D01*
X82425939Y-58029400D02*
X82568796Y-58100828D01*
X82568796Y-58100828D02*
X82711653Y-58100828D01*
X83211653Y-58100828D02*
X83211653Y-57100828D01*
X83211653Y-57386542D02*
X83283082Y-57243685D01*
X83283082Y-57243685D02*
X83354511Y-57172257D01*
X83354511Y-57172257D02*
X83497368Y-57100828D01*
X83497368Y-57100828D02*
X83640225Y-57100828D01*
X84354510Y-58100828D02*
X84211653Y-58029400D01*
X84211653Y-58029400D02*
X84140224Y-57957971D01*
X84140224Y-57957971D02*
X84068796Y-57815114D01*
X84068796Y-57815114D02*
X84068796Y-57386542D01*
X84068796Y-57386542D02*
X84140224Y-57243685D01*
X84140224Y-57243685D02*
X84211653Y-57172257D01*
X84211653Y-57172257D02*
X84354510Y-57100828D01*
X84354510Y-57100828D02*
X84568796Y-57100828D01*
X84568796Y-57100828D02*
X84711653Y-57172257D01*
X84711653Y-57172257D02*
X84783082Y-57243685D01*
X84783082Y-57243685D02*
X84854510Y-57386542D01*
X84854510Y-57386542D02*
X84854510Y-57815114D01*
X84854510Y-57815114D02*
X84783082Y-57957971D01*
X84783082Y-57957971D02*
X84711653Y-58029400D01*
X84711653Y-58029400D02*
X84568796Y-58100828D01*
X84568796Y-58100828D02*
X84354510Y-58100828D01*
X85711653Y-58100828D02*
X85568796Y-58029400D01*
X85568796Y-58029400D02*
X85497367Y-57886542D01*
X85497367Y-57886542D02*
X85497367Y-56600828D01*
X86497367Y-58100828D02*
X86354510Y-58029400D01*
X86354510Y-58029400D02*
X86283081Y-57886542D01*
X86283081Y-57886542D02*
X86283081Y-56600828D01*
X87640224Y-58029400D02*
X87497367Y-58100828D01*
X87497367Y-58100828D02*
X87211653Y-58100828D01*
X87211653Y-58100828D02*
X87068795Y-58029400D01*
X87068795Y-58029400D02*
X86997367Y-57886542D01*
X86997367Y-57886542D02*
X86997367Y-57315114D01*
X86997367Y-57315114D02*
X87068795Y-57172257D01*
X87068795Y-57172257D02*
X87211653Y-57100828D01*
X87211653Y-57100828D02*
X87497367Y-57100828D01*
X87497367Y-57100828D02*
X87640224Y-57172257D01*
X87640224Y-57172257D02*
X87711653Y-57315114D01*
X87711653Y-57315114D02*
X87711653Y-57457971D01*
X87711653Y-57457971D02*
X86997367Y-57600828D01*
X88354509Y-58100828D02*
X88354509Y-57100828D01*
X88354509Y-57386542D02*
X88425938Y-57243685D01*
X88425938Y-57243685D02*
X88497367Y-57172257D01*
X88497367Y-57172257D02*
X88640224Y-57100828D01*
X88640224Y-57100828D02*
X88783081Y-57100828D01*
X91640223Y-58100828D02*
X91568795Y-58100828D01*
X91568795Y-58100828D02*
X91425937Y-58029400D01*
X91425937Y-58029400D02*
X91211652Y-57815114D01*
X91211652Y-57815114D02*
X90854509Y-57386542D01*
X90854509Y-57386542D02*
X90711652Y-57172257D01*
X90711652Y-57172257D02*
X90640223Y-56957971D01*
X90640223Y-56957971D02*
X90640223Y-56815114D01*
X90640223Y-56815114D02*
X90711652Y-56672257D01*
X90711652Y-56672257D02*
X90854509Y-56600828D01*
X90854509Y-56600828D02*
X90925937Y-56600828D01*
X90925937Y-56600828D02*
X91068795Y-56672257D01*
X91068795Y-56672257D02*
X91140223Y-56815114D01*
X91140223Y-56815114D02*
X91140223Y-56886542D01*
X91140223Y-56886542D02*
X91068795Y-57029400D01*
X91068795Y-57029400D02*
X90997366Y-57100828D01*
X90997366Y-57100828D02*
X90568795Y-57386542D01*
X90568795Y-57386542D02*
X90497366Y-57457971D01*
X90497366Y-57457971D02*
X90425937Y-57600828D01*
X90425937Y-57600828D02*
X90425937Y-57815114D01*
X90425937Y-57815114D02*
X90497366Y-57957971D01*
X90497366Y-57957971D02*
X90568795Y-58029400D01*
X90568795Y-58029400D02*
X90711652Y-58100828D01*
X90711652Y-58100828D02*
X90925937Y-58100828D01*
X90925937Y-58100828D02*
X91068795Y-58029400D01*
X91068795Y-58029400D02*
X91140223Y-57957971D01*
X91140223Y-57957971D02*
X91354509Y-57672257D01*
X91354509Y-57672257D02*
X91425937Y-57457971D01*
X91425937Y-57457971D02*
X91425937Y-57315114D01*
X93425937Y-57100828D02*
X93425937Y-58600828D01*
X93425937Y-57172257D02*
X93568795Y-57100828D01*
X93568795Y-57100828D02*
X93854509Y-57100828D01*
X93854509Y-57100828D02*
X93997366Y-57172257D01*
X93997366Y-57172257D02*
X94068795Y-57243685D01*
X94068795Y-57243685D02*
X94140223Y-57386542D01*
X94140223Y-57386542D02*
X94140223Y-57815114D01*
X94140223Y-57815114D02*
X94068795Y-57957971D01*
X94068795Y-57957971D02*
X93997366Y-58029400D01*
X93997366Y-58029400D02*
X93854509Y-58100828D01*
X93854509Y-58100828D02*
X93568795Y-58100828D01*
X93568795Y-58100828D02*
X93425937Y-58029400D01*
X94997366Y-58100828D02*
X94854509Y-58029400D01*
X94854509Y-58029400D02*
X94783080Y-57957971D01*
X94783080Y-57957971D02*
X94711652Y-57815114D01*
X94711652Y-57815114D02*
X94711652Y-57386542D01*
X94711652Y-57386542D02*
X94783080Y-57243685D01*
X94783080Y-57243685D02*
X94854509Y-57172257D01*
X94854509Y-57172257D02*
X94997366Y-57100828D01*
X94997366Y-57100828D02*
X95211652Y-57100828D01*
X95211652Y-57100828D02*
X95354509Y-57172257D01*
X95354509Y-57172257D02*
X95425938Y-57243685D01*
X95425938Y-57243685D02*
X95497366Y-57386542D01*
X95497366Y-57386542D02*
X95497366Y-57815114D01*
X95497366Y-57815114D02*
X95425938Y-57957971D01*
X95425938Y-57957971D02*
X95354509Y-58029400D01*
X95354509Y-58029400D02*
X95211652Y-58100828D01*
X95211652Y-58100828D02*
X94997366Y-58100828D01*
X95997366Y-57100828D02*
X96283081Y-58100828D01*
X96283081Y-58100828D02*
X96568795Y-57386542D01*
X96568795Y-57386542D02*
X96854509Y-58100828D01*
X96854509Y-58100828D02*
X97140223Y-57100828D01*
X98283081Y-58029400D02*
X98140224Y-58100828D01*
X98140224Y-58100828D02*
X97854510Y-58100828D01*
X97854510Y-58100828D02*
X97711652Y-58029400D01*
X97711652Y-58029400D02*
X97640224Y-57886542D01*
X97640224Y-57886542D02*
X97640224Y-57315114D01*
X97640224Y-57315114D02*
X97711652Y-57172257D01*
X97711652Y-57172257D02*
X97854510Y-57100828D01*
X97854510Y-57100828D02*
X98140224Y-57100828D01*
X98140224Y-57100828D02*
X98283081Y-57172257D01*
X98283081Y-57172257D02*
X98354510Y-57315114D01*
X98354510Y-57315114D02*
X98354510Y-57457971D01*
X98354510Y-57457971D02*
X97640224Y-57600828D01*
X98997366Y-58100828D02*
X98997366Y-57100828D01*
X98997366Y-57386542D02*
X99068795Y-57243685D01*
X99068795Y-57243685D02*
X99140224Y-57172257D01*
X99140224Y-57172257D02*
X99283081Y-57100828D01*
X99283081Y-57100828D02*
X99425938Y-57100828D01*
X100997366Y-58029400D02*
X101140223Y-58100828D01*
X101140223Y-58100828D02*
X101425937Y-58100828D01*
X101425937Y-58100828D02*
X101568794Y-58029400D01*
X101568794Y-58029400D02*
X101640223Y-57886542D01*
X101640223Y-57886542D02*
X101640223Y-57815114D01*
X101640223Y-57815114D02*
X101568794Y-57672257D01*
X101568794Y-57672257D02*
X101425937Y-57600828D01*
X101425937Y-57600828D02*
X101211652Y-57600828D01*
X101211652Y-57600828D02*
X101068794Y-57529400D01*
X101068794Y-57529400D02*
X100997366Y-57386542D01*
X100997366Y-57386542D02*
X100997366Y-57315114D01*
X100997366Y-57315114D02*
X101068794Y-57172257D01*
X101068794Y-57172257D02*
X101211652Y-57100828D01*
X101211652Y-57100828D02*
X101425937Y-57100828D01*
X101425937Y-57100828D02*
X101568794Y-57172257D01*
X102925938Y-57100828D02*
X102925938Y-58100828D01*
X102283080Y-57100828D02*
X102283080Y-57886542D01*
X102283080Y-57886542D02*
X102354509Y-58029400D01*
X102354509Y-58029400D02*
X102497366Y-58100828D01*
X102497366Y-58100828D02*
X102711652Y-58100828D01*
X102711652Y-58100828D02*
X102854509Y-58029400D01*
X102854509Y-58029400D02*
X102925938Y-57957971D01*
X103640223Y-57100828D02*
X103640223Y-58600828D01*
X103640223Y-57172257D02*
X103783081Y-57100828D01*
X103783081Y-57100828D02*
X104068795Y-57100828D01*
X104068795Y-57100828D02*
X104211652Y-57172257D01*
X104211652Y-57172257D02*
X104283081Y-57243685D01*
X104283081Y-57243685D02*
X104354509Y-57386542D01*
X104354509Y-57386542D02*
X104354509Y-57815114D01*
X104354509Y-57815114D02*
X104283081Y-57957971D01*
X104283081Y-57957971D02*
X104211652Y-58029400D01*
X104211652Y-58029400D02*
X104068795Y-58100828D01*
X104068795Y-58100828D02*
X103783081Y-58100828D01*
X103783081Y-58100828D02*
X103640223Y-58029400D01*
X104997366Y-57100828D02*
X104997366Y-58600828D01*
X104997366Y-57172257D02*
X105140224Y-57100828D01*
X105140224Y-57100828D02*
X105425938Y-57100828D01*
X105425938Y-57100828D02*
X105568795Y-57172257D01*
X105568795Y-57172257D02*
X105640224Y-57243685D01*
X105640224Y-57243685D02*
X105711652Y-57386542D01*
X105711652Y-57386542D02*
X105711652Y-57815114D01*
X105711652Y-57815114D02*
X105640224Y-57957971D01*
X105640224Y-57957971D02*
X105568795Y-58029400D01*
X105568795Y-58029400D02*
X105425938Y-58100828D01*
X105425938Y-58100828D02*
X105140224Y-58100828D01*
X105140224Y-58100828D02*
X104997366Y-58029400D01*
X106568795Y-58100828D02*
X106425938Y-58029400D01*
X106425938Y-58029400D02*
X106354509Y-57886542D01*
X106354509Y-57886542D02*
X106354509Y-56600828D01*
X106997366Y-57100828D02*
X107354509Y-58100828D01*
X107711652Y-57100828D02*
X107354509Y-58100828D01*
X107354509Y-58100828D02*
X107211652Y-58457971D01*
X107211652Y-58457971D02*
X107140223Y-58529400D01*
X107140223Y-58529400D02*
X106997366Y-58600828D01*
X110068795Y-57100828D02*
X110068795Y-58100828D01*
X109425937Y-57100828D02*
X109425937Y-57886542D01*
X109425937Y-57886542D02*
X109497366Y-58029400D01*
X109497366Y-58029400D02*
X109640223Y-58100828D01*
X109640223Y-58100828D02*
X109854509Y-58100828D01*
X109854509Y-58100828D02*
X109997366Y-58029400D01*
X109997366Y-58029400D02*
X110068795Y-57957971D01*
X110783080Y-57100828D02*
X110783080Y-58100828D01*
X110783080Y-57243685D02*
X110854509Y-57172257D01*
X110854509Y-57172257D02*
X110997366Y-57100828D01*
X110997366Y-57100828D02*
X111211652Y-57100828D01*
X111211652Y-57100828D02*
X111354509Y-57172257D01*
X111354509Y-57172257D02*
X111425938Y-57315114D01*
X111425938Y-57315114D02*
X111425938Y-58100828D01*
X112140223Y-58100828D02*
X112140223Y-57100828D01*
X112140223Y-56600828D02*
X112068795Y-56672257D01*
X112068795Y-56672257D02*
X112140223Y-56743685D01*
X112140223Y-56743685D02*
X112211652Y-56672257D01*
X112211652Y-56672257D02*
X112140223Y-56600828D01*
X112140223Y-56600828D02*
X112140223Y-56743685D01*
X112640224Y-57100828D02*
X113211652Y-57100828D01*
X112854509Y-56600828D02*
X112854509Y-57886542D01*
X112854509Y-57886542D02*
X112925938Y-58029400D01*
X112925938Y-58029400D02*
X113068795Y-58100828D01*
X113068795Y-58100828D02*
X113211652Y-58100828D01*
D11*
X91626819Y-85094666D02*
X91150628Y-85427999D01*
X91626819Y-85666094D02*
X90626819Y-85666094D01*
X90626819Y-85666094D02*
X90626819Y-85285142D01*
X90626819Y-85285142D02*
X90674438Y-85189904D01*
X90674438Y-85189904D02*
X90722057Y-85142285D01*
X90722057Y-85142285D02*
X90817295Y-85094666D01*
X90817295Y-85094666D02*
X90960152Y-85094666D01*
X90960152Y-85094666D02*
X91055390Y-85142285D01*
X91055390Y-85142285D02*
X91103009Y-85189904D01*
X91103009Y-85189904D02*
X91150628Y-85285142D01*
X91150628Y-85285142D02*
X91150628Y-85666094D01*
X90626819Y-84237523D02*
X90626819Y-84427999D01*
X90626819Y-84427999D02*
X90674438Y-84523237D01*
X90674438Y-84523237D02*
X90722057Y-84570856D01*
X90722057Y-84570856D02*
X90864914Y-84666094D01*
X90864914Y-84666094D02*
X91055390Y-84713713D01*
X91055390Y-84713713D02*
X91436342Y-84713713D01*
X91436342Y-84713713D02*
X91531580Y-84666094D01*
X91531580Y-84666094D02*
X91579200Y-84618475D01*
X91579200Y-84618475D02*
X91626819Y-84523237D01*
X91626819Y-84523237D02*
X91626819Y-84332761D01*
X91626819Y-84332761D02*
X91579200Y-84237523D01*
X91579200Y-84237523D02*
X91531580Y-84189904D01*
X91531580Y-84189904D02*
X91436342Y-84142285D01*
X91436342Y-84142285D02*
X91198247Y-84142285D01*
X91198247Y-84142285D02*
X91103009Y-84189904D01*
X91103009Y-84189904D02*
X91055390Y-84237523D01*
X91055390Y-84237523D02*
X91007771Y-84332761D01*
X91007771Y-84332761D02*
X91007771Y-84523237D01*
X91007771Y-84523237D02*
X91055390Y-84618475D01*
X91055390Y-84618475D02*
X91103009Y-84666094D01*
X91103009Y-84666094D02*
X91198247Y-84713713D01*
X116249956Y-81776203D02*
X116202337Y-81823823D01*
X116202337Y-81823823D02*
X116059480Y-81871442D01*
X116059480Y-81871442D02*
X115964242Y-81871442D01*
X115964242Y-81871442D02*
X115821385Y-81823823D01*
X115821385Y-81823823D02*
X115726147Y-81728584D01*
X115726147Y-81728584D02*
X115678528Y-81633346D01*
X115678528Y-81633346D02*
X115630909Y-81442870D01*
X115630909Y-81442870D02*
X115630909Y-81300013D01*
X115630909Y-81300013D02*
X115678528Y-81109537D01*
X115678528Y-81109537D02*
X115726147Y-81014299D01*
X115726147Y-81014299D02*
X115821385Y-80919061D01*
X115821385Y-80919061D02*
X115964242Y-80871442D01*
X115964242Y-80871442D02*
X116059480Y-80871442D01*
X116059480Y-80871442D02*
X116202337Y-80919061D01*
X116202337Y-80919061D02*
X116249956Y-80966680D01*
X116583290Y-80871442D02*
X117202337Y-80871442D01*
X117202337Y-80871442D02*
X116869004Y-81252394D01*
X116869004Y-81252394D02*
X117011861Y-81252394D01*
X117011861Y-81252394D02*
X117107099Y-81300013D01*
X117107099Y-81300013D02*
X117154718Y-81347632D01*
X117154718Y-81347632D02*
X117202337Y-81442870D01*
X117202337Y-81442870D02*
X117202337Y-81680965D01*
X117202337Y-81680965D02*
X117154718Y-81776203D01*
X117154718Y-81776203D02*
X117107099Y-81823823D01*
X117107099Y-81823823D02*
X117011861Y-81871442D01*
X117011861Y-81871442D02*
X116726147Y-81871442D01*
X116726147Y-81871442D02*
X116630909Y-81823823D01*
X116630909Y-81823823D02*
X116583290Y-81776203D01*
X113957142Y-92554819D02*
X113623809Y-92078628D01*
X113385714Y-92554819D02*
X113385714Y-91554819D01*
X113385714Y-91554819D02*
X113766666Y-91554819D01*
X113766666Y-91554819D02*
X113861904Y-91602438D01*
X113861904Y-91602438D02*
X113909523Y-91650057D01*
X113909523Y-91650057D02*
X113957142Y-91745295D01*
X113957142Y-91745295D02*
X113957142Y-91888152D01*
X113957142Y-91888152D02*
X113909523Y-91983390D01*
X113909523Y-91983390D02*
X113861904Y-92031009D01*
X113861904Y-92031009D02*
X113766666Y-92078628D01*
X113766666Y-92078628D02*
X113385714Y-92078628D01*
X114909523Y-92554819D02*
X114338095Y-92554819D01*
X114623809Y-92554819D02*
X114623809Y-91554819D01*
X114623809Y-91554819D02*
X114528571Y-91697676D01*
X114528571Y-91697676D02*
X114433333Y-91792914D01*
X114433333Y-91792914D02*
X114338095Y-91840533D01*
X115814285Y-91554819D02*
X115338095Y-91554819D01*
X115338095Y-91554819D02*
X115290476Y-92031009D01*
X115290476Y-92031009D02*
X115338095Y-91983390D01*
X115338095Y-91983390D02*
X115433333Y-91935771D01*
X115433333Y-91935771D02*
X115671428Y-91935771D01*
X115671428Y-91935771D02*
X115766666Y-91983390D01*
X115766666Y-91983390D02*
X115814285Y-92031009D01*
X115814285Y-92031009D02*
X115861904Y-92126247D01*
X115861904Y-92126247D02*
X115861904Y-92364342D01*
X115861904Y-92364342D02*
X115814285Y-92459580D01*
X115814285Y-92459580D02*
X115766666Y-92507200D01*
X115766666Y-92507200D02*
X115671428Y-92554819D01*
X115671428Y-92554819D02*
X115433333Y-92554819D01*
X115433333Y-92554819D02*
X115338095Y-92507200D01*
X115338095Y-92507200D02*
X115290476Y-92459580D01*
X116613333Y-89054819D02*
X116280000Y-88578628D01*
X116041905Y-89054819D02*
X116041905Y-88054819D01*
X116041905Y-88054819D02*
X116422857Y-88054819D01*
X116422857Y-88054819D02*
X116518095Y-88102438D01*
X116518095Y-88102438D02*
X116565714Y-88150057D01*
X116565714Y-88150057D02*
X116613333Y-88245295D01*
X116613333Y-88245295D02*
X116613333Y-88388152D01*
X116613333Y-88388152D02*
X116565714Y-88483390D01*
X116565714Y-88483390D02*
X116518095Y-88531009D01*
X116518095Y-88531009D02*
X116422857Y-88578628D01*
X116422857Y-88578628D02*
X116041905Y-88578628D01*
X117518095Y-88054819D02*
X117041905Y-88054819D01*
X117041905Y-88054819D02*
X116994286Y-88531009D01*
X116994286Y-88531009D02*
X117041905Y-88483390D01*
X117041905Y-88483390D02*
X117137143Y-88435771D01*
X117137143Y-88435771D02*
X117375238Y-88435771D01*
X117375238Y-88435771D02*
X117470476Y-88483390D01*
X117470476Y-88483390D02*
X117518095Y-88531009D01*
X117518095Y-88531009D02*
X117565714Y-88626247D01*
X117565714Y-88626247D02*
X117565714Y-88864342D01*
X117565714Y-88864342D02*
X117518095Y-88959580D01*
X117518095Y-88959580D02*
X117470476Y-89007200D01*
X117470476Y-89007200D02*
X117375238Y-89054819D01*
X117375238Y-89054819D02*
X117137143Y-89054819D01*
X117137143Y-89054819D02*
X117041905Y-89007200D01*
X117041905Y-89007200D02*
X116994286Y-88959580D01*
D12*
X75882580Y-94833333D02*
X75882580Y-94357143D01*
X75882580Y-94357143D02*
X76882580Y-94357143D01*
X75882580Y-95690476D02*
X75882580Y-95119048D01*
X75882580Y-95404762D02*
X76882580Y-95404762D01*
X76882580Y-95404762D02*
X76739723Y-95309524D01*
X76739723Y-95309524D02*
X76644485Y-95214286D01*
X76644485Y-95214286D02*
X76596866Y-95119048D01*
X91319925Y-96727580D02*
X91796115Y-96727580D01*
X91796115Y-96727580D02*
X91796115Y-97727580D01*
D11*
X114041905Y-89154819D02*
X114041905Y-88154819D01*
X114041905Y-88154819D02*
X114280000Y-88154819D01*
X114280000Y-88154819D02*
X114422857Y-88202438D01*
X114422857Y-88202438D02*
X114518095Y-88297676D01*
X114518095Y-88297676D02*
X114565714Y-88392914D01*
X114565714Y-88392914D02*
X114613333Y-88583390D01*
X114613333Y-88583390D02*
X114613333Y-88726247D01*
X114613333Y-88726247D02*
X114565714Y-88916723D01*
X114565714Y-88916723D02*
X114518095Y-89011961D01*
X114518095Y-89011961D02*
X114422857Y-89107200D01*
X114422857Y-89107200D02*
X114280000Y-89154819D01*
X114280000Y-89154819D02*
X114041905Y-89154819D01*
X114946667Y-88154819D02*
X115565714Y-88154819D01*
X115565714Y-88154819D02*
X115232381Y-88535771D01*
X115232381Y-88535771D02*
X115375238Y-88535771D01*
X115375238Y-88535771D02*
X115470476Y-88583390D01*
X115470476Y-88583390D02*
X115518095Y-88631009D01*
X115518095Y-88631009D02*
X115565714Y-88726247D01*
X115565714Y-88726247D02*
X115565714Y-88964342D01*
X115565714Y-88964342D02*
X115518095Y-89059580D01*
X115518095Y-89059580D02*
X115470476Y-89107200D01*
X115470476Y-89107200D02*
X115375238Y-89154819D01*
X115375238Y-89154819D02*
X115089524Y-89154819D01*
X115089524Y-89154819D02*
X114994286Y-89107200D01*
X114994286Y-89107200D02*
X114946667Y-89059580D01*
X101111263Y-90364819D02*
X101111263Y-91174342D01*
X101111263Y-91174342D02*
X101158882Y-91269580D01*
X101158882Y-91269580D02*
X101206501Y-91317200D01*
X101206501Y-91317200D02*
X101301739Y-91364819D01*
X101301739Y-91364819D02*
X101492215Y-91364819D01*
X101492215Y-91364819D02*
X101587453Y-91317200D01*
X101587453Y-91317200D02*
X101635072Y-91269580D01*
X101635072Y-91269580D02*
X101682691Y-91174342D01*
X101682691Y-91174342D02*
X101682691Y-90364819D01*
X102587453Y-90698152D02*
X102587453Y-91364819D01*
X102349358Y-90317200D02*
X102111263Y-91031485D01*
X102111263Y-91031485D02*
X102730310Y-91031485D01*
X81457142Y-87359580D02*
X81409523Y-87407200D01*
X81409523Y-87407200D02*
X81266666Y-87454819D01*
X81266666Y-87454819D02*
X81171428Y-87454819D01*
X81171428Y-87454819D02*
X81028571Y-87407200D01*
X81028571Y-87407200D02*
X80933333Y-87311961D01*
X80933333Y-87311961D02*
X80885714Y-87216723D01*
X80885714Y-87216723D02*
X80838095Y-87026247D01*
X80838095Y-87026247D02*
X80838095Y-86883390D01*
X80838095Y-86883390D02*
X80885714Y-86692914D01*
X80885714Y-86692914D02*
X80933333Y-86597676D01*
X80933333Y-86597676D02*
X81028571Y-86502438D01*
X81028571Y-86502438D02*
X81171428Y-86454819D01*
X81171428Y-86454819D02*
X81266666Y-86454819D01*
X81266666Y-86454819D02*
X81409523Y-86502438D01*
X81409523Y-86502438D02*
X81457142Y-86550057D01*
X82409523Y-87454819D02*
X81838095Y-87454819D01*
X82123809Y-87454819D02*
X82123809Y-86454819D01*
X82123809Y-86454819D02*
X82028571Y-86597676D01*
X82028571Y-86597676D02*
X81933333Y-86692914D01*
X81933333Y-86692914D02*
X81838095Y-86740533D01*
X83266666Y-86788152D02*
X83266666Y-87454819D01*
X83028571Y-86407200D02*
X82790476Y-87121485D01*
X82790476Y-87121485D02*
X83409523Y-87121485D01*
X99966666Y-74504819D02*
X99966666Y-75219104D01*
X99966666Y-75219104D02*
X99919047Y-75361961D01*
X99919047Y-75361961D02*
X99823809Y-75457200D01*
X99823809Y-75457200D02*
X99680952Y-75504819D01*
X99680952Y-75504819D02*
X99585714Y-75504819D01*
X100347619Y-74504819D02*
X100966666Y-74504819D01*
X100966666Y-74504819D02*
X100633333Y-74885771D01*
X100633333Y-74885771D02*
X100776190Y-74885771D01*
X100776190Y-74885771D02*
X100871428Y-74933390D01*
X100871428Y-74933390D02*
X100919047Y-74981009D01*
X100919047Y-74981009D02*
X100966666Y-75076247D01*
X100966666Y-75076247D02*
X100966666Y-75314342D01*
X100966666Y-75314342D02*
X100919047Y-75409580D01*
X100919047Y-75409580D02*
X100871428Y-75457200D01*
X100871428Y-75457200D02*
X100776190Y-75504819D01*
X100776190Y-75504819D02*
X100490476Y-75504819D01*
X100490476Y-75504819D02*
X100395238Y-75457200D01*
X100395238Y-75457200D02*
X100347619Y-75409580D01*
X108678628Y-74076190D02*
X109154819Y-74076190D01*
X108154819Y-74409523D02*
X108678628Y-74076190D01*
X108678628Y-74076190D02*
X108154819Y-73742857D01*
X109154819Y-72885714D02*
X109154819Y-73457142D01*
X109154819Y-73171428D02*
X108154819Y-73171428D01*
X108154819Y-73171428D02*
X108297676Y-73266666D01*
X108297676Y-73266666D02*
X108392914Y-73361904D01*
X108392914Y-73361904D02*
X108440533Y-73457142D01*
X118688095Y-91054819D02*
X118688095Y-91864342D01*
X118688095Y-91864342D02*
X118735714Y-91959580D01*
X118735714Y-91959580D02*
X118783333Y-92007200D01*
X118783333Y-92007200D02*
X118878571Y-92054819D01*
X118878571Y-92054819D02*
X119069047Y-92054819D01*
X119069047Y-92054819D02*
X119164285Y-92007200D01*
X119164285Y-92007200D02*
X119211904Y-91959580D01*
X119211904Y-91959580D02*
X119259523Y-91864342D01*
X119259523Y-91864342D02*
X119259523Y-91054819D01*
X120211904Y-91054819D02*
X119735714Y-91054819D01*
X119735714Y-91054819D02*
X119688095Y-91531009D01*
X119688095Y-91531009D02*
X119735714Y-91483390D01*
X119735714Y-91483390D02*
X119830952Y-91435771D01*
X119830952Y-91435771D02*
X120069047Y-91435771D01*
X120069047Y-91435771D02*
X120164285Y-91483390D01*
X120164285Y-91483390D02*
X120211904Y-91531009D01*
X120211904Y-91531009D02*
X120259523Y-91626247D01*
X120259523Y-91626247D02*
X120259523Y-91864342D01*
X120259523Y-91864342D02*
X120211904Y-91959580D01*
X120211904Y-91959580D02*
X120164285Y-92007200D01*
X120164285Y-92007200D02*
X120069047Y-92054819D01*
X120069047Y-92054819D02*
X119830952Y-92054819D01*
X119830952Y-92054819D02*
X119735714Y-92007200D01*
X119735714Y-92007200D02*
X119688095Y-91959580D01*
X99566667Y-59807200D02*
X99709524Y-59854819D01*
X99709524Y-59854819D02*
X99947619Y-59854819D01*
X99947619Y-59854819D02*
X100042857Y-59807200D01*
X100042857Y-59807200D02*
X100090476Y-59759580D01*
X100090476Y-59759580D02*
X100138095Y-59664342D01*
X100138095Y-59664342D02*
X100138095Y-59569104D01*
X100138095Y-59569104D02*
X100090476Y-59473866D01*
X100090476Y-59473866D02*
X100042857Y-59426247D01*
X100042857Y-59426247D02*
X99947619Y-59378628D01*
X99947619Y-59378628D02*
X99757143Y-59331009D01*
X99757143Y-59331009D02*
X99661905Y-59283390D01*
X99661905Y-59283390D02*
X99614286Y-59235771D01*
X99614286Y-59235771D02*
X99566667Y-59140533D01*
X99566667Y-59140533D02*
X99566667Y-59045295D01*
X99566667Y-59045295D02*
X99614286Y-58950057D01*
X99614286Y-58950057D02*
X99661905Y-58902438D01*
X99661905Y-58902438D02*
X99757143Y-58854819D01*
X99757143Y-58854819D02*
X99995238Y-58854819D01*
X99995238Y-58854819D02*
X100138095Y-58902438D01*
X100471429Y-58854819D02*
X100709524Y-59854819D01*
X100709524Y-59854819D02*
X100900000Y-59140533D01*
X100900000Y-59140533D02*
X101090476Y-59854819D01*
X101090476Y-59854819D02*
X101328572Y-58854819D01*
X102233333Y-59854819D02*
X101661905Y-59854819D01*
X101947619Y-59854819D02*
X101947619Y-58854819D01*
X101947619Y-58854819D02*
X101852381Y-58997676D01*
X101852381Y-58997676D02*
X101757143Y-59092914D01*
X101757143Y-59092914D02*
X101661905Y-59140533D01*
X75374401Y-80192326D02*
X75374401Y-80906611D01*
X75374401Y-80906611D02*
X75326782Y-81049468D01*
X75326782Y-81049468D02*
X75231544Y-81144707D01*
X75231544Y-81144707D02*
X75088687Y-81192326D01*
X75088687Y-81192326D02*
X74993449Y-81192326D01*
X75850592Y-81192326D02*
X75850592Y-80192326D01*
X75850592Y-80192326D02*
X76231544Y-80192326D01*
X76231544Y-80192326D02*
X76326782Y-80239945D01*
X76326782Y-80239945D02*
X76374401Y-80287564D01*
X76374401Y-80287564D02*
X76422020Y-80382802D01*
X76422020Y-80382802D02*
X76422020Y-80525659D01*
X76422020Y-80525659D02*
X76374401Y-80620897D01*
X76374401Y-80620897D02*
X76326782Y-80668516D01*
X76326782Y-80668516D02*
X76231544Y-80716135D01*
X76231544Y-80716135D02*
X75850592Y-80716135D01*
X77374401Y-81192326D02*
X76802973Y-81192326D01*
X77088687Y-81192326D02*
X77088687Y-80192326D01*
X77088687Y-80192326D02*
X76993449Y-80335183D01*
X76993449Y-80335183D02*
X76898211Y-80430421D01*
X76898211Y-80430421D02*
X76802973Y-80478040D01*
X101904001Y-97984819D02*
X101570668Y-97508628D01*
X101332573Y-97984819D02*
X101332573Y-96984819D01*
X101332573Y-96984819D02*
X101713525Y-96984819D01*
X101713525Y-96984819D02*
X101808763Y-97032438D01*
X101808763Y-97032438D02*
X101856382Y-97080057D01*
X101856382Y-97080057D02*
X101904001Y-97175295D01*
X101904001Y-97175295D02*
X101904001Y-97318152D01*
X101904001Y-97318152D02*
X101856382Y-97413390D01*
X101856382Y-97413390D02*
X101808763Y-97461009D01*
X101808763Y-97461009D02*
X101713525Y-97508628D01*
X101713525Y-97508628D02*
X101332573Y-97508628D01*
X102380192Y-97984819D02*
X102570668Y-97984819D01*
X102570668Y-97984819D02*
X102665906Y-97937200D01*
X102665906Y-97937200D02*
X102713525Y-97889580D01*
X102713525Y-97889580D02*
X102808763Y-97746723D01*
X102808763Y-97746723D02*
X102856382Y-97556247D01*
X102856382Y-97556247D02*
X102856382Y-97175295D01*
X102856382Y-97175295D02*
X102808763Y-97080057D01*
X102808763Y-97080057D02*
X102761144Y-97032438D01*
X102761144Y-97032438D02*
X102665906Y-96984819D01*
X102665906Y-96984819D02*
X102475430Y-96984819D01*
X102475430Y-96984819D02*
X102380192Y-97032438D01*
X102380192Y-97032438D02*
X102332573Y-97080057D01*
X102332573Y-97080057D02*
X102284954Y-97175295D01*
X102284954Y-97175295D02*
X102284954Y-97413390D01*
X102284954Y-97413390D02*
X102332573Y-97508628D01*
X102332573Y-97508628D02*
X102380192Y-97556247D01*
X102380192Y-97556247D02*
X102475430Y-97603866D01*
X102475430Y-97603866D02*
X102665906Y-97603866D01*
X102665906Y-97603866D02*
X102761144Y-97556247D01*
X102761144Y-97556247D02*
X102808763Y-97508628D01*
X102808763Y-97508628D02*
X102856382Y-97413390D01*
X104624819Y-65566666D02*
X104148628Y-65899999D01*
X104624819Y-66138094D02*
X103624819Y-66138094D01*
X103624819Y-66138094D02*
X103624819Y-65757142D01*
X103624819Y-65757142D02*
X103672438Y-65661904D01*
X103672438Y-65661904D02*
X103720057Y-65614285D01*
X103720057Y-65614285D02*
X103815295Y-65566666D01*
X103815295Y-65566666D02*
X103958152Y-65566666D01*
X103958152Y-65566666D02*
X104053390Y-65614285D01*
X104053390Y-65614285D02*
X104101009Y-65661904D01*
X104101009Y-65661904D02*
X104148628Y-65757142D01*
X104148628Y-65757142D02*
X104148628Y-66138094D01*
X103720057Y-65185713D02*
X103672438Y-65138094D01*
X103672438Y-65138094D02*
X103624819Y-65042856D01*
X103624819Y-65042856D02*
X103624819Y-64804761D01*
X103624819Y-64804761D02*
X103672438Y-64709523D01*
X103672438Y-64709523D02*
X103720057Y-64661904D01*
X103720057Y-64661904D02*
X103815295Y-64614285D01*
X103815295Y-64614285D02*
X103910533Y-64614285D01*
X103910533Y-64614285D02*
X104053390Y-64661904D01*
X104053390Y-64661904D02*
X104624819Y-65233332D01*
X104624819Y-65233332D02*
X104624819Y-64614285D01*
X84557142Y-87454819D02*
X84223809Y-86978628D01*
X83985714Y-87454819D02*
X83985714Y-86454819D01*
X83985714Y-86454819D02*
X84366666Y-86454819D01*
X84366666Y-86454819D02*
X84461904Y-86502438D01*
X84461904Y-86502438D02*
X84509523Y-86550057D01*
X84509523Y-86550057D02*
X84557142Y-86645295D01*
X84557142Y-86645295D02*
X84557142Y-86788152D01*
X84557142Y-86788152D02*
X84509523Y-86883390D01*
X84509523Y-86883390D02*
X84461904Y-86931009D01*
X84461904Y-86931009D02*
X84366666Y-86978628D01*
X84366666Y-86978628D02*
X83985714Y-86978628D01*
X85509523Y-87454819D02*
X84938095Y-87454819D01*
X85223809Y-87454819D02*
X85223809Y-86454819D01*
X85223809Y-86454819D02*
X85128571Y-86597676D01*
X85128571Y-86597676D02*
X85033333Y-86692914D01*
X85033333Y-86692914D02*
X84938095Y-86740533D01*
X85890476Y-86550057D02*
X85938095Y-86502438D01*
X85938095Y-86502438D02*
X86033333Y-86454819D01*
X86033333Y-86454819D02*
X86271428Y-86454819D01*
X86271428Y-86454819D02*
X86366666Y-86502438D01*
X86366666Y-86502438D02*
X86414285Y-86550057D01*
X86414285Y-86550057D02*
X86461904Y-86645295D01*
X86461904Y-86645295D02*
X86461904Y-86740533D01*
X86461904Y-86740533D02*
X86414285Y-86883390D01*
X86414285Y-86883390D02*
X85842857Y-87454819D01*
X85842857Y-87454819D02*
X86461904Y-87454819D01*
X123275957Y-83281769D02*
X123228338Y-83329389D01*
X123228338Y-83329389D02*
X123085481Y-83377008D01*
X123085481Y-83377008D02*
X122990243Y-83377008D01*
X122990243Y-83377008D02*
X122847386Y-83329389D01*
X122847386Y-83329389D02*
X122752148Y-83234150D01*
X122752148Y-83234150D02*
X122704529Y-83138912D01*
X122704529Y-83138912D02*
X122656910Y-82948436D01*
X122656910Y-82948436D02*
X122656910Y-82805579D01*
X122656910Y-82805579D02*
X122704529Y-82615103D01*
X122704529Y-82615103D02*
X122752148Y-82519865D01*
X122752148Y-82519865D02*
X122847386Y-82424627D01*
X122847386Y-82424627D02*
X122990243Y-82377008D01*
X122990243Y-82377008D02*
X123085481Y-82377008D01*
X123085481Y-82377008D02*
X123228338Y-82424627D01*
X123228338Y-82424627D02*
X123275957Y-82472246D01*
X124228338Y-83377008D02*
X123656910Y-83377008D01*
X123942624Y-83377008D02*
X123942624Y-82377008D01*
X123942624Y-82377008D02*
X123847386Y-82519865D01*
X123847386Y-82519865D02*
X123752148Y-82615103D01*
X123752148Y-82615103D02*
X123656910Y-82662722D01*
X124847386Y-82377008D02*
X124942624Y-82377008D01*
X124942624Y-82377008D02*
X125037862Y-82424627D01*
X125037862Y-82424627D02*
X125085481Y-82472246D01*
X125085481Y-82472246D02*
X125133100Y-82567484D01*
X125133100Y-82567484D02*
X125180719Y-82757960D01*
X125180719Y-82757960D02*
X125180719Y-82996055D01*
X125180719Y-82996055D02*
X125133100Y-83186531D01*
X125133100Y-83186531D02*
X125085481Y-83281769D01*
X125085481Y-83281769D02*
X125037862Y-83329389D01*
X125037862Y-83329389D02*
X124942624Y-83377008D01*
X124942624Y-83377008D02*
X124847386Y-83377008D01*
X124847386Y-83377008D02*
X124752148Y-83329389D01*
X124752148Y-83329389D02*
X124704529Y-83281769D01*
X124704529Y-83281769D02*
X124656910Y-83186531D01*
X124656910Y-83186531D02*
X124609291Y-82996055D01*
X124609291Y-82996055D02*
X124609291Y-82757960D01*
X124609291Y-82757960D02*
X124656910Y-82567484D01*
X124656910Y-82567484D02*
X124704529Y-82472246D01*
X124704529Y-82472246D02*
X124752148Y-82424627D01*
X124752148Y-82424627D02*
X124847386Y-82377008D01*
X91726819Y-81666094D02*
X90726819Y-81666094D01*
X90726819Y-81666094D02*
X90726819Y-81427999D01*
X90726819Y-81427999D02*
X90774438Y-81285142D01*
X90774438Y-81285142D02*
X90869676Y-81189904D01*
X90869676Y-81189904D02*
X90964914Y-81142285D01*
X90964914Y-81142285D02*
X91155390Y-81094666D01*
X91155390Y-81094666D02*
X91298247Y-81094666D01*
X91298247Y-81094666D02*
X91488723Y-81142285D01*
X91488723Y-81142285D02*
X91583961Y-81189904D01*
X91583961Y-81189904D02*
X91679200Y-81285142D01*
X91679200Y-81285142D02*
X91726819Y-81427999D01*
X91726819Y-81427999D02*
X91726819Y-81666094D01*
X90726819Y-80189904D02*
X90726819Y-80666094D01*
X90726819Y-80666094D02*
X91203009Y-80713713D01*
X91203009Y-80713713D02*
X91155390Y-80666094D01*
X91155390Y-80666094D02*
X91107771Y-80570856D01*
X91107771Y-80570856D02*
X91107771Y-80332761D01*
X91107771Y-80332761D02*
X91155390Y-80237523D01*
X91155390Y-80237523D02*
X91203009Y-80189904D01*
X91203009Y-80189904D02*
X91298247Y-80142285D01*
X91298247Y-80142285D02*
X91536342Y-80142285D01*
X91536342Y-80142285D02*
X91631580Y-80189904D01*
X91631580Y-80189904D02*
X91679200Y-80237523D01*
X91679200Y-80237523D02*
X91726819Y-80332761D01*
X91726819Y-80332761D02*
X91726819Y-80570856D01*
X91726819Y-80570856D02*
X91679200Y-80666094D01*
X91679200Y-80666094D02*
X91631580Y-80713713D01*
X101433333Y-79659580D02*
X101385714Y-79707200D01*
X101385714Y-79707200D02*
X101242857Y-79754819D01*
X101242857Y-79754819D02*
X101147619Y-79754819D01*
X101147619Y-79754819D02*
X101004762Y-79707200D01*
X101004762Y-79707200D02*
X100909524Y-79611961D01*
X100909524Y-79611961D02*
X100861905Y-79516723D01*
X100861905Y-79516723D02*
X100814286Y-79326247D01*
X100814286Y-79326247D02*
X100814286Y-79183390D01*
X100814286Y-79183390D02*
X100861905Y-78992914D01*
X100861905Y-78992914D02*
X100909524Y-78897676D01*
X100909524Y-78897676D02*
X101004762Y-78802438D01*
X101004762Y-78802438D02*
X101147619Y-78754819D01*
X101147619Y-78754819D02*
X101242857Y-78754819D01*
X101242857Y-78754819D02*
X101385714Y-78802438D01*
X101385714Y-78802438D02*
X101433333Y-78850057D01*
X101814286Y-78850057D02*
X101861905Y-78802438D01*
X101861905Y-78802438D02*
X101957143Y-78754819D01*
X101957143Y-78754819D02*
X102195238Y-78754819D01*
X102195238Y-78754819D02*
X102290476Y-78802438D01*
X102290476Y-78802438D02*
X102338095Y-78850057D01*
X102338095Y-78850057D02*
X102385714Y-78945295D01*
X102385714Y-78945295D02*
X102385714Y-79040533D01*
X102385714Y-79040533D02*
X102338095Y-79183390D01*
X102338095Y-79183390D02*
X101766667Y-79754819D01*
X101766667Y-79754819D02*
X102385714Y-79754819D01*
X119923751Y-81755358D02*
X119876132Y-81802978D01*
X119876132Y-81802978D02*
X119733275Y-81850597D01*
X119733275Y-81850597D02*
X119638037Y-81850597D01*
X119638037Y-81850597D02*
X119495180Y-81802978D01*
X119495180Y-81802978D02*
X119399942Y-81707739D01*
X119399942Y-81707739D02*
X119352323Y-81612501D01*
X119352323Y-81612501D02*
X119304704Y-81422025D01*
X119304704Y-81422025D02*
X119304704Y-81279168D01*
X119304704Y-81279168D02*
X119352323Y-81088692D01*
X119352323Y-81088692D02*
X119399942Y-80993454D01*
X119399942Y-80993454D02*
X119495180Y-80898216D01*
X119495180Y-80898216D02*
X119638037Y-80850597D01*
X119638037Y-80850597D02*
X119733275Y-80850597D01*
X119733275Y-80850597D02*
X119876132Y-80898216D01*
X119876132Y-80898216D02*
X119923751Y-80945835D01*
X120876132Y-81850597D02*
X120304704Y-81850597D01*
X120590418Y-81850597D02*
X120590418Y-80850597D01*
X120590418Y-80850597D02*
X120495180Y-80993454D01*
X120495180Y-80993454D02*
X120399942Y-81088692D01*
X120399942Y-81088692D02*
X120304704Y-81136311D01*
X110133333Y-81454819D02*
X109800000Y-80978628D01*
X109561905Y-81454819D02*
X109561905Y-80454819D01*
X109561905Y-80454819D02*
X109942857Y-80454819D01*
X109942857Y-80454819D02*
X110038095Y-80502438D01*
X110038095Y-80502438D02*
X110085714Y-80550057D01*
X110085714Y-80550057D02*
X110133333Y-80645295D01*
X110133333Y-80645295D02*
X110133333Y-80788152D01*
X110133333Y-80788152D02*
X110085714Y-80883390D01*
X110085714Y-80883390D02*
X110038095Y-80931009D01*
X110038095Y-80931009D02*
X109942857Y-80978628D01*
X109942857Y-80978628D02*
X109561905Y-80978628D01*
X110704762Y-80883390D02*
X110609524Y-80835771D01*
X110609524Y-80835771D02*
X110561905Y-80788152D01*
X110561905Y-80788152D02*
X110514286Y-80692914D01*
X110514286Y-80692914D02*
X110514286Y-80645295D01*
X110514286Y-80645295D02*
X110561905Y-80550057D01*
X110561905Y-80550057D02*
X110609524Y-80502438D01*
X110609524Y-80502438D02*
X110704762Y-80454819D01*
X110704762Y-80454819D02*
X110895238Y-80454819D01*
X110895238Y-80454819D02*
X110990476Y-80502438D01*
X110990476Y-80502438D02*
X111038095Y-80550057D01*
X111038095Y-80550057D02*
X111085714Y-80645295D01*
X111085714Y-80645295D02*
X111085714Y-80692914D01*
X111085714Y-80692914D02*
X111038095Y-80788152D01*
X111038095Y-80788152D02*
X110990476Y-80835771D01*
X110990476Y-80835771D02*
X110895238Y-80883390D01*
X110895238Y-80883390D02*
X110704762Y-80883390D01*
X110704762Y-80883390D02*
X110609524Y-80931009D01*
X110609524Y-80931009D02*
X110561905Y-80978628D01*
X110561905Y-80978628D02*
X110514286Y-81073866D01*
X110514286Y-81073866D02*
X110514286Y-81264342D01*
X110514286Y-81264342D02*
X110561905Y-81359580D01*
X110561905Y-81359580D02*
X110609524Y-81407200D01*
X110609524Y-81407200D02*
X110704762Y-81454819D01*
X110704762Y-81454819D02*
X110895238Y-81454819D01*
X110895238Y-81454819D02*
X110990476Y-81407200D01*
X110990476Y-81407200D02*
X111038095Y-81359580D01*
X111038095Y-81359580D02*
X111085714Y-81264342D01*
X111085714Y-81264342D02*
X111085714Y-81073866D01*
X111085714Y-81073866D02*
X111038095Y-80978628D01*
X111038095Y-80978628D02*
X110990476Y-80931009D01*
X110990476Y-80931009D02*
X110895238Y-80883390D01*
X106959580Y-79166666D02*
X107007200Y-79214285D01*
X107007200Y-79214285D02*
X107054819Y-79357142D01*
X107054819Y-79357142D02*
X107054819Y-79452380D01*
X107054819Y-79452380D02*
X107007200Y-79595237D01*
X107007200Y-79595237D02*
X106911961Y-79690475D01*
X106911961Y-79690475D02*
X106816723Y-79738094D01*
X106816723Y-79738094D02*
X106626247Y-79785713D01*
X106626247Y-79785713D02*
X106483390Y-79785713D01*
X106483390Y-79785713D02*
X106292914Y-79738094D01*
X106292914Y-79738094D02*
X106197676Y-79690475D01*
X106197676Y-79690475D02*
X106102438Y-79595237D01*
X106102438Y-79595237D02*
X106054819Y-79452380D01*
X106054819Y-79452380D02*
X106054819Y-79357142D01*
X106054819Y-79357142D02*
X106102438Y-79214285D01*
X106102438Y-79214285D02*
X106150057Y-79166666D01*
X106054819Y-78261904D02*
X106054819Y-78738094D01*
X106054819Y-78738094D02*
X106531009Y-78785713D01*
X106531009Y-78785713D02*
X106483390Y-78738094D01*
X106483390Y-78738094D02*
X106435771Y-78642856D01*
X106435771Y-78642856D02*
X106435771Y-78404761D01*
X106435771Y-78404761D02*
X106483390Y-78309523D01*
X106483390Y-78309523D02*
X106531009Y-78261904D01*
X106531009Y-78261904D02*
X106626247Y-78214285D01*
X106626247Y-78214285D02*
X106864342Y-78214285D01*
X106864342Y-78214285D02*
X106959580Y-78261904D01*
X106959580Y-78261904D02*
X107007200Y-78309523D01*
X107007200Y-78309523D02*
X107054819Y-78404761D01*
X107054819Y-78404761D02*
X107054819Y-78642856D01*
X107054819Y-78642856D02*
X107007200Y-78738094D01*
X107007200Y-78738094D02*
X106959580Y-78785713D01*
X81154819Y-82242857D02*
X80678628Y-82576190D01*
X81154819Y-82814285D02*
X80154819Y-82814285D01*
X80154819Y-82814285D02*
X80154819Y-82433333D01*
X80154819Y-82433333D02*
X80202438Y-82338095D01*
X80202438Y-82338095D02*
X80250057Y-82290476D01*
X80250057Y-82290476D02*
X80345295Y-82242857D01*
X80345295Y-82242857D02*
X80488152Y-82242857D01*
X80488152Y-82242857D02*
X80583390Y-82290476D01*
X80583390Y-82290476D02*
X80631009Y-82338095D01*
X80631009Y-82338095D02*
X80678628Y-82433333D01*
X80678628Y-82433333D02*
X80678628Y-82814285D01*
X81154819Y-81290476D02*
X81154819Y-81861904D01*
X81154819Y-81576190D02*
X80154819Y-81576190D01*
X80154819Y-81576190D02*
X80297676Y-81671428D01*
X80297676Y-81671428D02*
X80392914Y-81766666D01*
X80392914Y-81766666D02*
X80440533Y-81861904D01*
X81154819Y-80338095D02*
X81154819Y-80909523D01*
X81154819Y-80623809D02*
X80154819Y-80623809D01*
X80154819Y-80623809D02*
X80297676Y-80719047D01*
X80297676Y-80719047D02*
X80392914Y-80814285D01*
X80392914Y-80814285D02*
X80440533Y-80909523D01*
X88159580Y-85342857D02*
X88207200Y-85390476D01*
X88207200Y-85390476D02*
X88254819Y-85533333D01*
X88254819Y-85533333D02*
X88254819Y-85628571D01*
X88254819Y-85628571D02*
X88207200Y-85771428D01*
X88207200Y-85771428D02*
X88111961Y-85866666D01*
X88111961Y-85866666D02*
X88016723Y-85914285D01*
X88016723Y-85914285D02*
X87826247Y-85961904D01*
X87826247Y-85961904D02*
X87683390Y-85961904D01*
X87683390Y-85961904D02*
X87492914Y-85914285D01*
X87492914Y-85914285D02*
X87397676Y-85866666D01*
X87397676Y-85866666D02*
X87302438Y-85771428D01*
X87302438Y-85771428D02*
X87254819Y-85628571D01*
X87254819Y-85628571D02*
X87254819Y-85533333D01*
X87254819Y-85533333D02*
X87302438Y-85390476D01*
X87302438Y-85390476D02*
X87350057Y-85342857D01*
X88254819Y-84390476D02*
X88254819Y-84961904D01*
X88254819Y-84676190D02*
X87254819Y-84676190D01*
X87254819Y-84676190D02*
X87397676Y-84771428D01*
X87397676Y-84771428D02*
X87492914Y-84866666D01*
X87492914Y-84866666D02*
X87540533Y-84961904D01*
X87254819Y-84057142D02*
X87254819Y-83390476D01*
X87254819Y-83390476D02*
X88254819Y-83819047D01*
X109059580Y-95042857D02*
X109107200Y-95090476D01*
X109107200Y-95090476D02*
X109154819Y-95233333D01*
X109154819Y-95233333D02*
X109154819Y-95328571D01*
X109154819Y-95328571D02*
X109107200Y-95471428D01*
X109107200Y-95471428D02*
X109011961Y-95566666D01*
X109011961Y-95566666D02*
X108916723Y-95614285D01*
X108916723Y-95614285D02*
X108726247Y-95661904D01*
X108726247Y-95661904D02*
X108583390Y-95661904D01*
X108583390Y-95661904D02*
X108392914Y-95614285D01*
X108392914Y-95614285D02*
X108297676Y-95566666D01*
X108297676Y-95566666D02*
X108202438Y-95471428D01*
X108202438Y-95471428D02*
X108154819Y-95328571D01*
X108154819Y-95328571D02*
X108154819Y-95233333D01*
X108154819Y-95233333D02*
X108202438Y-95090476D01*
X108202438Y-95090476D02*
X108250057Y-95042857D01*
X109154819Y-94090476D02*
X109154819Y-94661904D01*
X109154819Y-94376190D02*
X108154819Y-94376190D01*
X108154819Y-94376190D02*
X108297676Y-94471428D01*
X108297676Y-94471428D02*
X108392914Y-94566666D01*
X108392914Y-94566666D02*
X108440533Y-94661904D01*
X108250057Y-93709523D02*
X108202438Y-93661904D01*
X108202438Y-93661904D02*
X108154819Y-93566666D01*
X108154819Y-93566666D02*
X108154819Y-93328571D01*
X108154819Y-93328571D02*
X108202438Y-93233333D01*
X108202438Y-93233333D02*
X108250057Y-93185714D01*
X108250057Y-93185714D02*
X108345295Y-93138095D01*
X108345295Y-93138095D02*
X108440533Y-93138095D01*
X108440533Y-93138095D02*
X108583390Y-93185714D01*
X108583390Y-93185714D02*
X109154819Y-93757142D01*
X109154819Y-93757142D02*
X109154819Y-93138095D01*
X127359580Y-95566666D02*
X127407200Y-95614285D01*
X127407200Y-95614285D02*
X127454819Y-95757142D01*
X127454819Y-95757142D02*
X127454819Y-95852380D01*
X127454819Y-95852380D02*
X127407200Y-95995237D01*
X127407200Y-95995237D02*
X127311961Y-96090475D01*
X127311961Y-96090475D02*
X127216723Y-96138094D01*
X127216723Y-96138094D02*
X127026247Y-96185713D01*
X127026247Y-96185713D02*
X126883390Y-96185713D01*
X126883390Y-96185713D02*
X126692914Y-96138094D01*
X126692914Y-96138094D02*
X126597676Y-96090475D01*
X126597676Y-96090475D02*
X126502438Y-95995237D01*
X126502438Y-95995237D02*
X126454819Y-95852380D01*
X126454819Y-95852380D02*
X126454819Y-95757142D01*
X126454819Y-95757142D02*
X126502438Y-95614285D01*
X126502438Y-95614285D02*
X126550057Y-95566666D01*
X127454819Y-95090475D02*
X127454819Y-94899999D01*
X127454819Y-94899999D02*
X127407200Y-94804761D01*
X127407200Y-94804761D02*
X127359580Y-94757142D01*
X127359580Y-94757142D02*
X127216723Y-94661904D01*
X127216723Y-94661904D02*
X127026247Y-94614285D01*
X127026247Y-94614285D02*
X126645295Y-94614285D01*
X126645295Y-94614285D02*
X126550057Y-94661904D01*
X126550057Y-94661904D02*
X126502438Y-94709523D01*
X126502438Y-94709523D02*
X126454819Y-94804761D01*
X126454819Y-94804761D02*
X126454819Y-94995237D01*
X126454819Y-94995237D02*
X126502438Y-95090475D01*
X126502438Y-95090475D02*
X126550057Y-95138094D01*
X126550057Y-95138094D02*
X126645295Y-95185713D01*
X126645295Y-95185713D02*
X126883390Y-95185713D01*
X126883390Y-95185713D02*
X126978628Y-95138094D01*
X126978628Y-95138094D02*
X127026247Y-95090475D01*
X127026247Y-95090475D02*
X127073866Y-94995237D01*
X127073866Y-94995237D02*
X127073866Y-94804761D01*
X127073866Y-94804761D02*
X127026247Y-94709523D01*
X127026247Y-94709523D02*
X126978628Y-94661904D01*
X126978628Y-94661904D02*
X126883390Y-94614285D01*
X97408073Y-93401322D02*
X97455693Y-93448941D01*
X97455693Y-93448941D02*
X97503312Y-93591798D01*
X97503312Y-93591798D02*
X97503312Y-93687036D01*
X97503312Y-93687036D02*
X97455693Y-93829893D01*
X97455693Y-93829893D02*
X97360454Y-93925131D01*
X97360454Y-93925131D02*
X97265216Y-93972750D01*
X97265216Y-93972750D02*
X97074740Y-94020369D01*
X97074740Y-94020369D02*
X96931883Y-94020369D01*
X96931883Y-94020369D02*
X96741407Y-93972750D01*
X96741407Y-93972750D02*
X96646169Y-93925131D01*
X96646169Y-93925131D02*
X96550931Y-93829893D01*
X96550931Y-93829893D02*
X96503312Y-93687036D01*
X96503312Y-93687036D02*
X96503312Y-93591798D01*
X96503312Y-93591798D02*
X96550931Y-93448941D01*
X96550931Y-93448941D02*
X96598550Y-93401322D01*
X97503312Y-92448941D02*
X97503312Y-93020369D01*
X97503312Y-92734655D02*
X96503312Y-92734655D01*
X96503312Y-92734655D02*
X96646169Y-92829893D01*
X96646169Y-92829893D02*
X96741407Y-92925131D01*
X96741407Y-92925131D02*
X96789026Y-93020369D01*
X96503312Y-92115607D02*
X96503312Y-91496560D01*
X96503312Y-91496560D02*
X96884264Y-91829893D01*
X96884264Y-91829893D02*
X96884264Y-91687036D01*
X96884264Y-91687036D02*
X96931883Y-91591798D01*
X96931883Y-91591798D02*
X96979502Y-91544179D01*
X96979502Y-91544179D02*
X97074740Y-91496560D01*
X97074740Y-91496560D02*
X97312835Y-91496560D01*
X97312835Y-91496560D02*
X97408073Y-91544179D01*
X97408073Y-91544179D02*
X97455693Y-91591798D01*
X97455693Y-91591798D02*
X97503312Y-91687036D01*
X97503312Y-91687036D02*
X97503312Y-91972750D01*
X97503312Y-91972750D02*
X97455693Y-92067988D01*
X97455693Y-92067988D02*
X97408073Y-92115607D01*
X108657142Y-97659580D02*
X108609523Y-97707200D01*
X108609523Y-97707200D02*
X108466666Y-97754819D01*
X108466666Y-97754819D02*
X108371428Y-97754819D01*
X108371428Y-97754819D02*
X108228571Y-97707200D01*
X108228571Y-97707200D02*
X108133333Y-97611961D01*
X108133333Y-97611961D02*
X108085714Y-97516723D01*
X108085714Y-97516723D02*
X108038095Y-97326247D01*
X108038095Y-97326247D02*
X108038095Y-97183390D01*
X108038095Y-97183390D02*
X108085714Y-96992914D01*
X108085714Y-96992914D02*
X108133333Y-96897676D01*
X108133333Y-96897676D02*
X108228571Y-96802438D01*
X108228571Y-96802438D02*
X108371428Y-96754819D01*
X108371428Y-96754819D02*
X108466666Y-96754819D01*
X108466666Y-96754819D02*
X108609523Y-96802438D01*
X108609523Y-96802438D02*
X108657142Y-96850057D01*
X109609523Y-97754819D02*
X109038095Y-97754819D01*
X109323809Y-97754819D02*
X109323809Y-96754819D01*
X109323809Y-96754819D02*
X109228571Y-96897676D01*
X109228571Y-96897676D02*
X109133333Y-96992914D01*
X109133333Y-96992914D02*
X109038095Y-97040533D01*
X110180952Y-97183390D02*
X110085714Y-97135771D01*
X110085714Y-97135771D02*
X110038095Y-97088152D01*
X110038095Y-97088152D02*
X109990476Y-96992914D01*
X109990476Y-96992914D02*
X109990476Y-96945295D01*
X109990476Y-96945295D02*
X110038095Y-96850057D01*
X110038095Y-96850057D02*
X110085714Y-96802438D01*
X110085714Y-96802438D02*
X110180952Y-96754819D01*
X110180952Y-96754819D02*
X110371428Y-96754819D01*
X110371428Y-96754819D02*
X110466666Y-96802438D01*
X110466666Y-96802438D02*
X110514285Y-96850057D01*
X110514285Y-96850057D02*
X110561904Y-96945295D01*
X110561904Y-96945295D02*
X110561904Y-96992914D01*
X110561904Y-96992914D02*
X110514285Y-97088152D01*
X110514285Y-97088152D02*
X110466666Y-97135771D01*
X110466666Y-97135771D02*
X110371428Y-97183390D01*
X110371428Y-97183390D02*
X110180952Y-97183390D01*
X110180952Y-97183390D02*
X110085714Y-97231009D01*
X110085714Y-97231009D02*
X110038095Y-97278628D01*
X110038095Y-97278628D02*
X109990476Y-97373866D01*
X109990476Y-97373866D02*
X109990476Y-97564342D01*
X109990476Y-97564342D02*
X110038095Y-97659580D01*
X110038095Y-97659580D02*
X110085714Y-97707200D01*
X110085714Y-97707200D02*
X110180952Y-97754819D01*
X110180952Y-97754819D02*
X110371428Y-97754819D01*
X110371428Y-97754819D02*
X110466666Y-97707200D01*
X110466666Y-97707200D02*
X110514285Y-97659580D01*
X110514285Y-97659580D02*
X110561904Y-97564342D01*
X110561904Y-97564342D02*
X110561904Y-97373866D01*
X110561904Y-97373866D02*
X110514285Y-97278628D01*
X110514285Y-97278628D02*
X110466666Y-97231009D01*
X110466666Y-97231009D02*
X110371428Y-97183390D01*
X97166666Y-72844819D02*
X97166666Y-73559104D01*
X97166666Y-73559104D02*
X97119047Y-73701961D01*
X97119047Y-73701961D02*
X97023809Y-73797200D01*
X97023809Y-73797200D02*
X96880952Y-73844819D01*
X96880952Y-73844819D02*
X96785714Y-73844819D01*
X98119047Y-72844819D02*
X97642857Y-72844819D01*
X97642857Y-72844819D02*
X97595238Y-73321009D01*
X97595238Y-73321009D02*
X97642857Y-73273390D01*
X97642857Y-73273390D02*
X97738095Y-73225771D01*
X97738095Y-73225771D02*
X97976190Y-73225771D01*
X97976190Y-73225771D02*
X98071428Y-73273390D01*
X98071428Y-73273390D02*
X98119047Y-73321009D01*
X98119047Y-73321009D02*
X98166666Y-73416247D01*
X98166666Y-73416247D02*
X98166666Y-73654342D01*
X98166666Y-73654342D02*
X98119047Y-73749580D01*
X98119047Y-73749580D02*
X98071428Y-73797200D01*
X98071428Y-73797200D02*
X97976190Y-73844819D01*
X97976190Y-73844819D02*
X97738095Y-73844819D01*
X97738095Y-73844819D02*
X97642857Y-73797200D01*
X97642857Y-73797200D02*
X97595238Y-73749580D01*
X116677311Y-68830357D02*
X116201120Y-69163690D01*
X116677311Y-69401785D02*
X115677311Y-69401785D01*
X115677311Y-69401785D02*
X115677311Y-69020833D01*
X115677311Y-69020833D02*
X115724930Y-68925595D01*
X115724930Y-68925595D02*
X115772549Y-68877976D01*
X115772549Y-68877976D02*
X115867787Y-68830357D01*
X115867787Y-68830357D02*
X116010644Y-68830357D01*
X116010644Y-68830357D02*
X116105882Y-68877976D01*
X116105882Y-68877976D02*
X116153501Y-68925595D01*
X116153501Y-68925595D02*
X116201120Y-69020833D01*
X116201120Y-69020833D02*
X116201120Y-69401785D01*
X116677311Y-67877976D02*
X116677311Y-68449404D01*
X116677311Y-68163690D02*
X115677311Y-68163690D01*
X115677311Y-68163690D02*
X115820168Y-68258928D01*
X115820168Y-68258928D02*
X115915406Y-68354166D01*
X115915406Y-68354166D02*
X115963025Y-68449404D01*
X116010644Y-67020833D02*
X116677311Y-67020833D01*
X115629692Y-67258928D02*
X116343977Y-67497023D01*
X116343977Y-67497023D02*
X116343977Y-66877976D01*
X119560587Y-66928825D02*
X120132015Y-66928825D01*
X119846301Y-67928825D02*
X119846301Y-66928825D01*
X120465349Y-67928825D02*
X120465349Y-66928825D01*
X120465349Y-66928825D02*
X120846301Y-66928825D01*
X120846301Y-66928825D02*
X120941539Y-66976444D01*
X120941539Y-66976444D02*
X120989158Y-67024063D01*
X120989158Y-67024063D02*
X121036777Y-67119301D01*
X121036777Y-67119301D02*
X121036777Y-67262158D01*
X121036777Y-67262158D02*
X120989158Y-67357396D01*
X120989158Y-67357396D02*
X120941539Y-67405015D01*
X120941539Y-67405015D02*
X120846301Y-67452634D01*
X120846301Y-67452634D02*
X120465349Y-67452634D01*
X121893920Y-67262158D02*
X121893920Y-67928825D01*
X121655825Y-66881206D02*
X121417730Y-67595491D01*
X121417730Y-67595491D02*
X122036777Y-67595491D01*
X119038095Y-85906819D02*
X119609523Y-85906819D01*
X119323809Y-86906819D02*
X119323809Y-85906819D01*
X119942857Y-86906819D02*
X119942857Y-85906819D01*
X119942857Y-85906819D02*
X120323809Y-85906819D01*
X120323809Y-85906819D02*
X120419047Y-85954438D01*
X120419047Y-85954438D02*
X120466666Y-86002057D01*
X120466666Y-86002057D02*
X120514285Y-86097295D01*
X120514285Y-86097295D02*
X120514285Y-86240152D01*
X120514285Y-86240152D02*
X120466666Y-86335390D01*
X120466666Y-86335390D02*
X120419047Y-86383009D01*
X120419047Y-86383009D02*
X120323809Y-86430628D01*
X120323809Y-86430628D02*
X119942857Y-86430628D01*
X121466666Y-86906819D02*
X120895238Y-86906819D01*
X121180952Y-86906819D02*
X121180952Y-85906819D01*
X121180952Y-85906819D02*
X121085714Y-86049676D01*
X121085714Y-86049676D02*
X120990476Y-86144914D01*
X120990476Y-86144914D02*
X120895238Y-86192533D01*
X88494422Y-89596200D02*
X88399184Y-89548581D01*
X88399184Y-89548581D02*
X88303946Y-89453343D01*
X88303946Y-89453343D02*
X88161089Y-89310485D01*
X88161089Y-89310485D02*
X88065851Y-89262866D01*
X88065851Y-89262866D02*
X87970613Y-89262866D01*
X88018232Y-89500962D02*
X87922994Y-89453343D01*
X87922994Y-89453343D02*
X87827756Y-89358104D01*
X87827756Y-89358104D02*
X87780137Y-89167628D01*
X87780137Y-89167628D02*
X87780137Y-88834295D01*
X87780137Y-88834295D02*
X87827756Y-88643819D01*
X87827756Y-88643819D02*
X87922994Y-88548581D01*
X87922994Y-88548581D02*
X88018232Y-88500962D01*
X88018232Y-88500962D02*
X88208708Y-88500962D01*
X88208708Y-88500962D02*
X88303946Y-88548581D01*
X88303946Y-88548581D02*
X88399184Y-88643819D01*
X88399184Y-88643819D02*
X88446803Y-88834295D01*
X88446803Y-88834295D02*
X88446803Y-89167628D01*
X88446803Y-89167628D02*
X88399184Y-89358104D01*
X88399184Y-89358104D02*
X88303946Y-89453343D01*
X88303946Y-89453343D02*
X88208708Y-89500962D01*
X88208708Y-89500962D02*
X88018232Y-89500962D01*
X88827756Y-88596200D02*
X88875375Y-88548581D01*
X88875375Y-88548581D02*
X88970613Y-88500962D01*
X88970613Y-88500962D02*
X89208708Y-88500962D01*
X89208708Y-88500962D02*
X89303946Y-88548581D01*
X89303946Y-88548581D02*
X89351565Y-88596200D01*
X89351565Y-88596200D02*
X89399184Y-88691438D01*
X89399184Y-88691438D02*
X89399184Y-88786676D01*
X89399184Y-88786676D02*
X89351565Y-88929533D01*
X89351565Y-88929533D02*
X88780137Y-89500962D01*
X88780137Y-89500962D02*
X89399184Y-89500962D01*
X85704761Y-66950057D02*
X85609523Y-66902438D01*
X85609523Y-66902438D02*
X85514285Y-66807200D01*
X85514285Y-66807200D02*
X85371428Y-66664342D01*
X85371428Y-66664342D02*
X85276190Y-66616723D01*
X85276190Y-66616723D02*
X85180952Y-66616723D01*
X85228571Y-66854819D02*
X85133333Y-66807200D01*
X85133333Y-66807200D02*
X85038095Y-66711961D01*
X85038095Y-66711961D02*
X84990476Y-66521485D01*
X84990476Y-66521485D02*
X84990476Y-66188152D01*
X84990476Y-66188152D02*
X85038095Y-65997676D01*
X85038095Y-65997676D02*
X85133333Y-65902438D01*
X85133333Y-65902438D02*
X85228571Y-65854819D01*
X85228571Y-65854819D02*
X85419047Y-65854819D01*
X85419047Y-65854819D02*
X85514285Y-65902438D01*
X85514285Y-65902438D02*
X85609523Y-65997676D01*
X85609523Y-65997676D02*
X85657142Y-66188152D01*
X85657142Y-66188152D02*
X85657142Y-66521485D01*
X85657142Y-66521485D02*
X85609523Y-66711961D01*
X85609523Y-66711961D02*
X85514285Y-66807200D01*
X85514285Y-66807200D02*
X85419047Y-66854819D01*
X85419047Y-66854819D02*
X85228571Y-66854819D01*
X86609523Y-66854819D02*
X86038095Y-66854819D01*
X86323809Y-66854819D02*
X86323809Y-65854819D01*
X86323809Y-65854819D02*
X86228571Y-65997676D01*
X86228571Y-65997676D02*
X86133333Y-66092914D01*
X86133333Y-66092914D02*
X86038095Y-66140533D01*
X111433333Y-66359580D02*
X111385714Y-66407200D01*
X111385714Y-66407200D02*
X111242857Y-66454819D01*
X111242857Y-66454819D02*
X111147619Y-66454819D01*
X111147619Y-66454819D02*
X111004762Y-66407200D01*
X111004762Y-66407200D02*
X110909524Y-66311961D01*
X110909524Y-66311961D02*
X110861905Y-66216723D01*
X110861905Y-66216723D02*
X110814286Y-66026247D01*
X110814286Y-66026247D02*
X110814286Y-65883390D01*
X110814286Y-65883390D02*
X110861905Y-65692914D01*
X110861905Y-65692914D02*
X110909524Y-65597676D01*
X110909524Y-65597676D02*
X111004762Y-65502438D01*
X111004762Y-65502438D02*
X111147619Y-65454819D01*
X111147619Y-65454819D02*
X111242857Y-65454819D01*
X111242857Y-65454819D02*
X111385714Y-65502438D01*
X111385714Y-65502438D02*
X111433333Y-65550057D01*
X112290476Y-65454819D02*
X112100000Y-65454819D01*
X112100000Y-65454819D02*
X112004762Y-65502438D01*
X112004762Y-65502438D02*
X111957143Y-65550057D01*
X111957143Y-65550057D02*
X111861905Y-65692914D01*
X111861905Y-65692914D02*
X111814286Y-65883390D01*
X111814286Y-65883390D02*
X111814286Y-66264342D01*
X111814286Y-66264342D02*
X111861905Y-66359580D01*
X111861905Y-66359580D02*
X111909524Y-66407200D01*
X111909524Y-66407200D02*
X112004762Y-66454819D01*
X112004762Y-66454819D02*
X112195238Y-66454819D01*
X112195238Y-66454819D02*
X112290476Y-66407200D01*
X112290476Y-66407200D02*
X112338095Y-66359580D01*
X112338095Y-66359580D02*
X112385714Y-66264342D01*
X112385714Y-66264342D02*
X112385714Y-66026247D01*
X112385714Y-66026247D02*
X112338095Y-65931009D01*
X112338095Y-65931009D02*
X112290476Y-65883390D01*
X112290476Y-65883390D02*
X112195238Y-65835771D01*
X112195238Y-65835771D02*
X112004762Y-65835771D01*
X112004762Y-65835771D02*
X111909524Y-65883390D01*
X111909524Y-65883390D02*
X111861905Y-65931009D01*
X111861905Y-65931009D02*
X111814286Y-66026247D01*
X92966666Y-72754819D02*
X92966666Y-73469104D01*
X92966666Y-73469104D02*
X92919047Y-73611961D01*
X92919047Y-73611961D02*
X92823809Y-73707200D01*
X92823809Y-73707200D02*
X92680952Y-73754819D01*
X92680952Y-73754819D02*
X92585714Y-73754819D01*
X93871428Y-72754819D02*
X93680952Y-72754819D01*
X93680952Y-72754819D02*
X93585714Y-72802438D01*
X93585714Y-72802438D02*
X93538095Y-72850057D01*
X93538095Y-72850057D02*
X93442857Y-72992914D01*
X93442857Y-72992914D02*
X93395238Y-73183390D01*
X93395238Y-73183390D02*
X93395238Y-73564342D01*
X93395238Y-73564342D02*
X93442857Y-73659580D01*
X93442857Y-73659580D02*
X93490476Y-73707200D01*
X93490476Y-73707200D02*
X93585714Y-73754819D01*
X93585714Y-73754819D02*
X93776190Y-73754819D01*
X93776190Y-73754819D02*
X93871428Y-73707200D01*
X93871428Y-73707200D02*
X93919047Y-73659580D01*
X93919047Y-73659580D02*
X93966666Y-73564342D01*
X93966666Y-73564342D02*
X93966666Y-73326247D01*
X93966666Y-73326247D02*
X93919047Y-73231009D01*
X93919047Y-73231009D02*
X93871428Y-73183390D01*
X93871428Y-73183390D02*
X93776190Y-73135771D01*
X93776190Y-73135771D02*
X93585714Y-73135771D01*
X93585714Y-73135771D02*
X93490476Y-73183390D01*
X93490476Y-73183390D02*
X93442857Y-73231009D01*
X93442857Y-73231009D02*
X93395238Y-73326247D01*
X80391666Y-67334819D02*
X80391666Y-68049104D01*
X80391666Y-68049104D02*
X80344047Y-68191961D01*
X80344047Y-68191961D02*
X80248809Y-68287200D01*
X80248809Y-68287200D02*
X80105952Y-68334819D01*
X80105952Y-68334819D02*
X80010714Y-68334819D01*
X80820238Y-67430057D02*
X80867857Y-67382438D01*
X80867857Y-67382438D02*
X80963095Y-67334819D01*
X80963095Y-67334819D02*
X81201190Y-67334819D01*
X81201190Y-67334819D02*
X81296428Y-67382438D01*
X81296428Y-67382438D02*
X81344047Y-67430057D01*
X81344047Y-67430057D02*
X81391666Y-67525295D01*
X81391666Y-67525295D02*
X81391666Y-67620533D01*
X81391666Y-67620533D02*
X81344047Y-67763390D01*
X81344047Y-67763390D02*
X80772619Y-68334819D01*
X80772619Y-68334819D02*
X81391666Y-68334819D01*
X125536666Y-81124819D02*
X125536666Y-81839104D01*
X125536666Y-81839104D02*
X125489047Y-81981961D01*
X125489047Y-81981961D02*
X125393809Y-82077200D01*
X125393809Y-82077200D02*
X125250952Y-82124819D01*
X125250952Y-82124819D02*
X125155714Y-82124819D01*
X126536666Y-82124819D02*
X125965238Y-82124819D01*
X126250952Y-82124819D02*
X126250952Y-81124819D01*
X126250952Y-81124819D02*
X126155714Y-81267676D01*
X126155714Y-81267676D02*
X126060476Y-81362914D01*
X126060476Y-81362914D02*
X125965238Y-81410533D01*
X104338095Y-71754819D02*
X104909523Y-71754819D01*
X104623809Y-72754819D02*
X104623809Y-71754819D01*
X105242857Y-72754819D02*
X105242857Y-71754819D01*
X105242857Y-71754819D02*
X105623809Y-71754819D01*
X105623809Y-71754819D02*
X105719047Y-71802438D01*
X105719047Y-71802438D02*
X105766666Y-71850057D01*
X105766666Y-71850057D02*
X105814285Y-71945295D01*
X105814285Y-71945295D02*
X105814285Y-72088152D01*
X105814285Y-72088152D02*
X105766666Y-72183390D01*
X105766666Y-72183390D02*
X105719047Y-72231009D01*
X105719047Y-72231009D02*
X105623809Y-72278628D01*
X105623809Y-72278628D02*
X105242857Y-72278628D01*
X106147619Y-71754819D02*
X106766666Y-71754819D01*
X106766666Y-71754819D02*
X106433333Y-72135771D01*
X106433333Y-72135771D02*
X106576190Y-72135771D01*
X106576190Y-72135771D02*
X106671428Y-72183390D01*
X106671428Y-72183390D02*
X106719047Y-72231009D01*
X106719047Y-72231009D02*
X106766666Y-72326247D01*
X106766666Y-72326247D02*
X106766666Y-72564342D01*
X106766666Y-72564342D02*
X106719047Y-72659580D01*
X106719047Y-72659580D02*
X106671428Y-72707200D01*
X106671428Y-72707200D02*
X106576190Y-72754819D01*
X106576190Y-72754819D02*
X106290476Y-72754819D01*
X106290476Y-72754819D02*
X106195238Y-72707200D01*
X106195238Y-72707200D02*
X106147619Y-72659580D01*
X98261905Y-83854819D02*
X98261905Y-82854819D01*
X98261905Y-82854819D02*
X98500000Y-82854819D01*
X98500000Y-82854819D02*
X98642857Y-82902438D01*
X98642857Y-82902438D02*
X98738095Y-82997676D01*
X98738095Y-82997676D02*
X98785714Y-83092914D01*
X98785714Y-83092914D02*
X98833333Y-83283390D01*
X98833333Y-83283390D02*
X98833333Y-83426247D01*
X98833333Y-83426247D02*
X98785714Y-83616723D01*
X98785714Y-83616723D02*
X98738095Y-83711961D01*
X98738095Y-83711961D02*
X98642857Y-83807200D01*
X98642857Y-83807200D02*
X98500000Y-83854819D01*
X98500000Y-83854819D02*
X98261905Y-83854819D01*
X99785714Y-83854819D02*
X99214286Y-83854819D01*
X99500000Y-83854819D02*
X99500000Y-82854819D01*
X99500000Y-82854819D02*
X99404762Y-82997676D01*
X99404762Y-82997676D02*
X99309524Y-83092914D01*
X99309524Y-83092914D02*
X99214286Y-83140533D01*
X74657142Y-82459580D02*
X74609523Y-82507200D01*
X74609523Y-82507200D02*
X74466666Y-82554819D01*
X74466666Y-82554819D02*
X74371428Y-82554819D01*
X74371428Y-82554819D02*
X74228571Y-82507200D01*
X74228571Y-82507200D02*
X74133333Y-82411961D01*
X74133333Y-82411961D02*
X74085714Y-82316723D01*
X74085714Y-82316723D02*
X74038095Y-82126247D01*
X74038095Y-82126247D02*
X74038095Y-81983390D01*
X74038095Y-81983390D02*
X74085714Y-81792914D01*
X74085714Y-81792914D02*
X74133333Y-81697676D01*
X74133333Y-81697676D02*
X74228571Y-81602438D01*
X74228571Y-81602438D02*
X74371428Y-81554819D01*
X74371428Y-81554819D02*
X74466666Y-81554819D01*
X74466666Y-81554819D02*
X74609523Y-81602438D01*
X74609523Y-81602438D02*
X74657142Y-81650057D01*
X75609523Y-82554819D02*
X75038095Y-82554819D01*
X75323809Y-82554819D02*
X75323809Y-81554819D01*
X75323809Y-81554819D02*
X75228571Y-81697676D01*
X75228571Y-81697676D02*
X75133333Y-81792914D01*
X75133333Y-81792914D02*
X75038095Y-81840533D01*
X76466666Y-81554819D02*
X76276190Y-81554819D01*
X76276190Y-81554819D02*
X76180952Y-81602438D01*
X76180952Y-81602438D02*
X76133333Y-81650057D01*
X76133333Y-81650057D02*
X76038095Y-81792914D01*
X76038095Y-81792914D02*
X75990476Y-81983390D01*
X75990476Y-81983390D02*
X75990476Y-82364342D01*
X75990476Y-82364342D02*
X76038095Y-82459580D01*
X76038095Y-82459580D02*
X76085714Y-82507200D01*
X76085714Y-82507200D02*
X76180952Y-82554819D01*
X76180952Y-82554819D02*
X76371428Y-82554819D01*
X76371428Y-82554819D02*
X76466666Y-82507200D01*
X76466666Y-82507200D02*
X76514285Y-82459580D01*
X76514285Y-82459580D02*
X76561904Y-82364342D01*
X76561904Y-82364342D02*
X76561904Y-82126247D01*
X76561904Y-82126247D02*
X76514285Y-82031009D01*
X76514285Y-82031009D02*
X76466666Y-81983390D01*
X76466666Y-81983390D02*
X76371428Y-81935771D01*
X76371428Y-81935771D02*
X76180952Y-81935771D01*
X76180952Y-81935771D02*
X76085714Y-81983390D01*
X76085714Y-81983390D02*
X76038095Y-82031009D01*
X76038095Y-82031009D02*
X75990476Y-82126247D01*
X113941905Y-90624819D02*
X113941905Y-89624819D01*
X113941905Y-89624819D02*
X114180000Y-89624819D01*
X114180000Y-89624819D02*
X114322857Y-89672438D01*
X114322857Y-89672438D02*
X114418095Y-89767676D01*
X114418095Y-89767676D02*
X114465714Y-89862914D01*
X114465714Y-89862914D02*
X114513333Y-90053390D01*
X114513333Y-90053390D02*
X114513333Y-90196247D01*
X114513333Y-90196247D02*
X114465714Y-90386723D01*
X114465714Y-90386723D02*
X114418095Y-90481961D01*
X114418095Y-90481961D02*
X114322857Y-90577200D01*
X114322857Y-90577200D02*
X114180000Y-90624819D01*
X114180000Y-90624819D02*
X113941905Y-90624819D01*
X114894286Y-89720057D02*
X114941905Y-89672438D01*
X114941905Y-89672438D02*
X115037143Y-89624819D01*
X115037143Y-89624819D02*
X115275238Y-89624819D01*
X115275238Y-89624819D02*
X115370476Y-89672438D01*
X115370476Y-89672438D02*
X115418095Y-89720057D01*
X115418095Y-89720057D02*
X115465714Y-89815295D01*
X115465714Y-89815295D02*
X115465714Y-89910533D01*
X115465714Y-89910533D02*
X115418095Y-90053390D01*
X115418095Y-90053390D02*
X114846667Y-90624819D01*
X114846667Y-90624819D02*
X115465714Y-90624819D01*
X104202776Y-75437119D02*
X104155157Y-75484739D01*
X104155157Y-75484739D02*
X104012300Y-75532358D01*
X104012300Y-75532358D02*
X103917062Y-75532358D01*
X103917062Y-75532358D02*
X103774205Y-75484739D01*
X103774205Y-75484739D02*
X103678967Y-75389500D01*
X103678967Y-75389500D02*
X103631348Y-75294262D01*
X103631348Y-75294262D02*
X103583729Y-75103786D01*
X103583729Y-75103786D02*
X103583729Y-74960929D01*
X103583729Y-74960929D02*
X103631348Y-74770453D01*
X103631348Y-74770453D02*
X103678967Y-74675215D01*
X103678967Y-74675215D02*
X103774205Y-74579977D01*
X103774205Y-74579977D02*
X103917062Y-74532358D01*
X103917062Y-74532358D02*
X104012300Y-74532358D01*
X104012300Y-74532358D02*
X104155157Y-74579977D01*
X104155157Y-74579977D02*
X104202776Y-74627596D01*
X104774205Y-74960929D02*
X104678967Y-74913310D01*
X104678967Y-74913310D02*
X104631348Y-74865691D01*
X104631348Y-74865691D02*
X104583729Y-74770453D01*
X104583729Y-74770453D02*
X104583729Y-74722834D01*
X104583729Y-74722834D02*
X104631348Y-74627596D01*
X104631348Y-74627596D02*
X104678967Y-74579977D01*
X104678967Y-74579977D02*
X104774205Y-74532358D01*
X104774205Y-74532358D02*
X104964681Y-74532358D01*
X104964681Y-74532358D02*
X105059919Y-74579977D01*
X105059919Y-74579977D02*
X105107538Y-74627596D01*
X105107538Y-74627596D02*
X105155157Y-74722834D01*
X105155157Y-74722834D02*
X105155157Y-74770453D01*
X105155157Y-74770453D02*
X105107538Y-74865691D01*
X105107538Y-74865691D02*
X105059919Y-74913310D01*
X105059919Y-74913310D02*
X104964681Y-74960929D01*
X104964681Y-74960929D02*
X104774205Y-74960929D01*
X104774205Y-74960929D02*
X104678967Y-75008548D01*
X104678967Y-75008548D02*
X104631348Y-75056167D01*
X104631348Y-75056167D02*
X104583729Y-75151405D01*
X104583729Y-75151405D02*
X104583729Y-75341881D01*
X104583729Y-75341881D02*
X104631348Y-75437119D01*
X104631348Y-75437119D02*
X104678967Y-75484739D01*
X104678967Y-75484739D02*
X104774205Y-75532358D01*
X104774205Y-75532358D02*
X104964681Y-75532358D01*
X104964681Y-75532358D02*
X105059919Y-75484739D01*
X105059919Y-75484739D02*
X105107538Y-75437119D01*
X105107538Y-75437119D02*
X105155157Y-75341881D01*
X105155157Y-75341881D02*
X105155157Y-75151405D01*
X105155157Y-75151405D02*
X105107538Y-75056167D01*
X105107538Y-75056167D02*
X105059919Y-75008548D01*
X105059919Y-75008548D02*
X104964681Y-74960929D01*
X116613333Y-90554819D02*
X116280000Y-90078628D01*
X116041905Y-90554819D02*
X116041905Y-89554819D01*
X116041905Y-89554819D02*
X116422857Y-89554819D01*
X116422857Y-89554819D02*
X116518095Y-89602438D01*
X116518095Y-89602438D02*
X116565714Y-89650057D01*
X116565714Y-89650057D02*
X116613333Y-89745295D01*
X116613333Y-89745295D02*
X116613333Y-89888152D01*
X116613333Y-89888152D02*
X116565714Y-89983390D01*
X116565714Y-89983390D02*
X116518095Y-90031009D01*
X116518095Y-90031009D02*
X116422857Y-90078628D01*
X116422857Y-90078628D02*
X116041905Y-90078628D01*
X117470476Y-89888152D02*
X117470476Y-90554819D01*
X117232381Y-89507200D02*
X116994286Y-90221485D01*
X116994286Y-90221485D02*
X117613333Y-90221485D01*
X105057142Y-96254819D02*
X104723809Y-95778628D01*
X104485714Y-96254819D02*
X104485714Y-95254819D01*
X104485714Y-95254819D02*
X104866666Y-95254819D01*
X104866666Y-95254819D02*
X104961904Y-95302438D01*
X104961904Y-95302438D02*
X105009523Y-95350057D01*
X105009523Y-95350057D02*
X105057142Y-95445295D01*
X105057142Y-95445295D02*
X105057142Y-95588152D01*
X105057142Y-95588152D02*
X105009523Y-95683390D01*
X105009523Y-95683390D02*
X104961904Y-95731009D01*
X104961904Y-95731009D02*
X104866666Y-95778628D01*
X104866666Y-95778628D02*
X104485714Y-95778628D01*
X106009523Y-96254819D02*
X105438095Y-96254819D01*
X105723809Y-96254819D02*
X105723809Y-95254819D01*
X105723809Y-95254819D02*
X105628571Y-95397676D01*
X105628571Y-95397676D02*
X105533333Y-95492914D01*
X105533333Y-95492914D02*
X105438095Y-95540533D01*
X106628571Y-95254819D02*
X106723809Y-95254819D01*
X106723809Y-95254819D02*
X106819047Y-95302438D01*
X106819047Y-95302438D02*
X106866666Y-95350057D01*
X106866666Y-95350057D02*
X106914285Y-95445295D01*
X106914285Y-95445295D02*
X106961904Y-95635771D01*
X106961904Y-95635771D02*
X106961904Y-95873866D01*
X106961904Y-95873866D02*
X106914285Y-96064342D01*
X106914285Y-96064342D02*
X106866666Y-96159580D01*
X106866666Y-96159580D02*
X106819047Y-96207200D01*
X106819047Y-96207200D02*
X106723809Y-96254819D01*
X106723809Y-96254819D02*
X106628571Y-96254819D01*
X106628571Y-96254819D02*
X106533333Y-96207200D01*
X106533333Y-96207200D02*
X106485714Y-96159580D01*
X106485714Y-96159580D02*
X106438095Y-96064342D01*
X106438095Y-96064342D02*
X106390476Y-95873866D01*
X106390476Y-95873866D02*
X106390476Y-95635771D01*
X106390476Y-95635771D02*
X106438095Y-95445295D01*
X106438095Y-95445295D02*
X106485714Y-95350057D01*
X106485714Y-95350057D02*
X106533333Y-95302438D01*
X106533333Y-95302438D02*
X106628571Y-95254819D01*
X87959580Y-81642857D02*
X88007200Y-81690476D01*
X88007200Y-81690476D02*
X88054819Y-81833333D01*
X88054819Y-81833333D02*
X88054819Y-81928571D01*
X88054819Y-81928571D02*
X88007200Y-82071428D01*
X88007200Y-82071428D02*
X87911961Y-82166666D01*
X87911961Y-82166666D02*
X87816723Y-82214285D01*
X87816723Y-82214285D02*
X87626247Y-82261904D01*
X87626247Y-82261904D02*
X87483390Y-82261904D01*
X87483390Y-82261904D02*
X87292914Y-82214285D01*
X87292914Y-82214285D02*
X87197676Y-82166666D01*
X87197676Y-82166666D02*
X87102438Y-82071428D01*
X87102438Y-82071428D02*
X87054819Y-81928571D01*
X87054819Y-81928571D02*
X87054819Y-81833333D01*
X87054819Y-81833333D02*
X87102438Y-81690476D01*
X87102438Y-81690476D02*
X87150057Y-81642857D01*
X88054819Y-80690476D02*
X88054819Y-81261904D01*
X88054819Y-80976190D02*
X87054819Y-80976190D01*
X87054819Y-80976190D02*
X87197676Y-81071428D01*
X87197676Y-81071428D02*
X87292914Y-81166666D01*
X87292914Y-81166666D02*
X87340533Y-81261904D01*
X87054819Y-79785714D02*
X87054819Y-80261904D01*
X87054819Y-80261904D02*
X87531009Y-80309523D01*
X87531009Y-80309523D02*
X87483390Y-80261904D01*
X87483390Y-80261904D02*
X87435771Y-80166666D01*
X87435771Y-80166666D02*
X87435771Y-79928571D01*
X87435771Y-79928571D02*
X87483390Y-79833333D01*
X87483390Y-79833333D02*
X87531009Y-79785714D01*
X87531009Y-79785714D02*
X87626247Y-79738095D01*
X87626247Y-79738095D02*
X87864342Y-79738095D01*
X87864342Y-79738095D02*
X87959580Y-79785714D01*
X87959580Y-79785714D02*
X88007200Y-79833333D01*
X88007200Y-79833333D02*
X88054819Y-79928571D01*
X88054819Y-79928571D02*
X88054819Y-80166666D01*
X88054819Y-80166666D02*
X88007200Y-80261904D01*
X88007200Y-80261904D02*
X87959580Y-80309523D01*
X117359580Y-72266666D02*
X117407200Y-72314285D01*
X117407200Y-72314285D02*
X117454819Y-72457142D01*
X117454819Y-72457142D02*
X117454819Y-72552380D01*
X117454819Y-72552380D02*
X117407200Y-72695237D01*
X117407200Y-72695237D02*
X117311961Y-72790475D01*
X117311961Y-72790475D02*
X117216723Y-72838094D01*
X117216723Y-72838094D02*
X117026247Y-72885713D01*
X117026247Y-72885713D02*
X116883390Y-72885713D01*
X116883390Y-72885713D02*
X116692914Y-72838094D01*
X116692914Y-72838094D02*
X116597676Y-72790475D01*
X116597676Y-72790475D02*
X116502438Y-72695237D01*
X116502438Y-72695237D02*
X116454819Y-72552380D01*
X116454819Y-72552380D02*
X116454819Y-72457142D01*
X116454819Y-72457142D02*
X116502438Y-72314285D01*
X116502438Y-72314285D02*
X116550057Y-72266666D01*
X116454819Y-71933332D02*
X116454819Y-71266666D01*
X116454819Y-71266666D02*
X117454819Y-71695237D01*
X73038095Y-87302819D02*
X73609523Y-87302819D01*
X73323809Y-88302819D02*
X73323809Y-87302819D01*
X73942857Y-88302819D02*
X73942857Y-87302819D01*
X73942857Y-87302819D02*
X74323809Y-87302819D01*
X74323809Y-87302819D02*
X74419047Y-87350438D01*
X74419047Y-87350438D02*
X74466666Y-87398057D01*
X74466666Y-87398057D02*
X74514285Y-87493295D01*
X74514285Y-87493295D02*
X74514285Y-87636152D01*
X74514285Y-87636152D02*
X74466666Y-87731390D01*
X74466666Y-87731390D02*
X74419047Y-87779009D01*
X74419047Y-87779009D02*
X74323809Y-87826628D01*
X74323809Y-87826628D02*
X73942857Y-87826628D01*
X74895238Y-87398057D02*
X74942857Y-87350438D01*
X74942857Y-87350438D02*
X75038095Y-87302819D01*
X75038095Y-87302819D02*
X75276190Y-87302819D01*
X75276190Y-87302819D02*
X75371428Y-87350438D01*
X75371428Y-87350438D02*
X75419047Y-87398057D01*
X75419047Y-87398057D02*
X75466666Y-87493295D01*
X75466666Y-87493295D02*
X75466666Y-87588533D01*
X75466666Y-87588533D02*
X75419047Y-87731390D01*
X75419047Y-87731390D02*
X74847619Y-88302819D01*
X74847619Y-88302819D02*
X75466666Y-88302819D01*
X104213333Y-84954819D02*
X103880000Y-84478628D01*
X103641905Y-84954819D02*
X103641905Y-83954819D01*
X103641905Y-83954819D02*
X104022857Y-83954819D01*
X104022857Y-83954819D02*
X104118095Y-84002438D01*
X104118095Y-84002438D02*
X104165714Y-84050057D01*
X104165714Y-84050057D02*
X104213333Y-84145295D01*
X104213333Y-84145295D02*
X104213333Y-84288152D01*
X104213333Y-84288152D02*
X104165714Y-84383390D01*
X104165714Y-84383390D02*
X104118095Y-84431009D01*
X104118095Y-84431009D02*
X104022857Y-84478628D01*
X104022857Y-84478628D02*
X103641905Y-84478628D01*
X104546667Y-83954819D02*
X105165714Y-83954819D01*
X105165714Y-83954819D02*
X104832381Y-84335771D01*
X104832381Y-84335771D02*
X104975238Y-84335771D01*
X104975238Y-84335771D02*
X105070476Y-84383390D01*
X105070476Y-84383390D02*
X105118095Y-84431009D01*
X105118095Y-84431009D02*
X105165714Y-84526247D01*
X105165714Y-84526247D02*
X105165714Y-84764342D01*
X105165714Y-84764342D02*
X105118095Y-84859580D01*
X105118095Y-84859580D02*
X105070476Y-84907200D01*
X105070476Y-84907200D02*
X104975238Y-84954819D01*
X104975238Y-84954819D02*
X104689524Y-84954819D01*
X104689524Y-84954819D02*
X104594286Y-84907200D01*
X104594286Y-84907200D02*
X104546667Y-84859580D01*
X108854819Y-68066666D02*
X108378628Y-68399999D01*
X108854819Y-68638094D02*
X107854819Y-68638094D01*
X107854819Y-68638094D02*
X107854819Y-68257142D01*
X107854819Y-68257142D02*
X107902438Y-68161904D01*
X107902438Y-68161904D02*
X107950057Y-68114285D01*
X107950057Y-68114285D02*
X108045295Y-68066666D01*
X108045295Y-68066666D02*
X108188152Y-68066666D01*
X108188152Y-68066666D02*
X108283390Y-68114285D01*
X108283390Y-68114285D02*
X108331009Y-68161904D01*
X108331009Y-68161904D02*
X108378628Y-68257142D01*
X108378628Y-68257142D02*
X108378628Y-68638094D01*
X108854819Y-67114285D02*
X108854819Y-67685713D01*
X108854819Y-67399999D02*
X107854819Y-67399999D01*
X107854819Y-67399999D02*
X107997676Y-67495237D01*
X107997676Y-67495237D02*
X108092914Y-67590475D01*
X108092914Y-67590475D02*
X108140533Y-67685713D01*
X118094670Y-81776203D02*
X118047051Y-81823823D01*
X118047051Y-81823823D02*
X117904194Y-81871442D01*
X117904194Y-81871442D02*
X117808956Y-81871442D01*
X117808956Y-81871442D02*
X117666099Y-81823823D01*
X117666099Y-81823823D02*
X117570861Y-81728584D01*
X117570861Y-81728584D02*
X117523242Y-81633346D01*
X117523242Y-81633346D02*
X117475623Y-81442870D01*
X117475623Y-81442870D02*
X117475623Y-81300013D01*
X117475623Y-81300013D02*
X117523242Y-81109537D01*
X117523242Y-81109537D02*
X117570861Y-81014299D01*
X117570861Y-81014299D02*
X117666099Y-80919061D01*
X117666099Y-80919061D02*
X117808956Y-80871442D01*
X117808956Y-80871442D02*
X117904194Y-80871442D01*
X117904194Y-80871442D02*
X118047051Y-80919061D01*
X118047051Y-80919061D02*
X118094670Y-80966680D01*
X118951813Y-81204775D02*
X118951813Y-81871442D01*
X118713718Y-80823823D02*
X118475623Y-81538108D01*
X118475623Y-81538108D02*
X119094670Y-81538108D01*
X100166666Y-89404819D02*
X100166666Y-90119104D01*
X100166666Y-90119104D02*
X100119047Y-90261961D01*
X100119047Y-90261961D02*
X100023809Y-90357200D01*
X100023809Y-90357200D02*
X99880952Y-90404819D01*
X99880952Y-90404819D02*
X99785714Y-90404819D01*
X100547619Y-89404819D02*
X101214285Y-89404819D01*
X101214285Y-89404819D02*
X100785714Y-90404819D01*
X109638095Y-78854819D02*
X109638095Y-79664342D01*
X109638095Y-79664342D02*
X109685714Y-79759580D01*
X109685714Y-79759580D02*
X109733333Y-79807200D01*
X109733333Y-79807200D02*
X109828571Y-79854819D01*
X109828571Y-79854819D02*
X110019047Y-79854819D01*
X110019047Y-79854819D02*
X110114285Y-79807200D01*
X110114285Y-79807200D02*
X110161904Y-79759580D01*
X110161904Y-79759580D02*
X110209523Y-79664342D01*
X110209523Y-79664342D02*
X110209523Y-78854819D01*
X111209523Y-79854819D02*
X110638095Y-79854819D01*
X110923809Y-79854819D02*
X110923809Y-78854819D01*
X110923809Y-78854819D02*
X110828571Y-78997676D01*
X110828571Y-78997676D02*
X110733333Y-79092914D01*
X110733333Y-79092914D02*
X110638095Y-79140533D01*
X123235076Y-89095961D02*
X123235076Y-89905484D01*
X123235076Y-89905484D02*
X123282695Y-90000722D01*
X123282695Y-90000722D02*
X123330314Y-90048342D01*
X123330314Y-90048342D02*
X123425552Y-90095961D01*
X123425552Y-90095961D02*
X123616028Y-90095961D01*
X123616028Y-90095961D02*
X123711266Y-90048342D01*
X123711266Y-90048342D02*
X123758885Y-90000722D01*
X123758885Y-90000722D02*
X123806504Y-89905484D01*
X123806504Y-89905484D02*
X123806504Y-89095961D01*
X124187457Y-89095961D02*
X124806504Y-89095961D01*
X124806504Y-89095961D02*
X124473171Y-89476913D01*
X124473171Y-89476913D02*
X124616028Y-89476913D01*
X124616028Y-89476913D02*
X124711266Y-89524532D01*
X124711266Y-89524532D02*
X124758885Y-89572151D01*
X124758885Y-89572151D02*
X124806504Y-89667389D01*
X124806504Y-89667389D02*
X124806504Y-89905484D01*
X124806504Y-89905484D02*
X124758885Y-90000722D01*
X124758885Y-90000722D02*
X124711266Y-90048342D01*
X124711266Y-90048342D02*
X124616028Y-90095961D01*
X124616028Y-90095961D02*
X124330314Y-90095961D01*
X124330314Y-90095961D02*
X124235076Y-90048342D01*
X124235076Y-90048342D02*
X124187457Y-90000722D01*
X114427571Y-95171130D02*
X113951380Y-95504463D01*
X114427571Y-95742558D02*
X113427571Y-95742558D01*
X113427571Y-95742558D02*
X113427571Y-95361606D01*
X113427571Y-95361606D02*
X113475190Y-95266368D01*
X113475190Y-95266368D02*
X113522809Y-95218749D01*
X113522809Y-95218749D02*
X113618047Y-95171130D01*
X113618047Y-95171130D02*
X113760904Y-95171130D01*
X113760904Y-95171130D02*
X113856142Y-95218749D01*
X113856142Y-95218749D02*
X113903761Y-95266368D01*
X113903761Y-95266368D02*
X113951380Y-95361606D01*
X113951380Y-95361606D02*
X113951380Y-95742558D01*
X113427571Y-94837796D02*
X113427571Y-94171130D01*
X113427571Y-94171130D02*
X114427571Y-94599701D01*
X90754819Y-70323809D02*
X90278628Y-70657142D01*
X90754819Y-70895237D02*
X89754819Y-70895237D01*
X89754819Y-70895237D02*
X89754819Y-70514285D01*
X89754819Y-70514285D02*
X89802438Y-70419047D01*
X89802438Y-70419047D02*
X89850057Y-70371428D01*
X89850057Y-70371428D02*
X89945295Y-70323809D01*
X89945295Y-70323809D02*
X90088152Y-70323809D01*
X90088152Y-70323809D02*
X90183390Y-70371428D01*
X90183390Y-70371428D02*
X90231009Y-70419047D01*
X90231009Y-70419047D02*
X90278628Y-70514285D01*
X90278628Y-70514285D02*
X90278628Y-70895237D01*
X90707200Y-69942856D02*
X90754819Y-69799999D01*
X90754819Y-69799999D02*
X90754819Y-69561904D01*
X90754819Y-69561904D02*
X90707200Y-69466666D01*
X90707200Y-69466666D02*
X90659580Y-69419047D01*
X90659580Y-69419047D02*
X90564342Y-69371428D01*
X90564342Y-69371428D02*
X90469104Y-69371428D01*
X90469104Y-69371428D02*
X90373866Y-69419047D01*
X90373866Y-69419047D02*
X90326247Y-69466666D01*
X90326247Y-69466666D02*
X90278628Y-69561904D01*
X90278628Y-69561904D02*
X90231009Y-69752380D01*
X90231009Y-69752380D02*
X90183390Y-69847618D01*
X90183390Y-69847618D02*
X90135771Y-69895237D01*
X90135771Y-69895237D02*
X90040533Y-69942856D01*
X90040533Y-69942856D02*
X89945295Y-69942856D01*
X89945295Y-69942856D02*
X89850057Y-69895237D01*
X89850057Y-69895237D02*
X89802438Y-69847618D01*
X89802438Y-69847618D02*
X89754819Y-69752380D01*
X89754819Y-69752380D02*
X89754819Y-69514285D01*
X89754819Y-69514285D02*
X89802438Y-69371428D01*
X89754819Y-69085713D02*
X89754819Y-68514285D01*
X90754819Y-68799999D02*
X89754819Y-68799999D01*
X90754819Y-67657142D02*
X90754819Y-68228570D01*
X90754819Y-67942856D02*
X89754819Y-67942856D01*
X89754819Y-67942856D02*
X89897676Y-68038094D01*
X89897676Y-68038094D02*
X89992914Y-68133332D01*
X89992914Y-68133332D02*
X90040533Y-68228570D01*
X84966666Y-77554819D02*
X84966666Y-78269104D01*
X84966666Y-78269104D02*
X84919047Y-78411961D01*
X84919047Y-78411961D02*
X84823809Y-78507200D01*
X84823809Y-78507200D02*
X84680952Y-78554819D01*
X84680952Y-78554819D02*
X84585714Y-78554819D01*
X85871428Y-77888152D02*
X85871428Y-78554819D01*
X85633333Y-77507200D02*
X85395238Y-78221485D01*
X85395238Y-78221485D02*
X86014285Y-78221485D01*
X111005655Y-100302372D02*
X110958036Y-100349992D01*
X110958036Y-100349992D02*
X110815179Y-100397611D01*
X110815179Y-100397611D02*
X110719941Y-100397611D01*
X110719941Y-100397611D02*
X110577084Y-100349992D01*
X110577084Y-100349992D02*
X110481846Y-100254753D01*
X110481846Y-100254753D02*
X110434227Y-100159515D01*
X110434227Y-100159515D02*
X110386608Y-99969039D01*
X110386608Y-99969039D02*
X110386608Y-99826182D01*
X110386608Y-99826182D02*
X110434227Y-99635706D01*
X110434227Y-99635706D02*
X110481846Y-99540468D01*
X110481846Y-99540468D02*
X110577084Y-99445230D01*
X110577084Y-99445230D02*
X110719941Y-99397611D01*
X110719941Y-99397611D02*
X110815179Y-99397611D01*
X110815179Y-99397611D02*
X110958036Y-99445230D01*
X110958036Y-99445230D02*
X111005655Y-99492849D01*
X111958036Y-100397611D02*
X111386608Y-100397611D01*
X111672322Y-100397611D02*
X111672322Y-99397611D01*
X111672322Y-99397611D02*
X111577084Y-99540468D01*
X111577084Y-99540468D02*
X111481846Y-99635706D01*
X111481846Y-99635706D02*
X111386608Y-99683325D01*
X112910417Y-100397611D02*
X112338989Y-100397611D01*
X112624703Y-100397611D02*
X112624703Y-99397611D01*
X112624703Y-99397611D02*
X112529465Y-99540468D01*
X112529465Y-99540468D02*
X112434227Y-99635706D01*
X112434227Y-99635706D02*
X112338989Y-99683325D01*
X117304819Y-86033333D02*
X118019104Y-86033333D01*
X118019104Y-86033333D02*
X118161961Y-86080952D01*
X118161961Y-86080952D02*
X118257200Y-86176190D01*
X118257200Y-86176190D02*
X118304819Y-86319047D01*
X118304819Y-86319047D02*
X118304819Y-86414285D01*
X117733390Y-85414285D02*
X117685771Y-85509523D01*
X117685771Y-85509523D02*
X117638152Y-85557142D01*
X117638152Y-85557142D02*
X117542914Y-85604761D01*
X117542914Y-85604761D02*
X117495295Y-85604761D01*
X117495295Y-85604761D02*
X117400057Y-85557142D01*
X117400057Y-85557142D02*
X117352438Y-85509523D01*
X117352438Y-85509523D02*
X117304819Y-85414285D01*
X117304819Y-85414285D02*
X117304819Y-85223809D01*
X117304819Y-85223809D02*
X117352438Y-85128571D01*
X117352438Y-85128571D02*
X117400057Y-85080952D01*
X117400057Y-85080952D02*
X117495295Y-85033333D01*
X117495295Y-85033333D02*
X117542914Y-85033333D01*
X117542914Y-85033333D02*
X117638152Y-85080952D01*
X117638152Y-85080952D02*
X117685771Y-85128571D01*
X117685771Y-85128571D02*
X117733390Y-85223809D01*
X117733390Y-85223809D02*
X117733390Y-85414285D01*
X117733390Y-85414285D02*
X117781009Y-85509523D01*
X117781009Y-85509523D02*
X117828628Y-85557142D01*
X117828628Y-85557142D02*
X117923866Y-85604761D01*
X117923866Y-85604761D02*
X118114342Y-85604761D01*
X118114342Y-85604761D02*
X118209580Y-85557142D01*
X118209580Y-85557142D02*
X118257200Y-85509523D01*
X118257200Y-85509523D02*
X118304819Y-85414285D01*
X118304819Y-85414285D02*
X118304819Y-85223809D01*
X118304819Y-85223809D02*
X118257200Y-85128571D01*
X118257200Y-85128571D02*
X118209580Y-85080952D01*
X118209580Y-85080952D02*
X118114342Y-85033333D01*
X118114342Y-85033333D02*
X117923866Y-85033333D01*
X117923866Y-85033333D02*
X117828628Y-85080952D01*
X117828628Y-85080952D02*
X117781009Y-85128571D01*
X117781009Y-85128571D02*
X117733390Y-85223809D01*
D13*
X88949500Y-85092746D02*
X88949500Y-84583298D01*
X89994500Y-85092746D02*
X89994500Y-84583298D01*
X116926884Y-78895421D02*
X116926884Y-79187955D01*
X115906884Y-78895421D02*
X115906884Y-79187955D01*
X111337241Y-91710405D02*
X111846689Y-91710405D01*
X111337241Y-92755405D02*
X111846689Y-92755405D01*
X112122224Y-89122500D02*
X111612776Y-89122500D01*
X112122224Y-88077500D02*
X111612776Y-88077500D01*
D12*
X89500000Y-91000000D02*
X82500000Y-91000000D01*
X90500000Y-92000000D02*
X90500000Y-98000000D01*
X81500000Y-98000000D02*
X81500000Y-92000000D01*
X89500000Y-99000000D02*
X82500000Y-99000000D01*
D13*
X109465000Y-89335000D02*
X109465000Y-87865000D01*
X109465000Y-87865000D02*
X107005000Y-87865000D01*
X107005000Y-89335000D02*
X109465000Y-89335000D01*
X101873168Y-91750000D02*
X101073168Y-91750000D01*
X101873168Y-91750000D02*
X102673168Y-91750000D01*
X101873168Y-94870000D02*
X101073168Y-94870000D01*
X101873168Y-94870000D02*
X102673168Y-94870000D01*
X100573168Y-91800000D02*
X100333168Y-91470000D01*
X100813168Y-91470000D01*
X100573168Y-91800000D01*
G36*
X100573168Y-91800000D02*
G01*
X100333168Y-91470000D01*
X100813168Y-91470000D01*
X100573168Y-91800000D01*
G37*
X81525317Y-84819286D02*
X81525317Y-84526752D01*
X82545317Y-84819286D02*
X82545317Y-84526752D01*
X101630000Y-71010000D02*
X101630000Y-65870000D01*
X101630000Y-71010000D02*
X98970000Y-71010000D01*
X101630000Y-65870000D02*
X98970000Y-65870000D01*
X100300000Y-73610000D02*
X98970000Y-73610000D01*
X98970000Y-73610000D02*
X98970000Y-72280000D01*
X98970000Y-71010000D02*
X98970000Y-65870000D01*
X114100000Y-68850000D02*
X109600000Y-68850000D01*
X109600000Y-68850000D02*
X109600000Y-74250000D01*
X117600000Y-92690000D02*
X121360000Y-92690000D01*
X117600000Y-99510000D02*
X121360000Y-99510000D01*
X121360000Y-92690000D02*
X121360000Y-93950000D01*
X121360000Y-99510000D02*
X121360000Y-98250000D01*
X116320000Y-92790000D02*
X116080000Y-92460000D01*
X116560000Y-92460000D01*
X116320000Y-92790000D01*
G36*
X116320000Y-92790000D02*
G01*
X116080000Y-92460000D01*
X116560000Y-92460000D01*
X116320000Y-92790000D01*
G37*
X108430000Y-60470000D02*
X108430000Y-61800000D01*
X107100000Y-60470000D02*
X108430000Y-60470000D01*
X105830000Y-60470000D02*
X100690000Y-60470000D01*
X105830000Y-60470000D02*
X105830000Y-63130000D01*
X100690000Y-60470000D02*
X100690000Y-63130000D01*
X105830000Y-63130000D02*
X100690000Y-63130000D01*
X78257735Y-79937507D02*
X74157735Y-79937507D01*
X78257735Y-77937507D02*
X78257735Y-79937507D01*
X77807735Y-77437507D02*
X77207735Y-77437507D01*
X77507735Y-77737507D02*
X77807735Y-77437507D01*
X77507735Y-77737507D02*
X77207735Y-77437507D01*
X74157735Y-79937507D02*
X74157735Y-77937507D01*
X74157735Y-77937507D02*
X78257735Y-77937507D01*
X102325392Y-96622500D02*
X101815944Y-96622500D01*
X102325392Y-95577500D02*
X101815944Y-95577500D01*
X105077500Y-65654724D02*
X105077500Y-65145276D01*
X106122500Y-65654724D02*
X106122500Y-65145276D01*
X84472499Y-84395282D02*
X84472499Y-84904730D01*
X83427499Y-84395282D02*
X83427499Y-84904730D01*
X123772548Y-83842189D02*
X124065082Y-83842189D01*
X123772548Y-84862189D02*
X124065082Y-84862189D01*
X90235000Y-79165000D02*
X88765000Y-79165000D01*
X88765000Y-79165000D02*
X88765000Y-81625000D01*
X90235000Y-81625000D02*
X90235000Y-79165000D01*
X103950679Y-78878051D02*
X103950679Y-79170585D01*
X102930679Y-78878051D02*
X102930679Y-79170585D01*
X120598326Y-78892885D02*
X120598326Y-79185419D01*
X119578326Y-78892885D02*
X119578326Y-79185419D01*
X108757776Y-82377500D02*
X109267224Y-82377500D01*
X108757776Y-83422500D02*
X109267224Y-83422500D01*
X105795394Y-78881525D02*
X105795394Y-79174059D01*
X104775394Y-78881525D02*
X104775394Y-79174059D01*
X80607322Y-84455993D02*
X80607322Y-84965441D01*
X79562322Y-84455993D02*
X79562322Y-84965441D01*
X86379050Y-84478138D02*
X86379050Y-84770672D01*
X85359050Y-84478138D02*
X85359050Y-84770672D01*
X107530039Y-93114211D02*
X107530039Y-93406745D01*
X106510039Y-93114211D02*
X106510039Y-93406745D01*
X124809312Y-95386744D02*
X124809312Y-95094210D01*
X125829312Y-95386744D02*
X125829312Y-95094210D01*
D11*
X78950000Y-85725000D02*
X76050000Y-85725000D01*
X78950000Y-84275000D02*
X78950000Y-85725000D01*
X76050000Y-85725000D02*
X76050000Y-84275000D01*
X76050000Y-84275000D02*
X78950000Y-84275000D01*
D14*
X78650000Y-84600000D02*
G75*
G03*
X78450000Y-84600000I-100000J0D01*
G01*
X78450000Y-84600000D02*
G75*
G03*
X78650000Y-84600000I100000J0D01*
G01*
D13*
X99058493Y-93112198D02*
X99058493Y-93404732D01*
X98038493Y-93112198D02*
X98038493Y-93404732D01*
X111145215Y-94858197D02*
X111145215Y-95150731D01*
X110125215Y-94858197D02*
X110125215Y-95150731D01*
X83293458Y-82353363D02*
X82784010Y-82353363D01*
X83293458Y-81308363D02*
X82784010Y-81308363D01*
X96170000Y-77430000D02*
X96170000Y-80030000D01*
X96170000Y-77430000D02*
X98830000Y-77430000D01*
X96170000Y-80030000D02*
X98830000Y-80030000D01*
X97500000Y-74830000D02*
X98830000Y-74830000D01*
X98830000Y-74830000D02*
X98830000Y-76160000D01*
X98830000Y-77430000D02*
X98830000Y-80030000D01*
X118422500Y-67932776D02*
X118422500Y-68442224D01*
X117377500Y-67932776D02*
X117377500Y-68442224D01*
X121772492Y-69122006D02*
G75*
G03*
X119872492Y-69122006I-950000J0D01*
G01*
X119872492Y-69122006D02*
G75*
G03*
X121772492Y-69122006I950000J0D01*
G01*
X121250000Y-88100000D02*
G75*
G03*
X119350000Y-88100000I-950000J0D01*
G01*
X119350000Y-88100000D02*
G75*
G03*
X121250000Y-88100000I950000J0D01*
G01*
X80819725Y-90189306D02*
X80819725Y-92909306D01*
X80819725Y-90329306D02*
X80819725Y-92909306D01*
X79839725Y-92909306D02*
X80819725Y-92909306D01*
X77079725Y-92909306D02*
X76099725Y-92909306D01*
X76099725Y-92909306D02*
X76099725Y-90189306D01*
X80999725Y-90019306D02*
X80669725Y-89779306D01*
X80999725Y-89539306D01*
X80999725Y-90019306D01*
G36*
X80999725Y-90019306D02*
G01*
X80669725Y-89779306D01*
X80999725Y-89539306D01*
X80999725Y-90019306D01*
G37*
X83262570Y-72120303D02*
X83262570Y-69400303D01*
X83262570Y-71980303D02*
X83262570Y-69400303D01*
X84242570Y-69400303D02*
X83262570Y-69400303D01*
X87002570Y-69400303D02*
X87982570Y-69400303D01*
X87982570Y-69400303D02*
X87982570Y-72120303D01*
X83412570Y-72530303D02*
X83082570Y-72770303D01*
X83082570Y-72290303D01*
X83412570Y-72530303D01*
G36*
X83412570Y-72530303D02*
G01*
X83082570Y-72770303D01*
X83082570Y-72290303D01*
X83412570Y-72530303D01*
G37*
X111396651Y-67215120D02*
X111689185Y-67215120D01*
X111396651Y-68235120D02*
X111689185Y-68235120D01*
X92070000Y-77470000D02*
X92070000Y-80070000D01*
X92070000Y-77470000D02*
X94730000Y-77470000D01*
X92070000Y-80070000D02*
X94730000Y-80070000D01*
X93400000Y-74870000D02*
X94730000Y-74870000D01*
X94730000Y-74870000D02*
X94730000Y-76200000D01*
X94730000Y-77470000D02*
X94730000Y-80070000D01*
X79395000Y-71920000D02*
X79395000Y-74520000D01*
X79395000Y-71920000D02*
X82055000Y-71920000D01*
X79395000Y-74520000D02*
X82055000Y-74520000D01*
X80725000Y-69320000D02*
X82055000Y-69320000D01*
X82055000Y-69320000D02*
X82055000Y-70650000D01*
X82055000Y-71920000D02*
X82055000Y-74520000D01*
X128470000Y-80670000D02*
X127140000Y-80670000D01*
X128470000Y-79340000D02*
X128470000Y-80670000D01*
X128470000Y-78070000D02*
X128470000Y-67850000D01*
X128470000Y-78070000D02*
X125870000Y-78070000D01*
X128470000Y-67850000D02*
X123270000Y-67850000D01*
X125870000Y-80670000D02*
X123270000Y-80670000D01*
X125870000Y-78070000D02*
X125870000Y-80670000D01*
X123270000Y-80670000D02*
X123270000Y-67850000D01*
X106550000Y-70019405D02*
G75*
G03*
X104650000Y-70019405I-950000J0D01*
G01*
X104650000Y-70019405D02*
G75*
G03*
X106550000Y-70019405I950000J0D01*
G01*
X98606275Y-80948729D02*
X98606275Y-82418729D01*
X98606275Y-82418729D02*
X101066275Y-82418729D01*
X101066275Y-80948729D02*
X98606275Y-80948729D01*
X78198965Y-81469763D02*
X78491499Y-81469763D01*
X78198965Y-82489763D02*
X78491499Y-82489763D01*
X106195000Y-89565000D02*
X106195000Y-91035000D01*
X106195000Y-91035000D02*
X108655000Y-91035000D01*
X108655000Y-89565000D02*
X106195000Y-89565000D01*
X104223176Y-75997539D02*
X104515710Y-75997539D01*
X104223176Y-77017539D02*
X104515710Y-77017539D01*
X112109724Y-90822500D02*
X111600276Y-90822500D01*
X112109724Y-89777500D02*
X111600276Y-89777500D01*
X105593168Y-93012351D02*
X105593168Y-93521799D01*
X104548168Y-93012351D02*
X104548168Y-93521799D01*
X85383826Y-81076513D02*
X85383826Y-80783979D01*
X86403826Y-81076513D02*
X86403826Y-80783979D01*
X114750699Y-72263260D02*
X114750699Y-71970726D01*
X115770699Y-72263260D02*
X115770699Y-71970726D01*
X75250000Y-86200000D02*
G75*
G03*
X73350000Y-86200000I-950000J0D01*
G01*
X73350000Y-86200000D02*
G75*
G03*
X75250000Y-86200000I950000J0D01*
G01*
X104567224Y-82222500D02*
X104057776Y-82222500D01*
X104567224Y-81177500D02*
X104057776Y-81177500D01*
X108992112Y-70746668D02*
X108992112Y-71256116D01*
X107947112Y-70746668D02*
X107947112Y-71256116D01*
X118767424Y-78900370D02*
X118767424Y-79192904D01*
X117747424Y-78900370D02*
X117747424Y-79192904D01*
X102930000Y-85830000D02*
X102930000Y-83230000D01*
X102930000Y-85830000D02*
X100270000Y-85830000D01*
X102930000Y-83230000D02*
X100270000Y-83230000D01*
X101600000Y-88430000D02*
X100270000Y-88430000D01*
X100270000Y-88430000D02*
X100270000Y-87100000D01*
X100270000Y-85830000D02*
X100270000Y-83230000D01*
X111000000Y-75115000D02*
X108800000Y-75115000D01*
X111000000Y-75115000D02*
X113200000Y-75115000D01*
X111000000Y-81885000D02*
X108800000Y-81885000D01*
X111000000Y-81885000D02*
X113200000Y-81885000D01*
X107140000Y-75575000D02*
X106810000Y-75815000D01*
X106810000Y-75335000D01*
X107140000Y-75575000D01*
G36*
X107140000Y-75575000D02*
G01*
X106810000Y-75815000D01*
X106810000Y-75335000D01*
X107140000Y-75575000D01*
G37*
X123996981Y-85581142D02*
X123346981Y-85581142D01*
X123996981Y-85581142D02*
X124646981Y-85581142D01*
X123996981Y-88701142D02*
X123346981Y-88701142D01*
X123996981Y-88701142D02*
X124646981Y-88701142D01*
X122834481Y-85631142D02*
X122594481Y-85301142D01*
X123074481Y-85301142D01*
X122834481Y-85631142D01*
G36*
X122834481Y-85631142D02*
G01*
X122594481Y-85301142D01*
X123074481Y-85301142D01*
X122834481Y-85631142D01*
G37*
X113065252Y-94749740D02*
X113065252Y-95259188D01*
X112020252Y-94749740D02*
X112020252Y-95259188D01*
X94940000Y-72020000D02*
X92860000Y-72020000D01*
X91180000Y-70750000D02*
X91670000Y-71240000D01*
X91180000Y-70750000D02*
X91180000Y-67850000D01*
X96620000Y-70750000D02*
X96130000Y-71240000D01*
X96620000Y-70750000D02*
X96620000Y-67850000D01*
X91180000Y-67850000D02*
X91670000Y-67360000D01*
X96620000Y-67850000D02*
X96130000Y-67360000D01*
X94940000Y-66580000D02*
X92860000Y-66580000D01*
X81730000Y-80130000D02*
X84330000Y-80130000D01*
X81730000Y-80130000D02*
X81730000Y-77470000D01*
X84330000Y-80130000D02*
X84330000Y-77470000D01*
X79130000Y-78800000D02*
X79130000Y-77470000D01*
X79130000Y-77470000D02*
X80460000Y-77470000D01*
X81730000Y-77470000D02*
X84330000Y-77470000D01*
X111794780Y-99022792D02*
X111502246Y-99022792D01*
X111794780Y-98002792D02*
X111502246Y-98002792D01*
D11*
X87067902Y-90378241D02*
X87067902Y-87878241D01*
D13*
X113810000Y-84370000D02*
X106130000Y-84370000D01*
X113810000Y-84370000D02*
X113810000Y-87030000D01*
X106130000Y-84370000D02*
X106130000Y-87030000D01*
X116410000Y-85700000D02*
X116410000Y-87030000D01*
X116410000Y-87030000D02*
X115080000Y-87030000D01*
X113810000Y-87030000D02*
X106130000Y-87030000D01*
%LPC*%
D15*
X89472000Y-85750522D03*
X89472000Y-83925522D03*
D16*
X116416884Y-78179188D03*
X116416884Y-79904188D03*
D17*
X110679465Y-92232905D03*
X112504465Y-92232905D03*
D18*
X112780000Y-88600000D03*
X110955000Y-88600000D03*
D19*
X88500000Y-95000000D03*
X83500000Y-95000000D03*
D20*
X108680000Y-88600000D03*
X106930000Y-88600000D03*
D21*
X100735668Y-92360000D03*
X100735668Y-93310000D03*
X100735668Y-94260000D03*
X103010668Y-94260000D03*
X103010668Y-92360000D03*
D22*
X82035317Y-85535519D03*
X82035317Y-83810519D03*
D23*
X100300000Y-72280000D03*
D24*
X100300000Y-69740000D03*
X100300000Y-67200000D03*
D25*
X110700000Y-70100000D03*
X110700000Y-73000000D03*
X113000000Y-73000000D03*
X113000000Y-70100000D03*
D26*
X116300000Y-93800000D03*
X116300000Y-96100000D03*
D27*
X122600000Y-96100000D03*
D26*
X116300000Y-98400000D03*
D23*
X107100000Y-61800000D03*
D24*
X104560000Y-61800000D03*
X102020000Y-61800000D03*
D28*
X77507735Y-78937507D03*
X76207735Y-78937507D03*
X74907735Y-78937507D03*
D18*
X102983168Y-96100000D03*
X101158168Y-96100000D03*
D15*
X105600000Y-66312500D03*
X105600000Y-64487500D03*
D29*
X83949999Y-83737506D03*
X83949999Y-85562506D03*
D30*
X123056315Y-84352189D03*
X124781315Y-84352189D03*
D31*
X89500000Y-79950000D03*
X89500000Y-81700000D03*
D16*
X103440679Y-78161818D03*
X103440679Y-79886818D03*
X120088326Y-78176652D03*
X120088326Y-79901652D03*
D17*
X108100000Y-82900000D03*
X109925000Y-82900000D03*
D16*
X105285394Y-78165292D03*
X105285394Y-79890292D03*
D29*
X80084822Y-83798217D03*
X80084822Y-85623217D03*
D16*
X85869050Y-83761905D03*
X85869050Y-85486905D03*
X107020039Y-92397978D03*
X107020039Y-94122978D03*
D22*
X125319312Y-96102977D03*
X125319312Y-94377977D03*
D32*
X78450000Y-83800000D03*
X77500000Y-83800000D03*
X76550000Y-83800000D03*
X76550000Y-86200000D03*
X78450000Y-86200000D03*
D16*
X98548493Y-92395965D03*
X98548493Y-94120965D03*
X110635215Y-94141964D03*
X110635215Y-95866964D03*
D18*
X83951234Y-81830863D03*
X82126234Y-81830863D03*
D23*
X97500000Y-76160000D03*
D24*
X97500000Y-78700000D03*
D29*
X117900000Y-67275000D03*
X117900000Y-69100000D03*
D33*
X120822492Y-69122006D03*
X120300000Y-88100000D03*
D34*
X79959725Y-89099306D03*
D35*
X78459725Y-89186806D03*
D34*
X76959725Y-89099306D03*
D36*
X84122570Y-73210303D03*
D37*
X85622570Y-73122803D03*
D36*
X87122570Y-73210303D03*
D30*
X110680418Y-67725120D03*
X112405418Y-67725120D03*
D23*
X93400000Y-76200000D03*
D24*
X93400000Y-78740000D03*
D23*
X80725000Y-70650000D03*
D24*
X80725000Y-73190000D03*
D23*
X127140000Y-79340000D03*
D24*
X124600000Y-79340000D03*
X127140000Y-76800000D03*
X124600000Y-76800000D03*
X127140000Y-74260000D03*
X124600000Y-74260000D03*
X127140000Y-71720000D03*
X124600000Y-71720000D03*
X127140000Y-69180000D03*
X124600000Y-69180000D03*
D33*
X105600000Y-70019405D03*
D38*
X99391275Y-81683729D03*
X101141275Y-81683729D03*
D30*
X77482732Y-81979763D03*
X79207732Y-81979763D03*
D38*
X106980000Y-90300000D03*
X108730000Y-90300000D03*
D30*
X103506943Y-76507539D03*
X105231943Y-76507539D03*
D18*
X112767500Y-90300000D03*
X110942500Y-90300000D03*
D29*
X105070668Y-92354575D03*
X105070668Y-94179575D03*
D22*
X85893826Y-81792746D03*
X85893826Y-80067746D03*
X115260699Y-72979493D03*
X115260699Y-71254493D03*
D33*
X74300000Y-86200000D03*
D18*
X105225000Y-81700000D03*
X103400000Y-81700000D03*
D29*
X108469612Y-70088892D03*
X108469612Y-71913892D03*
D16*
X118257424Y-78184137D03*
X118257424Y-79909137D03*
D23*
X101600000Y-87100000D03*
D24*
X101600000Y-84560000D03*
D39*
X108137500Y-75575000D03*
X108137500Y-76225000D03*
X108137500Y-76875000D03*
X108137500Y-77525000D03*
X108137500Y-78175000D03*
X108137500Y-78825000D03*
X108137500Y-79475000D03*
X108137500Y-80125000D03*
X108137500Y-80775000D03*
X108137500Y-81425000D03*
X113862500Y-81425000D03*
X113862500Y-80775000D03*
X113862500Y-80125000D03*
X113862500Y-79475000D03*
X113862500Y-78825000D03*
X113862500Y-78175000D03*
X113862500Y-77525000D03*
X113862500Y-76875000D03*
X113862500Y-76225000D03*
X113862500Y-75575000D03*
D40*
X123059481Y-86191142D03*
X123059481Y-88091142D03*
X124934481Y-87141142D03*
D29*
X112542752Y-94091964D03*
X112542752Y-95916964D03*
D41*
X92050000Y-72400000D03*
X92050000Y-66200000D03*
X95750000Y-72400000D03*
X95750000Y-66200000D03*
D23*
X80460000Y-78800000D03*
D24*
X83000000Y-78800000D03*
D42*
X112511013Y-98512792D03*
X110786013Y-98512792D03*
D43*
X86017902Y-89128241D03*
X82617902Y-89128241D03*
D23*
X115080000Y-85700000D03*
D24*
X112540000Y-85700000D03*
X110000000Y-85700000D03*
X107460000Y-85700000D03*
%LPD*%
M02*
