G04 #@! TF.GenerationSoftware,KiCad,Pcbnew,7.0.11-7.0.11~ubuntu22.04.1*
G04 #@! TF.CreationDate,2024-04-10T13:53:24+02:00*
G04 #@! TF.ProjectId,pcb_rduhr_lderyck,7063625f-7264-4756-9872-5f6c64657279,rev?*
G04 #@! TF.SameCoordinates,Original*
G04 #@! TF.FileFunction,Copper,L1,Top*
G04 #@! TF.FilePolarity,Positive*
%FSLAX46Y46*%
G04 Gerber Fmt 4.6, Leading zero omitted, Abs format (unit mm)*
G04 Created by KiCad (PCBNEW 7.0.11-7.0.11~ubuntu22.04.1) date 2024-04-10 13:53:24*
%MOMM*%
%LPD*%
G01*
G04 APERTURE LIST*
G04 Aperture macros list*
%AMRoundRect*
0 Rectangle with rounded corners*
0 $1 Rounding radius*
0 $2 $3 $4 $5 $6 $7 $8 $9 X,Y pos of 4 corners*
0 Add a 4 corners polygon primitive as box body*
4,1,4,$2,$3,$4,$5,$6,$7,$8,$9,$2,$3,0*
0 Add four circle primitives for the rounded corners*
1,1,$1+$1,$2,$3*
1,1,$1+$1,$4,$5*
1,1,$1+$1,$6,$7*
1,1,$1+$1,$8,$9*
0 Add four rect primitives between the rounded corners*
20,1,$1+$1,$2,$3,$4,$5,0*
20,1,$1+$1,$4,$5,$6,$7,0*
20,1,$1+$1,$6,$7,$8,$9,0*
20,1,$1+$1,$8,$9,$2,$3,0*%
%AMFreePoly0*
4,1,9,5.362500,-0.866500,1.237500,-0.866500,1.237500,-0.450000,-1.237500,-0.450000,-1.237500,0.450000,1.237500,0.450000,1.237500,0.866500,5.362500,0.866500,5.362500,-0.866500,5.362500,-0.866500,$1*%
G04 Aperture macros list end*
G04 #@! TA.AperFunction,SMDPad,CuDef*
%ADD10RoundRect,0.237500X0.237500X-0.250000X0.237500X0.250000X-0.237500X0.250000X-0.237500X-0.250000X0*%
G04 #@! TD*
G04 #@! TA.AperFunction,SMDPad,CuDef*
%ADD11RoundRect,0.237500X-0.237500X0.300000X-0.237500X-0.300000X0.237500X-0.300000X0.237500X0.300000X0*%
G04 #@! TD*
G04 #@! TA.AperFunction,SMDPad,CuDef*
%ADD12RoundRect,0.237500X-0.250000X-0.237500X0.250000X-0.237500X0.250000X0.237500X-0.250000X0.237500X0*%
G04 #@! TD*
G04 #@! TA.AperFunction,SMDPad,CuDef*
%ADD13RoundRect,0.237500X0.250000X0.237500X-0.250000X0.237500X-0.250000X-0.237500X0.250000X-0.237500X0*%
G04 #@! TD*
G04 #@! TA.AperFunction,SMDPad,CuDef*
%ADD14R,3.000000X7.500000*%
G04 #@! TD*
G04 #@! TA.AperFunction,SMDPad,CuDef*
%ADD15RoundRect,0.237500X0.287500X0.237500X-0.287500X0.237500X-0.287500X-0.237500X0.287500X-0.237500X0*%
G04 #@! TD*
G04 #@! TA.AperFunction,SMDPad,CuDef*
%ADD16RoundRect,0.150000X-0.512500X-0.150000X0.512500X-0.150000X0.512500X0.150000X-0.512500X0.150000X0*%
G04 #@! TD*
G04 #@! TA.AperFunction,SMDPad,CuDef*
%ADD17RoundRect,0.237500X0.237500X-0.300000X0.237500X0.300000X-0.237500X0.300000X-0.237500X-0.300000X0*%
G04 #@! TD*
G04 #@! TA.AperFunction,ComponentPad*
%ADD18R,1.700000X1.700000*%
G04 #@! TD*
G04 #@! TA.AperFunction,ComponentPad*
%ADD19O,1.700000X1.700000*%
G04 #@! TD*
G04 #@! TA.AperFunction,SMDPad,CuDef*
%ADD20R,1.800000X2.100000*%
G04 #@! TD*
G04 #@! TA.AperFunction,SMDPad,CuDef*
%ADD21RoundRect,0.375000X-0.625000X-0.375000X0.625000X-0.375000X0.625000X0.375000X-0.625000X0.375000X0*%
G04 #@! TD*
G04 #@! TA.AperFunction,SMDPad,CuDef*
%ADD22RoundRect,0.500000X-0.500000X-1.400000X0.500000X-1.400000X0.500000X1.400000X-0.500000X1.400000X0*%
G04 #@! TD*
G04 #@! TA.AperFunction,SMDPad,CuDef*
%ADD23R,1.000000X1.500000*%
G04 #@! TD*
G04 #@! TA.AperFunction,SMDPad,CuDef*
%ADD24RoundRect,0.237500X-0.237500X0.250000X-0.237500X-0.250000X0.237500X-0.250000X0.237500X0.250000X0*%
G04 #@! TD*
G04 #@! TA.AperFunction,SMDPad,CuDef*
%ADD25RoundRect,0.237500X-0.300000X-0.237500X0.300000X-0.237500X0.300000X0.237500X-0.300000X0.237500X0*%
G04 #@! TD*
G04 #@! TA.AperFunction,SMDPad,CuDef*
%ADD26RoundRect,0.237500X-0.237500X0.287500X-0.237500X-0.287500X0.237500X-0.287500X0.237500X0.287500X0*%
G04 #@! TD*
G04 #@! TA.AperFunction,SMDPad,CuDef*
%ADD27R,0.550000X0.800000*%
G04 #@! TD*
G04 #@! TA.AperFunction,SMDPad,CuDef*
%ADD28C,1.500000*%
G04 #@! TD*
G04 #@! TA.AperFunction,SMDPad,CuDef*
%ADD29RoundRect,0.225000X-0.225000X0.925000X-0.225000X-0.925000X0.225000X-0.925000X0.225000X0.925000X0*%
G04 #@! TD*
G04 #@! TA.AperFunction,SMDPad,CuDef*
%ADD30FreePoly0,270.000000*%
G04 #@! TD*
G04 #@! TA.AperFunction,SMDPad,CuDef*
%ADD31RoundRect,0.225000X0.225000X-0.925000X0.225000X0.925000X-0.225000X0.925000X-0.225000X-0.925000X0*%
G04 #@! TD*
G04 #@! TA.AperFunction,SMDPad,CuDef*
%ADD32FreePoly0,90.000000*%
G04 #@! TD*
G04 #@! TA.AperFunction,SMDPad,CuDef*
%ADD33RoundRect,0.237500X-0.287500X-0.237500X0.287500X-0.237500X0.287500X0.237500X-0.287500X0.237500X0*%
G04 #@! TD*
G04 #@! TA.AperFunction,SMDPad,CuDef*
%ADD34RoundRect,0.100000X-0.637500X-0.100000X0.637500X-0.100000X0.637500X0.100000X-0.637500X0.100000X0*%
G04 #@! TD*
G04 #@! TA.AperFunction,SMDPad,CuDef*
%ADD35RoundRect,0.150000X-0.587500X-0.150000X0.587500X-0.150000X0.587500X0.150000X-0.587500X0.150000X0*%
G04 #@! TD*
G04 #@! TA.AperFunction,SMDPad,CuDef*
%ADD36R,1.100000X1.800000*%
G04 #@! TD*
G04 #@! TA.AperFunction,SMDPad,CuDef*
%ADD37RoundRect,0.237500X0.300000X0.237500X-0.300000X0.237500X-0.300000X-0.237500X0.300000X-0.237500X0*%
G04 #@! TD*
G04 #@! TA.AperFunction,SMDPad,CuDef*
%ADD38R,1.520000X1.680000*%
G04 #@! TD*
G04 #@! TA.AperFunction,ViaPad*
%ADD39C,0.600000*%
G04 #@! TD*
G04 #@! TA.AperFunction,Conductor*
%ADD40C,0.400000*%
G04 #@! TD*
G04 #@! TA.AperFunction,Conductor*
%ADD41C,0.200000*%
G04 #@! TD*
G04 #@! TA.AperFunction,Conductor*
%ADD42C,0.800000*%
G04 #@! TD*
G04 #@! TA.AperFunction,Conductor*
%ADD43C,0.600000*%
G04 #@! TD*
G04 #@! TA.AperFunction,Conductor*
%ADD44C,0.500000*%
G04 #@! TD*
G04 APERTURE END LIST*
G04 #@! TA.AperFunction,EtchedComponent*
G36*
X77107735Y-79237507D02*
G01*
X76607735Y-79237507D01*
X76607735Y-78637507D01*
X77107735Y-78637507D01*
X77107735Y-79237507D01*
G37*
G04 #@! TD.AperFunction*
D10*
X89472000Y-85750522D03*
X89472000Y-83925522D03*
D11*
X116416884Y-78179188D03*
X116416884Y-79904188D03*
D12*
X110679465Y-92232905D03*
X112504465Y-92232905D03*
D13*
X112780000Y-88600000D03*
X110955000Y-88600000D03*
D14*
X88500000Y-95000000D03*
X83500000Y-95000000D03*
D15*
X108680000Y-88600000D03*
X106930000Y-88600000D03*
D16*
X100735668Y-92360000D03*
X100735668Y-93310000D03*
X100735668Y-94260000D03*
X103010668Y-94260000D03*
X103010668Y-92360000D03*
D17*
X82035317Y-85535519D03*
X82035317Y-83810519D03*
D18*
X100300000Y-72280000D03*
D19*
X100300000Y-69740000D03*
X100300000Y-67200000D03*
D20*
X110700000Y-70100000D03*
X110700000Y-73000000D03*
X113000000Y-73000000D03*
X113000000Y-70100000D03*
D21*
X116300000Y-93800000D03*
X116300000Y-96100000D03*
D22*
X122600000Y-96100000D03*
D21*
X116300000Y-98400000D03*
D18*
X107100000Y-61800000D03*
D19*
X104560000Y-61800000D03*
X102020000Y-61800000D03*
D23*
X77507735Y-78937507D03*
X76207735Y-78937507D03*
X74907735Y-78937507D03*
D13*
X102983168Y-96100000D03*
X101158168Y-96100000D03*
D10*
X105600000Y-66312500D03*
X105600000Y-64487500D03*
D24*
X83949999Y-83737506D03*
X83949999Y-85562506D03*
D25*
X123056315Y-84352189D03*
X124781315Y-84352189D03*
D26*
X89500000Y-79950000D03*
X89500000Y-81700000D03*
D11*
X103440679Y-78161818D03*
X103440679Y-79886818D03*
X120088326Y-78176652D03*
X120088326Y-79901652D03*
D12*
X108100000Y-82900000D03*
X109925000Y-82900000D03*
D11*
X105285394Y-78165292D03*
X105285394Y-79890292D03*
D24*
X80084822Y-83798217D03*
X80084822Y-85623217D03*
D11*
X85869050Y-83761905D03*
X85869050Y-85486905D03*
X107020039Y-92397978D03*
X107020039Y-94122978D03*
D17*
X125319312Y-96102977D03*
X125319312Y-94377977D03*
D27*
X78450000Y-83800000D03*
X77500000Y-83800000D03*
X76550000Y-83800000D03*
X76550000Y-86200000D03*
X78450000Y-86200000D03*
D11*
X98548493Y-92395965D03*
X98548493Y-94120965D03*
X110635215Y-94141964D03*
X110635215Y-95866964D03*
D13*
X83951234Y-81830863D03*
X82126234Y-81830863D03*
D18*
X97500000Y-76160000D03*
D19*
X97500000Y-78700000D03*
D24*
X117900000Y-67275000D03*
X117900000Y-69100000D03*
D28*
X120822492Y-69122006D03*
X120300000Y-88100000D03*
D29*
X79959725Y-89099306D03*
D30*
X78459725Y-89186806D03*
D29*
X76959725Y-89099306D03*
D31*
X84122570Y-73210303D03*
D32*
X85622570Y-73122803D03*
D31*
X87122570Y-73210303D03*
D25*
X110680418Y-67725120D03*
X112405418Y-67725120D03*
D18*
X93400000Y-76200000D03*
D19*
X93400000Y-78740000D03*
D18*
X80725000Y-70650000D03*
D19*
X80725000Y-73190000D03*
D18*
X127140000Y-79340000D03*
D19*
X124600000Y-79340000D03*
X127140000Y-76800000D03*
X124600000Y-76800000D03*
X127140000Y-74260000D03*
X124600000Y-74260000D03*
X127140000Y-71720000D03*
X124600000Y-71720000D03*
X127140000Y-69180000D03*
X124600000Y-69180000D03*
D28*
X105600000Y-70019405D03*
D33*
X99391275Y-81683729D03*
X101141275Y-81683729D03*
D25*
X77482732Y-81979763D03*
X79207732Y-81979763D03*
D33*
X106980000Y-90300000D03*
X108730000Y-90300000D03*
D25*
X103506943Y-76507539D03*
X105231943Y-76507539D03*
D13*
X112767500Y-90300000D03*
X110942500Y-90300000D03*
D24*
X105070668Y-92354575D03*
X105070668Y-94179575D03*
D17*
X85893826Y-81792746D03*
X85893826Y-80067746D03*
X115260699Y-72979493D03*
X115260699Y-71254493D03*
D28*
X74300000Y-86200000D03*
D13*
X105225000Y-81700000D03*
X103400000Y-81700000D03*
D24*
X108469612Y-70088892D03*
X108469612Y-71913892D03*
D11*
X118257424Y-78184137D03*
X118257424Y-79909137D03*
D18*
X101600000Y-87100000D03*
D19*
X101600000Y-84560000D03*
D34*
X108137500Y-75575000D03*
X108137500Y-76225000D03*
X108137500Y-76875000D03*
X108137500Y-77525000D03*
X108137500Y-78175000D03*
X108137500Y-78825000D03*
X108137500Y-79475000D03*
X108137500Y-80125000D03*
X108137500Y-80775000D03*
X108137500Y-81425000D03*
X113862500Y-81425000D03*
X113862500Y-80775000D03*
X113862500Y-80125000D03*
X113862500Y-79475000D03*
X113862500Y-78825000D03*
X113862500Y-78175000D03*
X113862500Y-77525000D03*
X113862500Y-76875000D03*
X113862500Y-76225000D03*
X113862500Y-75575000D03*
D35*
X123059481Y-86191142D03*
X123059481Y-88091142D03*
X124934481Y-87141142D03*
D24*
X112542752Y-94091964D03*
X112542752Y-95916964D03*
D36*
X92050000Y-72400000D03*
X92050000Y-66200000D03*
X95750000Y-72400000D03*
X95750000Y-66200000D03*
D18*
X80460000Y-78800000D03*
D19*
X83000000Y-78800000D03*
D37*
X112511013Y-98512792D03*
X110786013Y-98512792D03*
D38*
X86017902Y-89128241D03*
X82617902Y-89128241D03*
D18*
X115080000Y-85700000D03*
D19*
X112540000Y-85700000D03*
X110000000Y-85700000D03*
X107460000Y-85700000D03*
D39*
X92500000Y-85100000D03*
X88000000Y-85100000D03*
X102000000Y-79100000D03*
X95700000Y-85100000D03*
X115000000Y-69600000D03*
X72100000Y-87500000D03*
X81200000Y-87100000D03*
X88200000Y-87400000D03*
X107300000Y-68600000D03*
X112400000Y-66400000D03*
X99800000Y-78100000D03*
X88100000Y-82900000D03*
X85100000Y-99800000D03*
X102100000Y-66200000D03*
X102100000Y-71700000D03*
X102900000Y-74800000D03*
X117000000Y-61600000D03*
X131700000Y-71900000D03*
X133800000Y-60800000D03*
X118300000Y-83000000D03*
X75400000Y-59400000D03*
X89100000Y-69100000D03*
X95400000Y-87600000D03*
X110700000Y-95900000D03*
X112500000Y-83300000D03*
X99700000Y-93300000D03*
X91600000Y-89800000D03*
X129800000Y-86300000D03*
X87100000Y-78400000D03*
X72200000Y-78800000D03*
X98700000Y-96100000D03*
X96500000Y-61600000D03*
X97800000Y-69300000D03*
X79600000Y-96900000D03*
X91900000Y-98700000D03*
X121300000Y-81200000D03*
X75500000Y-83000000D03*
X107500000Y-74500000D03*
X95400000Y-76500000D03*
X73900000Y-72400000D03*
X104700000Y-88200000D03*
X126500000Y-99200000D03*
X111900000Y-79400000D03*
X100900000Y-80200000D03*
X84200000Y-75600000D03*
X89500000Y-72700000D03*
X110600000Y-92300000D03*
X73700000Y-95300000D03*
X116100000Y-74400000D03*
X110800000Y-74800000D03*
X112400000Y-77500000D03*
X117900000Y-73800000D03*
X112540000Y-87060000D03*
X108300000Y-92400000D03*
X102600000Y-64200000D03*
X103500000Y-66300000D03*
X107019265Y-82919265D03*
X94700000Y-82600000D03*
X100050000Y-79250000D03*
X98200000Y-81100000D03*
X112000000Y-80800000D03*
X102000000Y-90600000D03*
D40*
X88650522Y-85750522D02*
X89472000Y-85750522D01*
X85893826Y-81792746D02*
X83989351Y-81792746D01*
X120080841Y-78184137D02*
X120088326Y-78176652D01*
X127140000Y-79340000D02*
X127140000Y-81860000D01*
X129900000Y-68300000D02*
X129900000Y-78400000D01*
X113862500Y-78175000D02*
X116412696Y-78175000D01*
X120088326Y-78176652D02*
X120876652Y-78176652D01*
X115075000Y-67275000D02*
X109600000Y-61800000D01*
X123056315Y-83143685D02*
X123056315Y-84352189D01*
X120876652Y-78176652D02*
X122500000Y-79800000D01*
X83989351Y-81792746D02*
X83951234Y-81830863D01*
X126500000Y-82500000D02*
X123700000Y-82500000D01*
X118257424Y-78184137D02*
X120080841Y-78184137D01*
X105295102Y-78175000D02*
X105285394Y-78165292D01*
X128960000Y-79340000D02*
X127140000Y-79340000D01*
X117900000Y-67275000D02*
X115100000Y-67275000D01*
X108137500Y-78175000D02*
X105295102Y-78175000D01*
X103444153Y-78165292D02*
X103440679Y-78161818D01*
X128900000Y-67300000D02*
X129900000Y-68300000D01*
X113837500Y-78200000D02*
X108162500Y-78200000D01*
X88000000Y-85100000D02*
X88650522Y-85750522D01*
X85869050Y-83761905D02*
X86661905Y-83761905D01*
X117925000Y-67300000D02*
X128900000Y-67300000D01*
X122500000Y-79800000D02*
X122500000Y-81300000D01*
X116412696Y-78175000D02*
X116416884Y-78179188D01*
X102000000Y-78600000D02*
X102438182Y-78161818D01*
X109600000Y-61800000D02*
X107100000Y-61800000D01*
X102000000Y-79100000D02*
X102000000Y-78600000D01*
X123056315Y-84352189D02*
X123056315Y-86187976D01*
X123056315Y-86187976D02*
X123059481Y-86191142D01*
X108162500Y-78200000D02*
X108137500Y-78175000D01*
X115100000Y-67275000D02*
X115075000Y-67275000D01*
X95700000Y-85100000D02*
X92500000Y-85100000D01*
X105285394Y-78165292D02*
X103444153Y-78165292D01*
X123700000Y-82500000D02*
X123056315Y-83143685D01*
X102438182Y-78161818D02*
X103440679Y-78161818D01*
X85844651Y-83737506D02*
X85869050Y-83761905D01*
X86661905Y-83761905D02*
X88650522Y-85750522D01*
X83949999Y-83737506D02*
X85844651Y-83737506D01*
X113862500Y-78175000D02*
X113837500Y-78200000D01*
X117900000Y-67275000D02*
X117925000Y-67300000D01*
X83949999Y-81832098D02*
X83951234Y-81830863D01*
X118252475Y-78179188D02*
X118257424Y-78184137D01*
X122500000Y-81300000D02*
X123700000Y-82500000D01*
X129900000Y-78400000D02*
X128960000Y-79340000D01*
X116416884Y-78179188D02*
X118252475Y-78179188D01*
X83949999Y-83737506D02*
X83949999Y-81832098D01*
X127140000Y-81860000D02*
X126500000Y-82500000D01*
D41*
X112475000Y-78825000D02*
X113862500Y-78825000D01*
X111900000Y-79400000D02*
X112475000Y-78825000D01*
X110680418Y-70080418D02*
X110700000Y-70100000D01*
X110680418Y-67725120D02*
X110680418Y-70080418D01*
X110688892Y-70088892D02*
X110700000Y-70100000D01*
X108469612Y-70088892D02*
X110688892Y-70088892D01*
X113000000Y-73000000D02*
X115240192Y-73000000D01*
X113000000Y-74200000D02*
X110325000Y-76875000D01*
X115240192Y-73000000D02*
X115260699Y-72979493D01*
X110325000Y-76875000D02*
X108137500Y-76875000D01*
X113000000Y-73000000D02*
X113000000Y-74200000D01*
X105231943Y-76507539D02*
X105231943Y-74931943D01*
X95750000Y-66200000D02*
X95750000Y-72400000D01*
X103200000Y-65000000D02*
X96950000Y-65000000D01*
X112400000Y-77500000D02*
X108162500Y-77500000D01*
X120609815Y-69100000D02*
X120622492Y-69112677D01*
X104200000Y-73900000D02*
X104200000Y-66000000D01*
X124542006Y-69122006D02*
X124600000Y-69180000D01*
X108162500Y-77500000D02*
X108137500Y-77525000D01*
X104200000Y-66000000D02*
X103200000Y-65000000D01*
X106007539Y-76507539D02*
X107025000Y-77525000D01*
X105231943Y-76507539D02*
X106007539Y-76507539D01*
X107025000Y-77525000D02*
X108137500Y-77525000D01*
X120822492Y-69122006D02*
X124542006Y-69122006D01*
X105231943Y-74931943D02*
X104200000Y-73900000D01*
X96950000Y-65000000D02*
X95750000Y-66200000D01*
X117900000Y-69100000D02*
X117900000Y-73800000D01*
X117900000Y-69100000D02*
X120609815Y-69100000D01*
D42*
X119300000Y-93200000D02*
X119300000Y-95100000D01*
X118300000Y-96100000D02*
X119300000Y-95100000D01*
X113800000Y-90300000D02*
X115100000Y-89000000D01*
X115080000Y-88980000D02*
X115080000Y-85700000D01*
X119300000Y-95100000D02*
X120300000Y-96100000D01*
X123800263Y-96100000D02*
X122600000Y-96100000D01*
X120300000Y-96100000D02*
X122600000Y-96100000D01*
X115100000Y-89000000D02*
X119300000Y-93200000D01*
X116300000Y-96100000D02*
X114500000Y-96100000D01*
X114316964Y-95916964D02*
X112542752Y-95916964D01*
X112767500Y-90300000D02*
X113800000Y-90300000D01*
X114500000Y-96100000D02*
X114316964Y-95916964D01*
X116300000Y-96100000D02*
X118300000Y-96100000D01*
X115100000Y-89000000D02*
X115080000Y-88980000D01*
X122600000Y-96100000D02*
X125316335Y-96100000D01*
D41*
X116187208Y-98512792D02*
X116300000Y-98400000D01*
D40*
X97500000Y-78700000D02*
X97500000Y-87351472D01*
X109600000Y-97000000D02*
X112000000Y-97000000D01*
X108106370Y-91175000D02*
X109000000Y-92068630D01*
X99948528Y-89800000D02*
X105046858Y-89800000D01*
X109000000Y-92068630D02*
X109000000Y-96400000D01*
X97500000Y-87351472D02*
X99948528Y-89800000D01*
D41*
X112511013Y-98512792D02*
X116187208Y-98512792D01*
D40*
X112000000Y-97000000D02*
X112511013Y-97511013D01*
X106421858Y-91175000D02*
X108106370Y-91175000D01*
X112511013Y-97511013D02*
X112511013Y-98512792D01*
X105046858Y-89800000D02*
X106421858Y-91175000D01*
X109000000Y-96400000D02*
X109600000Y-97000000D01*
D42*
X108197978Y-92397978D02*
X108200000Y-92400000D01*
X104982297Y-92354575D02*
X106861723Y-92354575D01*
X104976872Y-92360000D02*
X104982297Y-92354575D01*
X107020039Y-92397978D02*
X108197978Y-92397978D01*
X106861723Y-92354575D02*
X106896995Y-92389847D01*
X112780000Y-88600000D02*
X112780000Y-87980000D01*
X112780000Y-87980000D02*
X112540000Y-87740000D01*
X112540000Y-87060000D02*
X112540000Y-85700000D01*
D43*
X103010668Y-92360000D02*
X104976872Y-92360000D01*
D42*
X112540000Y-87740000D02*
X112540000Y-87060000D01*
D40*
X96700000Y-87400000D02*
X98548493Y-89248493D01*
X98548493Y-89248493D02*
X98548493Y-92395965D01*
X93400000Y-78740000D02*
X96700000Y-82040000D01*
X96700000Y-82040000D02*
X96700000Y-87400000D01*
D41*
X100699703Y-92395965D02*
X100735668Y-92360000D01*
X98548493Y-92395965D02*
X100699703Y-92395965D01*
D42*
X86017902Y-89128241D02*
X85356482Y-89128241D01*
X82062304Y-85562506D02*
X82035317Y-85535519D01*
X83949999Y-87721758D02*
X83949999Y-85562506D01*
X85356482Y-89128241D02*
X83949999Y-87721758D01*
X83949999Y-85562506D02*
X82062304Y-85562506D01*
D41*
X82035317Y-83810519D02*
X80097124Y-83810519D01*
X80097124Y-83810519D02*
X80084822Y-83798217D01*
X80084822Y-83798217D02*
X78451783Y-83798217D01*
X82035317Y-83810519D02*
X82035317Y-81921780D01*
X82035317Y-81921780D02*
X82126234Y-81830863D01*
D44*
X77500000Y-83800000D02*
X77500000Y-81997031D01*
D42*
X90200000Y-77000000D02*
X91100000Y-77900000D01*
D41*
X80322493Y-78937507D02*
X80460000Y-78800000D01*
D42*
X91100000Y-87200000D02*
X88500000Y-89800000D01*
X80900000Y-77000000D02*
X90200000Y-77000000D01*
X91100000Y-77900000D02*
X91100000Y-87200000D01*
X88500000Y-89800000D02*
X88500000Y-95000000D01*
X80460000Y-77440000D02*
X80900000Y-77000000D01*
X80460000Y-78800000D02*
X80460000Y-77440000D01*
X77482732Y-81979763D02*
X77482732Y-78962510D01*
X77507735Y-78937507D02*
X80322493Y-78937507D01*
D41*
X112492752Y-94141964D02*
X112542752Y-94091964D01*
X112504465Y-94053677D02*
X112542752Y-94091964D01*
X114108036Y-94091964D02*
X114400000Y-93800000D01*
X110635215Y-94141964D02*
X112492752Y-94141964D01*
X112542752Y-94091964D02*
X114108036Y-94091964D01*
X112504465Y-92232905D02*
X112504465Y-94053677D01*
X114400000Y-93800000D02*
X116300000Y-93800000D01*
X103400000Y-81700000D02*
X101157546Y-81700000D01*
X101157546Y-81700000D02*
X101141275Y-81683729D01*
X110942500Y-90300000D02*
X108730000Y-90300000D01*
X110955000Y-88600000D02*
X108742500Y-88600000D01*
D42*
X82617902Y-90117902D02*
X82617902Y-89128241D01*
X83500000Y-95000000D02*
X83500000Y-91000000D01*
D41*
X79988660Y-89128241D02*
X79959725Y-89099306D01*
D42*
X82617902Y-89128241D02*
X79988660Y-89128241D01*
X83500000Y-91000000D02*
X82617902Y-90117902D01*
D41*
X89472000Y-81728000D02*
X89500000Y-81700000D01*
X89472000Y-83925522D02*
X89472000Y-81728000D01*
X124600000Y-79340000D02*
X121485000Y-76225000D01*
X121485000Y-76225000D02*
X113862500Y-76225000D01*
X124600000Y-76800000D02*
X123375000Y-75575000D01*
X123375000Y-75575000D02*
X113862500Y-75575000D01*
D42*
X103500000Y-72400000D02*
X100800000Y-75100000D01*
X82500000Y-64300000D02*
X80725000Y-66075000D01*
X102500000Y-64300000D02*
X82500000Y-64300000D01*
X103500000Y-66300000D02*
X103500000Y-72400000D01*
X100800000Y-75100000D02*
X100800000Y-72780000D01*
X80725000Y-66075000D02*
X80725000Y-70650000D01*
X99740000Y-76160000D02*
X100800000Y-75100000D01*
X97500000Y-76160000D02*
X99740000Y-76160000D01*
X100800000Y-72780000D02*
X100300000Y-72280000D01*
X102600000Y-64200000D02*
X102500000Y-64300000D01*
X84122570Y-73210303D02*
X80745303Y-73210303D01*
X94200000Y-74200000D02*
X93400000Y-75000000D01*
X97600000Y-71600000D02*
X97600000Y-73800000D01*
X99460000Y-69740000D02*
X97600000Y-71600000D01*
X97200000Y-74200000D02*
X94200000Y-74200000D01*
X97600000Y-73800000D02*
X97200000Y-74200000D01*
X100300000Y-69740000D02*
X99460000Y-69740000D01*
X93400000Y-75000000D02*
X93400000Y-76200000D01*
D41*
X107100000Y-81990000D02*
X107100000Y-80987500D01*
X101600000Y-87100000D02*
X101990000Y-87100000D01*
X101990000Y-87100000D02*
X107100000Y-81990000D01*
X107100000Y-80987500D02*
X107312500Y-80775000D01*
X107312500Y-80775000D02*
X108137500Y-80775000D01*
X103729611Y-84560000D02*
X101600000Y-84560000D01*
X107075000Y-80125000D02*
X106700000Y-80500000D01*
X106700000Y-80500000D02*
X106700000Y-81589611D01*
X108137500Y-80125000D02*
X107075000Y-80125000D01*
X106700000Y-81589611D02*
X103729611Y-84560000D01*
X111000000Y-84700000D02*
X111000000Y-80700000D01*
X111000000Y-80700000D02*
X109775000Y-79475000D01*
X110000000Y-85700000D02*
X111000000Y-84700000D01*
X109775000Y-79475000D02*
X108137500Y-79475000D01*
X76207735Y-82707735D02*
X76550000Y-83050000D01*
X76207735Y-78937507D02*
X76207735Y-82707735D01*
X76550000Y-83050000D02*
X76550000Y-83800000D01*
X108100000Y-82900000D02*
X107038530Y-82900000D01*
X91800000Y-77551471D02*
X89748529Y-75500000D01*
X108137500Y-82862500D02*
X108100000Y-82900000D01*
X108137500Y-81425000D02*
X108137500Y-82862500D01*
X89748529Y-75500000D02*
X86400000Y-75500000D01*
X91800000Y-79700000D02*
X91800000Y-77551471D01*
X94700000Y-82600000D02*
X91800000Y-79700000D01*
X107038530Y-82900000D02*
X107019265Y-82919265D01*
X86400000Y-75500000D02*
X85622570Y-74722570D01*
X85622570Y-74722570D02*
X85622570Y-73122803D01*
X100050000Y-79250000D02*
X98200000Y-81100000D01*
X74300000Y-86200000D02*
X75199306Y-87099306D01*
X78459725Y-89186806D02*
X78459725Y-86599306D01*
X75199306Y-87099306D02*
X78459725Y-87099306D01*
X108469612Y-73969612D02*
X109300000Y-74800000D01*
X108469612Y-71913892D02*
X108469612Y-73969612D01*
X109300000Y-75900000D02*
X108975000Y-76225000D01*
X108975000Y-76225000D02*
X108137500Y-76225000D01*
X109300000Y-74800000D02*
X109300000Y-75900000D01*
X105600000Y-70019405D02*
X105600000Y-66312500D01*
X108137500Y-75575000D02*
X107400001Y-75575000D01*
X107400001Y-75575000D02*
X105600000Y-73774999D01*
X105600000Y-73774999D02*
X105600000Y-70019405D01*
X104560000Y-63460000D02*
X104560000Y-61800000D01*
X105600000Y-64487500D02*
X104612500Y-63500000D01*
X104612500Y-63500000D02*
X104600000Y-63500000D01*
X104600000Y-63500000D02*
X104560000Y-63460000D01*
X106200000Y-79500000D02*
X106200000Y-81300000D01*
X106200000Y-81300000D02*
X105800000Y-81700000D01*
X106875000Y-78825000D02*
X106200000Y-79500000D01*
X108137500Y-78825000D02*
X106875000Y-78825000D01*
X105800000Y-81700000D02*
X105225000Y-81700000D01*
X104961553Y-94260000D02*
X104969103Y-94252450D01*
X103010668Y-94260000D02*
X103010668Y-96072500D01*
X103010668Y-96072500D02*
X102983168Y-96100000D01*
X103010668Y-94260000D02*
X104961553Y-94260000D01*
X120300000Y-88100000D02*
X120300000Y-82200000D01*
X120300000Y-88100000D02*
X123050623Y-88100000D01*
X123050623Y-88100000D02*
X123059481Y-88091142D01*
X120300000Y-82200000D02*
X119525000Y-81425000D01*
X119525000Y-81425000D02*
X113862500Y-81425000D01*
X102000000Y-90600000D02*
X101900000Y-90700000D01*
X101540000Y-94260000D02*
X100735668Y-94260000D01*
X101900000Y-93900000D02*
X101540000Y-94260000D01*
X101900000Y-90700000D02*
X101900000Y-93900000D01*
X112000000Y-80800000D02*
X113837500Y-80800000D01*
X113837500Y-80800000D02*
X113862500Y-80775000D01*
G04 #@! TA.AperFunction,Conductor*
G36*
X99556143Y-93060000D02*
G01*
X99841353Y-93060000D01*
X99904474Y-93077268D01*
X99962770Y-93111744D01*
X99993875Y-93120781D01*
X100120594Y-93157597D01*
X100120597Y-93157597D01*
X100120599Y-93157598D01*
X100157474Y-93160500D01*
X100861668Y-93160500D01*
X100928707Y-93180185D01*
X100974462Y-93232989D01*
X100985668Y-93284500D01*
X100985668Y-93335500D01*
X100965983Y-93402539D01*
X100913179Y-93448294D01*
X100861668Y-93459500D01*
X100157466Y-93459500D01*
X100120600Y-93462401D01*
X100120594Y-93462402D01*
X99962774Y-93508254D01*
X99962771Y-93508255D01*
X99904474Y-93542732D01*
X99841353Y-93560000D01*
X99560743Y-93560000D01*
X99493704Y-93540315D01*
X99455205Y-93501097D01*
X99368440Y-93360430D01*
X99368437Y-93360426D01*
X99354510Y-93346499D01*
X99321025Y-93285176D01*
X99326009Y-93215484D01*
X99354510Y-93171137D01*
X99368833Y-93156815D01*
X99401774Y-93103409D01*
X99453720Y-93056685D01*
X99522683Y-93045462D01*
X99556143Y-93060000D01*
G37*
G04 #@! TD.AperFunction*
G04 #@! TA.AperFunction,Conductor*
G36*
X87049252Y-85140355D02*
G01*
X87055730Y-85146387D01*
X87208630Y-85299287D01*
X87237990Y-85346013D01*
X87274209Y-85449519D01*
X87274211Y-85449522D01*
X87370184Y-85602262D01*
X87497738Y-85729816D01*
X87539265Y-85755909D01*
X87650474Y-85825787D01*
X87650478Y-85825789D01*
X87753984Y-85862007D01*
X87800710Y-85891367D01*
X88137580Y-86228237D01*
X88142700Y-86233675D01*
X88182593Y-86278705D01*
X88232099Y-86312877D01*
X88238119Y-86317307D01*
X88273036Y-86344663D01*
X88285465Y-86354400D01*
X88292367Y-86357506D01*
X88294704Y-86358558D01*
X88314255Y-86369585D01*
X88319557Y-86373245D01*
X88322593Y-86375341D01*
X88378819Y-86396664D01*
X88385734Y-86399528D01*
X88440590Y-86424217D01*
X88450564Y-86426044D01*
X88472178Y-86432070D01*
X88475299Y-86433253D01*
X88481650Y-86435662D01*
X88538763Y-86442596D01*
X88541336Y-86442909D01*
X88548741Y-86444036D01*
X88615294Y-86456232D01*
X88614678Y-86459590D01*
X88665946Y-86477838D01*
X88680819Y-86490531D01*
X88773650Y-86583362D01*
X88920484Y-86673930D01*
X89084247Y-86728196D01*
X89185323Y-86738522D01*
X89758676Y-86738521D01*
X89758684Y-86738520D01*
X89758687Y-86738520D01*
X89832861Y-86730943D01*
X89859753Y-86728196D01*
X90019007Y-86675423D01*
X90088831Y-86673022D01*
X90148874Y-86708753D01*
X90180067Y-86771273D01*
X90172507Y-86840733D01*
X90145689Y-86880811D01*
X87920263Y-89106236D01*
X87905474Y-89118869D01*
X87894126Y-89127114D01*
X87848751Y-89177508D01*
X87844288Y-89182211D01*
X87829891Y-89196609D01*
X87829875Y-89196627D01*
X87817058Y-89212452D01*
X87812852Y-89217376D01*
X87767469Y-89267781D01*
X87767466Y-89267785D01*
X87760458Y-89279923D01*
X87749444Y-89295948D01*
X87740626Y-89306837D01*
X87740616Y-89306853D01*
X87709819Y-89367294D01*
X87706722Y-89372997D01*
X87672821Y-89431713D01*
X87668487Y-89445053D01*
X87661045Y-89463020D01*
X87654680Y-89475512D01*
X87637126Y-89541018D01*
X87635284Y-89547234D01*
X87614326Y-89611742D01*
X87614325Y-89611745D01*
X87612860Y-89625686D01*
X87609315Y-89644812D01*
X87605686Y-89658352D01*
X87602136Y-89726091D01*
X87601628Y-89732552D01*
X87599955Y-89748484D01*
X87599500Y-89752811D01*
X87599500Y-89773174D01*
X87599330Y-89779663D01*
X87595781Y-89847387D01*
X87597973Y-89861225D01*
X87599500Y-89880626D01*
X87599500Y-90625500D01*
X87579815Y-90692539D01*
X87527011Y-90738294D01*
X87475500Y-90749500D01*
X86952129Y-90749500D01*
X86952123Y-90749501D01*
X86892516Y-90755908D01*
X86757671Y-90806202D01*
X86757664Y-90806206D01*
X86642455Y-90892452D01*
X86642452Y-90892455D01*
X86556206Y-91007664D01*
X86556203Y-91007670D01*
X86551853Y-91019334D01*
X86509981Y-91075267D01*
X86444517Y-91099684D01*
X86435671Y-91100000D01*
X85564329Y-91100000D01*
X85497290Y-91080315D01*
X85451535Y-91027511D01*
X85448147Y-91019334D01*
X85446335Y-91014476D01*
X85443796Y-91007669D01*
X85443794Y-91007666D01*
X85443793Y-91007664D01*
X85357547Y-90892455D01*
X85357544Y-90892452D01*
X85242335Y-90806206D01*
X85242328Y-90806202D01*
X85107482Y-90755908D01*
X85107483Y-90755908D01*
X85047883Y-90749501D01*
X85047881Y-90749500D01*
X85047873Y-90749500D01*
X85047865Y-90749500D01*
X84458944Y-90749500D01*
X84391905Y-90729815D01*
X84349382Y-90680741D01*
X84348273Y-90681307D01*
X84345133Y-90675145D01*
X84338956Y-90663022D01*
X84331511Y-90645050D01*
X84327179Y-90631716D01*
X84319157Y-90617822D01*
X84293265Y-90572975D01*
X84290178Y-90567292D01*
X84259383Y-90506851D01*
X84259382Y-90506849D01*
X84250560Y-90495955D01*
X84239538Y-90479918D01*
X84238173Y-90477553D01*
X84232533Y-90467784D01*
X84232531Y-90467782D01*
X84232531Y-90467781D01*
X84187146Y-90417376D01*
X84182931Y-90412441D01*
X84182601Y-90412034D01*
X84170119Y-90396620D01*
X84155706Y-90382207D01*
X84151254Y-90377515D01*
X84105872Y-90327113D01*
X84105871Y-90327112D01*
X84094525Y-90318869D01*
X84079734Y-90306235D01*
X83911732Y-90138233D01*
X83878247Y-90076910D01*
X83876124Y-90037299D01*
X83878402Y-90016114D01*
X83878401Y-89223020D01*
X83898085Y-89155982D01*
X83950889Y-89110227D01*
X84020048Y-89100283D01*
X84083604Y-89129308D01*
X84090082Y-89135340D01*
X84662717Y-89707975D01*
X84675351Y-89722766D01*
X84681187Y-89730799D01*
X84683595Y-89734113D01*
X84716374Y-89763627D01*
X84753023Y-89823113D01*
X84757402Y-89855776D01*
X84757402Y-90016110D01*
X84757403Y-90016117D01*
X84763810Y-90075724D01*
X84814104Y-90210569D01*
X84814108Y-90210576D01*
X84900354Y-90325785D01*
X84900357Y-90325788D01*
X85015566Y-90412034D01*
X85015573Y-90412038D01*
X85150419Y-90462332D01*
X85150418Y-90462332D01*
X85157346Y-90463076D01*
X85210029Y-90468741D01*
X86825774Y-90468740D01*
X86885385Y-90462332D01*
X87020233Y-90412037D01*
X87135448Y-90325787D01*
X87221698Y-90210572D01*
X87271993Y-90075724D01*
X87278402Y-90016114D01*
X87278401Y-88240369D01*
X87271993Y-88180758D01*
X87251563Y-88125983D01*
X87221699Y-88045912D01*
X87221695Y-88045905D01*
X87135449Y-87930696D01*
X87135446Y-87930693D01*
X87020237Y-87844447D01*
X87020230Y-87844443D01*
X86885384Y-87794149D01*
X86885385Y-87794149D01*
X86825785Y-87787742D01*
X86825783Y-87787741D01*
X86825775Y-87787741D01*
X86825767Y-87787741D01*
X85340843Y-87787741D01*
X85273804Y-87768056D01*
X85253162Y-87751422D01*
X84886818Y-87385078D01*
X84853333Y-87323755D01*
X84850499Y-87297397D01*
X84850499Y-86348199D01*
X84870184Y-86281160D01*
X84922988Y-86235405D01*
X84992146Y-86225461D01*
X85055702Y-86254486D01*
X85062180Y-86260518D01*
X85171011Y-86369349D01*
X85171015Y-86369352D01*
X85317738Y-86459853D01*
X85317749Y-86459858D01*
X85481397Y-86514085D01*
X85582402Y-86524404D01*
X85619050Y-86524404D01*
X85619050Y-85736905D01*
X86119050Y-85736905D01*
X86119050Y-86524404D01*
X86155690Y-86524404D01*
X86155704Y-86524403D01*
X86256702Y-86514085D01*
X86420350Y-86459858D01*
X86420361Y-86459853D01*
X86567084Y-86369352D01*
X86567088Y-86369349D01*
X86688994Y-86247443D01*
X86688997Y-86247439D01*
X86779498Y-86100716D01*
X86779503Y-86100705D01*
X86833730Y-85937057D01*
X86844049Y-85836059D01*
X86844050Y-85836046D01*
X86844050Y-85736905D01*
X86119050Y-85736905D01*
X85619050Y-85736905D01*
X85619050Y-85360905D01*
X85638735Y-85293866D01*
X85691539Y-85248111D01*
X85743050Y-85236905D01*
X86844049Y-85236905D01*
X86844049Y-85234068D01*
X86863734Y-85167029D01*
X86916538Y-85121274D01*
X86985696Y-85111330D01*
X87049252Y-85140355D01*
G37*
G04 #@! TD.AperFunction*
G04 #@! TA.AperFunction,Conductor*
G36*
X109580700Y-80130381D02*
G01*
X109587180Y-80136415D01*
X110363181Y-80912416D01*
X110396666Y-80973739D01*
X110399500Y-81000097D01*
X110399500Y-81805600D01*
X110379815Y-81872639D01*
X110327011Y-81918394D01*
X110262899Y-81928958D01*
X110224159Y-81925000D01*
X110175000Y-81925000D01*
X110175000Y-83874999D01*
X110224140Y-83874999D01*
X110224152Y-83874998D01*
X110262897Y-83871040D01*
X110331590Y-83883809D01*
X110382475Y-83931689D01*
X110399500Y-83994398D01*
X110399500Y-84247305D01*
X110379815Y-84314344D01*
X110327011Y-84360099D01*
X110257853Y-84370043D01*
X110243412Y-84367081D01*
X110235410Y-84364937D01*
X110000001Y-84344341D01*
X109999999Y-84344341D01*
X109764596Y-84364936D01*
X109764586Y-84364938D01*
X109536344Y-84426094D01*
X109536335Y-84426098D01*
X109322171Y-84525964D01*
X109322169Y-84525965D01*
X109128597Y-84661505D01*
X108961508Y-84828594D01*
X108831269Y-85014595D01*
X108776692Y-85058219D01*
X108707193Y-85065412D01*
X108644839Y-85033890D01*
X108628119Y-85014594D01*
X108498113Y-84828926D01*
X108498108Y-84828920D01*
X108331082Y-84661894D01*
X108137578Y-84526399D01*
X107923492Y-84426570D01*
X107923486Y-84426567D01*
X107710000Y-84369364D01*
X107710000Y-85264498D01*
X107602315Y-85215320D01*
X107495763Y-85200000D01*
X107424237Y-85200000D01*
X107317685Y-85215320D01*
X107210000Y-85264498D01*
X107210000Y-84369364D01*
X107209999Y-84369364D01*
X106996513Y-84426567D01*
X106996507Y-84426570D01*
X106782422Y-84526399D01*
X106782420Y-84526400D01*
X106588926Y-84661886D01*
X106588920Y-84661891D01*
X106421891Y-84828920D01*
X106421886Y-84828926D01*
X106286400Y-85022420D01*
X106286399Y-85022422D01*
X106186570Y-85236507D01*
X106186567Y-85236513D01*
X106129364Y-85449999D01*
X106129364Y-85450000D01*
X107026314Y-85450000D01*
X107000507Y-85490156D01*
X106960000Y-85628111D01*
X106960000Y-85771889D01*
X107000507Y-85909844D01*
X107026314Y-85950000D01*
X106129364Y-85950000D01*
X106186567Y-86163486D01*
X106186570Y-86163492D01*
X106286399Y-86377578D01*
X106421894Y-86571082D01*
X106588917Y-86738105D01*
X106782421Y-86873600D01*
X106996507Y-86973429D01*
X106996516Y-86973433D01*
X107210000Y-87030634D01*
X107210000Y-86135501D01*
X107317685Y-86184680D01*
X107424237Y-86200000D01*
X107495763Y-86200000D01*
X107602315Y-86184680D01*
X107710000Y-86135501D01*
X107710000Y-87030633D01*
X107923483Y-86973433D01*
X107923492Y-86973429D01*
X108137578Y-86873600D01*
X108331082Y-86738105D01*
X108498105Y-86571082D01*
X108628119Y-86385405D01*
X108682696Y-86341781D01*
X108752195Y-86334588D01*
X108814549Y-86366110D01*
X108831269Y-86385405D01*
X108961505Y-86571401D01*
X109128599Y-86738495D01*
X109225384Y-86806265D01*
X109322165Y-86874032D01*
X109322167Y-86874033D01*
X109322170Y-86874035D01*
X109536337Y-86973903D01*
X109536343Y-86973904D01*
X109536344Y-86973905D01*
X109591285Y-86988626D01*
X109764592Y-87035063D01*
X109937788Y-87050216D01*
X109999999Y-87055659D01*
X110000000Y-87055659D01*
X110000001Y-87055659D01*
X110043902Y-87051818D01*
X110235408Y-87035063D01*
X110463663Y-86973903D01*
X110677830Y-86874035D01*
X110871401Y-86738495D01*
X111038495Y-86571401D01*
X111168425Y-86385842D01*
X111223002Y-86342217D01*
X111292500Y-86335023D01*
X111354855Y-86366546D01*
X111371575Y-86385842D01*
X111501501Y-86571396D01*
X111501506Y-86571402D01*
X111603181Y-86673077D01*
X111636666Y-86734400D01*
X111639500Y-86760758D01*
X111639500Y-87557296D01*
X111619815Y-87624335D01*
X111567011Y-87670090D01*
X111497853Y-87680034D01*
X111476496Y-87675002D01*
X111417679Y-87655512D01*
X111355253Y-87634826D01*
X111355251Y-87634825D01*
X111254178Y-87624500D01*
X110655830Y-87624500D01*
X110655812Y-87624501D01*
X110554747Y-87634825D01*
X110390984Y-87689092D01*
X110390981Y-87689093D01*
X110244148Y-87779661D01*
X110122159Y-87901650D01*
X110098138Y-87940596D01*
X110046190Y-87987321D01*
X109992599Y-87999500D01*
X109679901Y-87999500D01*
X109612862Y-87979815D01*
X109574362Y-87940596D01*
X109550340Y-87901650D01*
X109428351Y-87779661D01*
X109428350Y-87779660D01*
X109305736Y-87704031D01*
X109281518Y-87689093D01*
X109281513Y-87689091D01*
X109267206Y-87684350D01*
X109117753Y-87634826D01*
X109117751Y-87634825D01*
X109016678Y-87624500D01*
X108343330Y-87624500D01*
X108343312Y-87624501D01*
X108242247Y-87634825D01*
X108078484Y-87689092D01*
X108078481Y-87689093D01*
X107931648Y-87779661D01*
X107892326Y-87818983D01*
X107831003Y-87852468D01*
X107761311Y-87847482D01*
X107716965Y-87818982D01*
X107678038Y-87780055D01*
X107678034Y-87780052D01*
X107531311Y-87689551D01*
X107531300Y-87689546D01*
X107367652Y-87635319D01*
X107266654Y-87625000D01*
X107180000Y-87625000D01*
X107180000Y-89282000D01*
X107193681Y-89295681D01*
X107227166Y-89357004D01*
X107230000Y-89383362D01*
X107230000Y-90350500D01*
X107210315Y-90417539D01*
X107157511Y-90463294D01*
X107106000Y-90474500D01*
X106854000Y-90474500D01*
X106786961Y-90454815D01*
X106741206Y-90402011D01*
X106730000Y-90350500D01*
X106730000Y-89618000D01*
X106716319Y-89604319D01*
X106682834Y-89542996D01*
X106680000Y-89516638D01*
X106680000Y-88850000D01*
X105905001Y-88850000D01*
X105905001Y-88886654D01*
X105915319Y-88987652D01*
X105969546Y-89151300D01*
X105969551Y-89151311D01*
X106060052Y-89298034D01*
X106060055Y-89298038D01*
X106149335Y-89387318D01*
X106182820Y-89448641D01*
X106177836Y-89518333D01*
X106149337Y-89562678D01*
X106110056Y-89601960D01*
X106110053Y-89601964D01*
X106089155Y-89635843D01*
X106037206Y-89682565D01*
X105968243Y-89693785D01*
X105904162Y-89665939D01*
X105895938Y-89658423D01*
X105559798Y-89322283D01*
X105554663Y-89316828D01*
X105514787Y-89271816D01*
X105514782Y-89271812D01*
X105465296Y-89237655D01*
X105459261Y-89233215D01*
X105411918Y-89196124D01*
X105411913Y-89196120D01*
X105402671Y-89191961D01*
X105383124Y-89180936D01*
X105381515Y-89179826D01*
X105374788Y-89175182D01*
X105318552Y-89153854D01*
X105311648Y-89150994D01*
X105256790Y-89126305D01*
X105256788Y-89126304D01*
X105246804Y-89124474D01*
X105225201Y-89118451D01*
X105215732Y-89114860D01*
X105215729Y-89114859D01*
X105156029Y-89107610D01*
X105148628Y-89106483D01*
X105089467Y-89095642D01*
X105089461Y-89095642D01*
X105029425Y-89099274D01*
X105021937Y-89099500D01*
X100290046Y-89099500D01*
X100223007Y-89079815D01*
X100202365Y-89063181D01*
X98236819Y-87097634D01*
X98203334Y-87036311D01*
X98200500Y-87009953D01*
X98200500Y-82298858D01*
X98220185Y-82231819D01*
X98272989Y-82186064D01*
X98342147Y-82176120D01*
X98405703Y-82205145D01*
X98430038Y-82233761D01*
X98521327Y-82381763D01*
X98521330Y-82381767D01*
X98643236Y-82503673D01*
X98643240Y-82503676D01*
X98789963Y-82594177D01*
X98789974Y-82594182D01*
X98953622Y-82648409D01*
X99054626Y-82658728D01*
X99141275Y-82658727D01*
X99141275Y-81557729D01*
X99160960Y-81490690D01*
X99213764Y-81444935D01*
X99265275Y-81433729D01*
X99517275Y-81433729D01*
X99584314Y-81453414D01*
X99630069Y-81506218D01*
X99641275Y-81557729D01*
X99641275Y-82658728D01*
X99727915Y-82658728D01*
X99727929Y-82658727D01*
X99828927Y-82648409D01*
X99992575Y-82594182D01*
X99992586Y-82594177D01*
X100139309Y-82503676D01*
X100139312Y-82503674D01*
X100178239Y-82464747D01*
X100239562Y-82431261D01*
X100309253Y-82436245D01*
X100353602Y-82464746D01*
X100392925Y-82504069D01*
X100539759Y-82594637D01*
X100703522Y-82648903D01*
X100804598Y-82659229D01*
X101477951Y-82659228D01*
X101477959Y-82659227D01*
X101477962Y-82659227D01*
X101556512Y-82651203D01*
X101579028Y-82648903D01*
X101742791Y-82594637D01*
X101889625Y-82504069D01*
X102011615Y-82382079D01*
X102025601Y-82359404D01*
X102077549Y-82312679D01*
X102131140Y-82300500D01*
X102437599Y-82300500D01*
X102504638Y-82320185D01*
X102543138Y-82359404D01*
X102556931Y-82381767D01*
X102567160Y-82398350D01*
X102689150Y-82520340D01*
X102835984Y-82610908D01*
X102999747Y-82665174D01*
X103100823Y-82675500D01*
X103699176Y-82675499D01*
X103699184Y-82675498D01*
X103699187Y-82675498D01*
X103754530Y-82669844D01*
X103800253Y-82665174D01*
X103964016Y-82610908D01*
X104110850Y-82520340D01*
X104224819Y-82406371D01*
X104286142Y-82372886D01*
X104355834Y-82377870D01*
X104400181Y-82406371D01*
X104514150Y-82520340D01*
X104631716Y-82592855D01*
X104678440Y-82644802D01*
X104689663Y-82713764D01*
X104661820Y-82777846D01*
X104654300Y-82786074D01*
X103517195Y-83923181D01*
X103455872Y-83956666D01*
X103429514Y-83959500D01*
X102889091Y-83959500D01*
X102822052Y-83939815D01*
X102776711Y-83887909D01*
X102774037Y-83882175D01*
X102774034Y-83882170D01*
X102774033Y-83882169D01*
X102638495Y-83688599D01*
X102638494Y-83688597D01*
X102471402Y-83521506D01*
X102471395Y-83521501D01*
X102277834Y-83385967D01*
X102277830Y-83385965D01*
X102225382Y-83361508D01*
X102063663Y-83286097D01*
X102063659Y-83286096D01*
X102063655Y-83286094D01*
X101835413Y-83224938D01*
X101835403Y-83224936D01*
X101600001Y-83204341D01*
X101599999Y-83204341D01*
X101364596Y-83224936D01*
X101364586Y-83224938D01*
X101136344Y-83286094D01*
X101136335Y-83286098D01*
X100922171Y-83385964D01*
X100922169Y-83385965D01*
X100728597Y-83521505D01*
X100561505Y-83688597D01*
X100425965Y-83882169D01*
X100425964Y-83882171D01*
X100326098Y-84096335D01*
X100326094Y-84096344D01*
X100264938Y-84324586D01*
X100264936Y-84324596D01*
X100244341Y-84559999D01*
X100244341Y-84560000D01*
X100264936Y-84795403D01*
X100264938Y-84795413D01*
X100326094Y-85023655D01*
X100326096Y-85023659D01*
X100326097Y-85023663D01*
X100420154Y-85225369D01*
X100425965Y-85237830D01*
X100425967Y-85237834D01*
X100561501Y-85431395D01*
X100561506Y-85431402D01*
X100683430Y-85553326D01*
X100716915Y-85614649D01*
X100711931Y-85684341D01*
X100670059Y-85740274D01*
X100639083Y-85757189D01*
X100507669Y-85806203D01*
X100507664Y-85806206D01*
X100392455Y-85892452D01*
X100392452Y-85892455D01*
X100306206Y-86007664D01*
X100306202Y-86007671D01*
X100255908Y-86142517D01*
X100249501Y-86202116D01*
X100249500Y-86202135D01*
X100249500Y-87997870D01*
X100249501Y-87997876D01*
X100255908Y-88057483D01*
X100306202Y-88192328D01*
X100306206Y-88192335D01*
X100392452Y-88307544D01*
X100392455Y-88307547D01*
X100507664Y-88393793D01*
X100507671Y-88393797D01*
X100642517Y-88444091D01*
X100642516Y-88444091D01*
X100649444Y-88444835D01*
X100702127Y-88450500D01*
X102497872Y-88450499D01*
X102557483Y-88444091D01*
X102692331Y-88393796D01*
X102750835Y-88350000D01*
X105905000Y-88350000D01*
X106680000Y-88350000D01*
X106680000Y-87625000D01*
X106679999Y-87624999D01*
X106593360Y-87625000D01*
X106593343Y-87625001D01*
X106492347Y-87635319D01*
X106328699Y-87689546D01*
X106328688Y-87689551D01*
X106181965Y-87780052D01*
X106181961Y-87780055D01*
X106060055Y-87901961D01*
X106060052Y-87901965D01*
X105969551Y-88048688D01*
X105969546Y-88048699D01*
X105915319Y-88212347D01*
X105905000Y-88313345D01*
X105905000Y-88350000D01*
X102750835Y-88350000D01*
X102807546Y-88307546D01*
X102893796Y-88192331D01*
X102944091Y-88057483D01*
X102950500Y-87997873D01*
X102950499Y-87040095D01*
X102970183Y-86973057D01*
X102986813Y-86952420D01*
X106369180Y-83570053D01*
X106430501Y-83536570D01*
X106500193Y-83541554D01*
X106522827Y-83552740D01*
X106582607Y-83590303D01*
X106669740Y-83645053D01*
X106840010Y-83704633D01*
X106840015Y-83704634D01*
X107019261Y-83724830D01*
X107019265Y-83724830D01*
X107019269Y-83724830D01*
X107198516Y-83704634D01*
X107198518Y-83704633D01*
X107198520Y-83704633D01*
X107254558Y-83685023D01*
X107324336Y-83681461D01*
X107383194Y-83714384D01*
X107389150Y-83720340D01*
X107535984Y-83810908D01*
X107699747Y-83865174D01*
X107800823Y-83875500D01*
X108399176Y-83875499D01*
X108399184Y-83875498D01*
X108399187Y-83875498D01*
X108454530Y-83869844D01*
X108500253Y-83865174D01*
X108664016Y-83810908D01*
X108810850Y-83720340D01*
X108925175Y-83606014D01*
X108986494Y-83572532D01*
X109056186Y-83577516D01*
X109100534Y-83606017D01*
X109214461Y-83719944D01*
X109214465Y-83719947D01*
X109361188Y-83810448D01*
X109361199Y-83810453D01*
X109524847Y-83864680D01*
X109625851Y-83874999D01*
X109674999Y-83874998D01*
X109675000Y-83874998D01*
X109675000Y-81925000D01*
X109674999Y-81924999D01*
X109625861Y-81925000D01*
X109625843Y-81925001D01*
X109524846Y-81935319D01*
X109469378Y-81953699D01*
X109399549Y-81956100D01*
X109339508Y-81920368D01*
X109308316Y-81857847D01*
X109315813Y-81788543D01*
X109360044Y-81681762D01*
X109375500Y-81564361D01*
X109375499Y-81285640D01*
X109375094Y-81282566D01*
X109372277Y-81261170D01*
X109360044Y-81168238D01*
X109351434Y-81147454D01*
X109343965Y-81077986D01*
X109351435Y-81052545D01*
X109354079Y-81046162D01*
X109360044Y-81031762D01*
X109375500Y-80914361D01*
X109375499Y-80635640D01*
X109375256Y-80633797D01*
X109364912Y-80555220D01*
X109360044Y-80518238D01*
X109359943Y-80517995D01*
X109351435Y-80497455D01*
X109343965Y-80427986D01*
X109351435Y-80402545D01*
X109360044Y-80381762D01*
X109375500Y-80264361D01*
X109375499Y-80224096D01*
X109395182Y-80157059D01*
X109447985Y-80111303D01*
X109517143Y-80101358D01*
X109580700Y-80130381D01*
G37*
G04 #@! TD.AperFunction*
G04 #@! TA.AperFunction,Conductor*
G36*
X80277861Y-85392902D02*
G01*
X80323616Y-85445706D01*
X80334822Y-85497217D01*
X80334822Y-86610716D01*
X80371462Y-86610716D01*
X80371476Y-86610715D01*
X80472474Y-86600397D01*
X80636122Y-86546170D01*
X80636133Y-86546165D01*
X80782856Y-86455664D01*
X80782860Y-86455661D01*
X80904765Y-86333756D01*
X80965863Y-86234702D01*
X81017811Y-86187978D01*
X81086774Y-86176755D01*
X81150856Y-86204599D01*
X81176939Y-86234699D01*
X81214977Y-86296369D01*
X81336967Y-86418359D01*
X81483801Y-86508927D01*
X81647564Y-86563193D01*
X81748640Y-86573519D01*
X82321993Y-86573518D01*
X82322001Y-86573517D01*
X82322004Y-86573517D01*
X82377347Y-86567863D01*
X82423070Y-86563193D01*
X82586833Y-86508927D01*
X82621410Y-86487600D01*
X82631354Y-86481467D01*
X82696450Y-86463006D01*
X82925499Y-86463006D01*
X82992538Y-86482691D01*
X83038293Y-86535495D01*
X83049499Y-86587006D01*
X83049499Y-87641131D01*
X83047972Y-87660530D01*
X83044763Y-87680790D01*
X83042424Y-87680419D01*
X83022804Y-87736184D01*
X82967662Y-87779093D01*
X82922166Y-87787741D01*
X81810031Y-87787741D01*
X81810025Y-87787742D01*
X81750418Y-87794149D01*
X81615573Y-87844443D01*
X81615566Y-87844447D01*
X81500357Y-87930693D01*
X81500354Y-87930696D01*
X81414108Y-88045905D01*
X81414104Y-88045912D01*
X81376374Y-88147074D01*
X81334503Y-88203008D01*
X81269039Y-88227425D01*
X81260192Y-88227741D01*
X81032600Y-88227741D01*
X80965561Y-88208056D01*
X80919806Y-88155252D01*
X80909242Y-88116343D01*
X80903229Y-88057483D01*
X80900074Y-88026598D01*
X80846728Y-87865609D01*
X80846724Y-87865603D01*
X80846723Y-87865600D01*
X80757695Y-87721265D01*
X80757692Y-87721261D01*
X80637769Y-87601338D01*
X80637765Y-87601335D01*
X80493430Y-87512307D01*
X80493424Y-87512304D01*
X80493422Y-87512303D01*
X80454785Y-87499500D01*
X80332434Y-87458957D01*
X80233071Y-87448806D01*
X79686387Y-87448806D01*
X79686369Y-87448807D01*
X79587017Y-87458956D01*
X79587014Y-87458957D01*
X79426030Y-87512302D01*
X79426025Y-87512304D01*
X79353769Y-87556873D01*
X79286376Y-87575313D01*
X79219713Y-87554390D01*
X79207469Y-87545047D01*
X79183098Y-87523929D01*
X79150783Y-87509171D01*
X79132712Y-87500918D01*
X79079909Y-87455162D01*
X79060225Y-87388124D01*
X79060225Y-87146793D01*
X79061286Y-87130607D01*
X79065407Y-87099306D01*
X79065407Y-87099304D01*
X79061286Y-87068003D01*
X79060225Y-87051818D01*
X79060225Y-87028635D01*
X79079910Y-86961596D01*
X79084958Y-86954324D01*
X79119975Y-86907547D01*
X79168796Y-86842331D01*
X79219091Y-86707483D01*
X79225500Y-86647873D01*
X79225499Y-86578353D01*
X79245183Y-86511317D01*
X79297986Y-86465561D01*
X79367144Y-86455617D01*
X79414597Y-86472817D01*
X79533514Y-86546167D01*
X79533521Y-86546170D01*
X79697169Y-86600397D01*
X79798174Y-86610716D01*
X79834822Y-86610716D01*
X79834822Y-85497217D01*
X79854507Y-85430178D01*
X79907311Y-85384423D01*
X79958822Y-85373217D01*
X80210822Y-85373217D01*
X80277861Y-85392902D01*
G37*
G04 #@! TD.AperFunction*
G04 #@! TA.AperFunction,Conductor*
G36*
X89842678Y-77920185D02*
G01*
X89863320Y-77936819D01*
X90163181Y-78236680D01*
X90196666Y-78298003D01*
X90199500Y-78324361D01*
X90199500Y-78866934D01*
X90179815Y-78933973D01*
X90127011Y-78979728D01*
X90057853Y-78989672D01*
X90036497Y-78984640D01*
X89887653Y-78935319D01*
X89786654Y-78925000D01*
X89750000Y-78925000D01*
X89750000Y-80076000D01*
X89730315Y-80143039D01*
X89677511Y-80188794D01*
X89626000Y-80200000D01*
X88525001Y-80200000D01*
X88525001Y-80286654D01*
X88535319Y-80387652D01*
X88589546Y-80551300D01*
X88589551Y-80551311D01*
X88680052Y-80698034D01*
X88680055Y-80698038D01*
X88718982Y-80736965D01*
X88752467Y-80798288D01*
X88747483Y-80867980D01*
X88718983Y-80912326D01*
X88679661Y-80951648D01*
X88589093Y-81098481D01*
X88589091Y-81098486D01*
X88572281Y-81149215D01*
X88534826Y-81262247D01*
X88534826Y-81262248D01*
X88534825Y-81262248D01*
X88524500Y-81363315D01*
X88524500Y-82036669D01*
X88524501Y-82036687D01*
X88534825Y-82137752D01*
X88566640Y-82233761D01*
X88589092Y-82301516D01*
X88679660Y-82448350D01*
X88801650Y-82570340D01*
X88812593Y-82577090D01*
X88859319Y-82629034D01*
X88871500Y-82682630D01*
X88871500Y-82963120D01*
X88851815Y-83030159D01*
X88812598Y-83068658D01*
X88773650Y-83092681D01*
X88651661Y-83214670D01*
X88561093Y-83361503D01*
X88561091Y-83361508D01*
X88552987Y-83385964D01*
X88506826Y-83525269D01*
X88506826Y-83525270D01*
X88506825Y-83525270D01*
X88496500Y-83626337D01*
X88496500Y-84224691D01*
X88496502Y-84224712D01*
X88497963Y-84239015D01*
X88485193Y-84307708D01*
X88437311Y-84358591D01*
X88369521Y-84375511D01*
X88333650Y-84368656D01*
X88246013Y-84337990D01*
X88199287Y-84308630D01*
X87174845Y-83284188D01*
X87169710Y-83278733D01*
X87129834Y-83233721D01*
X87129829Y-83233717D01*
X87080343Y-83199560D01*
X87074308Y-83195120D01*
X87026965Y-83158029D01*
X87026960Y-83158025D01*
X87017718Y-83153866D01*
X86998171Y-83142841D01*
X86989836Y-83137088D01*
X86989837Y-83137088D01*
X86989835Y-83137087D01*
X86933599Y-83115759D01*
X86926695Y-83112899D01*
X86871837Y-83088210D01*
X86871835Y-83088209D01*
X86861851Y-83086379D01*
X86840248Y-83080356D01*
X86830779Y-83076765D01*
X86830775Y-83076764D01*
X86787676Y-83071531D01*
X86723498Y-83043908D01*
X86697086Y-83013532D01*
X86689390Y-83001055D01*
X86567400Y-82879065D01*
X86562293Y-82873958D01*
X86564507Y-82871743D01*
X86532229Y-82826172D01*
X86529080Y-82756373D01*
X86564168Y-82695953D01*
X86584407Y-82680377D01*
X86592176Y-82675586D01*
X86714166Y-82553596D01*
X86804734Y-82406762D01*
X86859000Y-82242999D01*
X86869326Y-82141923D01*
X86869325Y-81443570D01*
X86864925Y-81400500D01*
X86859000Y-81342493D01*
X86848247Y-81310044D01*
X86804734Y-81178730D01*
X86714166Y-81031896D01*
X86699843Y-81017573D01*
X86666358Y-80956250D01*
X86671342Y-80886558D01*
X86699847Y-80842206D01*
X86713773Y-80828281D01*
X86804274Y-80681557D01*
X86804279Y-80681546D01*
X86858506Y-80517898D01*
X86868825Y-80416900D01*
X86868826Y-80416887D01*
X86868826Y-80317746D01*
X84918827Y-80317746D01*
X84918827Y-80416900D01*
X84929145Y-80517898D01*
X84983372Y-80681546D01*
X84983377Y-80681557D01*
X85073878Y-80828280D01*
X85073881Y-80828284D01*
X85087807Y-80842210D01*
X85121292Y-80903533D01*
X85116308Y-80973225D01*
X85087812Y-81017568D01*
X85073487Y-81031893D01*
X85072590Y-81033349D01*
X85071715Y-81034135D01*
X85069012Y-81037555D01*
X85068427Y-81037092D01*
X85020639Y-81080070D01*
X84967055Y-81092246D01*
X84795169Y-81092246D01*
X84728130Y-81072561D01*
X84707488Y-81055927D01*
X84662085Y-81010524D01*
X84662084Y-81010523D01*
X84566636Y-80951650D01*
X84515252Y-80919956D01*
X84515247Y-80919954D01*
X84504884Y-80916520D01*
X84351487Y-80865689D01*
X84351485Y-80865688D01*
X84250412Y-80855363D01*
X83652064Y-80855363D01*
X83652046Y-80855364D01*
X83550981Y-80865688D01*
X83387218Y-80919955D01*
X83387215Y-80919956D01*
X83240382Y-81010524D01*
X83126415Y-81124492D01*
X83065092Y-81157977D01*
X82995400Y-81152993D01*
X82951053Y-81124492D01*
X82837085Y-81010524D01*
X82837084Y-81010523D01*
X82741636Y-80951650D01*
X82690252Y-80919956D01*
X82690247Y-80919954D01*
X82679884Y-80916520D01*
X82526487Y-80865689D01*
X82526485Y-80865688D01*
X82425412Y-80855363D01*
X81827064Y-80855363D01*
X81827046Y-80855364D01*
X81725981Y-80865688D01*
X81562218Y-80919955D01*
X81562215Y-80919956D01*
X81415382Y-81010524D01*
X81293395Y-81132511D01*
X81202827Y-81279344D01*
X81202825Y-81279349D01*
X81192654Y-81310044D01*
X81148560Y-81443110D01*
X81148560Y-81443111D01*
X81148559Y-81443111D01*
X81138234Y-81544178D01*
X81138234Y-82117532D01*
X81138235Y-82117550D01*
X81148559Y-82218615D01*
X81182217Y-82320185D01*
X81202726Y-82382078D01*
X81202826Y-82382378D01*
X81202827Y-82382381D01*
X81221353Y-82412416D01*
X81282929Y-82512247D01*
X81293395Y-82529214D01*
X81398498Y-82634317D01*
X81431983Y-82695640D01*
X81434817Y-82721998D01*
X81434817Y-82798117D01*
X81415132Y-82865156D01*
X81375915Y-82903655D01*
X81336967Y-82927678D01*
X81214977Y-83049668D01*
X81214974Y-83049672D01*
X81153981Y-83148557D01*
X81102033Y-83195282D01*
X81033070Y-83206503D01*
X80968989Y-83178660D01*
X80942904Y-83148557D01*
X80933927Y-83134003D01*
X80905162Y-83087367D01*
X80783172Y-82965377D01*
X80683105Y-82903655D01*
X80636340Y-82874810D01*
X80636335Y-82874808D01*
X80607207Y-82865156D01*
X80472575Y-82820543D01*
X80472573Y-82820542D01*
X80371506Y-82810217D01*
X80230677Y-82810217D01*
X80163638Y-82790532D01*
X80117883Y-82737728D01*
X80107939Y-82668570D01*
X80125139Y-82621120D01*
X80180680Y-82531074D01*
X80180685Y-82531063D01*
X80234912Y-82367415D01*
X80245231Y-82266417D01*
X80245232Y-82266404D01*
X80245232Y-82229763D01*
X79081732Y-82229763D01*
X79014693Y-82210078D01*
X78968938Y-82157274D01*
X78957732Y-82105763D01*
X78957732Y-81004763D01*
X79457732Y-81004763D01*
X79457732Y-81729763D01*
X80245231Y-81729763D01*
X80245231Y-81693123D01*
X80245230Y-81693108D01*
X80234912Y-81592110D01*
X80180685Y-81428462D01*
X80180680Y-81428451D01*
X80090179Y-81281728D01*
X80090176Y-81281724D01*
X79968270Y-81159818D01*
X79968266Y-81159815D01*
X79821543Y-81069314D01*
X79821532Y-81069309D01*
X79657884Y-81015082D01*
X79556886Y-81004763D01*
X79457732Y-81004763D01*
X78957732Y-81004763D01*
X78957732Y-81004762D01*
X78858592Y-81004763D01*
X78858576Y-81004764D01*
X78757579Y-81015082D01*
X78593931Y-81069309D01*
X78593917Y-81069316D01*
X78572327Y-81082633D01*
X78504935Y-81101073D01*
X78438272Y-81080150D01*
X78393503Y-81026507D01*
X78383232Y-80977094D01*
X78383232Y-80062343D01*
X78402917Y-79995304D01*
X78407947Y-79988057D01*
X78451531Y-79929838D01*
X78455695Y-79918672D01*
X78497564Y-79862741D01*
X78563028Y-79838323D01*
X78571876Y-79838007D01*
X79063467Y-79838007D01*
X79130506Y-79857692D01*
X79162733Y-79887695D01*
X79194281Y-79929837D01*
X79236054Y-79985639D01*
X79252455Y-80007547D01*
X79367664Y-80093793D01*
X79367671Y-80093797D01*
X79502517Y-80144091D01*
X79502516Y-80144091D01*
X79509444Y-80144835D01*
X79562127Y-80150500D01*
X81357872Y-80150499D01*
X81417483Y-80144091D01*
X81552331Y-80093796D01*
X81667546Y-80007546D01*
X81753796Y-79892331D01*
X81766716Y-79857692D01*
X81774021Y-79838105D01*
X81803002Y-79760401D01*
X81844872Y-79704468D01*
X81910337Y-79680050D01*
X81978610Y-79694901D01*
X82006865Y-79716053D01*
X82128917Y-79838105D01*
X82322421Y-79973600D01*
X82536507Y-80073429D01*
X82536516Y-80073433D01*
X82750000Y-80130634D01*
X82750000Y-79235501D01*
X82857685Y-79284680D01*
X82964237Y-79300000D01*
X83035763Y-79300000D01*
X83142315Y-79284680D01*
X83250000Y-79235501D01*
X83250000Y-80130633D01*
X83463483Y-80073433D01*
X83463492Y-80073429D01*
X83677578Y-79973600D01*
X83871082Y-79838105D01*
X83891441Y-79817746D01*
X84918826Y-79817746D01*
X85643826Y-79817746D01*
X85643826Y-79030246D01*
X86143826Y-79030246D01*
X86143826Y-79817746D01*
X86868825Y-79817746D01*
X86868825Y-79718606D01*
X86868824Y-79718591D01*
X86866925Y-79700000D01*
X88525000Y-79700000D01*
X89250000Y-79700000D01*
X89250000Y-78925000D01*
X89213361Y-78925000D01*
X89213343Y-78925001D01*
X89112347Y-78935319D01*
X88948699Y-78989546D01*
X88948688Y-78989551D01*
X88801965Y-79080052D01*
X88801961Y-79080055D01*
X88680055Y-79201961D01*
X88680052Y-79201965D01*
X88589551Y-79348688D01*
X88589546Y-79348699D01*
X88535319Y-79512347D01*
X88525000Y-79613345D01*
X88525000Y-79700000D01*
X86866925Y-79700000D01*
X86858506Y-79617593D01*
X86804279Y-79453945D01*
X86804274Y-79453934D01*
X86713773Y-79307211D01*
X86713770Y-79307207D01*
X86591864Y-79185301D01*
X86591860Y-79185298D01*
X86445137Y-79094797D01*
X86445126Y-79094792D01*
X86281478Y-79040565D01*
X86180480Y-79030246D01*
X86143826Y-79030246D01*
X85643826Y-79030246D01*
X85607187Y-79030246D01*
X85607169Y-79030247D01*
X85506173Y-79040565D01*
X85342525Y-79094792D01*
X85342514Y-79094797D01*
X85195791Y-79185298D01*
X85195787Y-79185301D01*
X85073881Y-79307207D01*
X85073878Y-79307211D01*
X84983377Y-79453934D01*
X84983372Y-79453945D01*
X84929145Y-79617593D01*
X84918826Y-79718591D01*
X84918826Y-79817746D01*
X83891441Y-79817746D01*
X84038105Y-79671082D01*
X84173600Y-79477578D01*
X84273429Y-79263492D01*
X84273432Y-79263486D01*
X84330636Y-79050000D01*
X83433686Y-79050000D01*
X83459493Y-79009844D01*
X83500000Y-78871889D01*
X83500000Y-78728111D01*
X83459493Y-78590156D01*
X83433686Y-78550000D01*
X84330636Y-78550000D01*
X84330635Y-78549999D01*
X84273432Y-78336513D01*
X84273429Y-78336507D01*
X84173600Y-78122422D01*
X84173598Y-78122418D01*
X84154836Y-78095624D01*
X84132508Y-78029418D01*
X84149518Y-77961651D01*
X84200465Y-77913838D01*
X84256410Y-77900500D01*
X89775639Y-77900500D01*
X89842678Y-77920185D01*
G37*
G04 #@! TD.AperFunction*
G04 #@! TA.AperFunction,Conductor*
G36*
X103515673Y-73760339D02*
G01*
X103571606Y-73802211D01*
X103596023Y-73867675D01*
X103595278Y-73892705D01*
X103594318Y-73900000D01*
X103601282Y-73952900D01*
X103609512Y-74015408D01*
X103609512Y-74015409D01*
X103614955Y-74056760D01*
X103614956Y-74056762D01*
X103669362Y-74188111D01*
X103675464Y-74202841D01*
X103753110Y-74304031D01*
X103771719Y-74328283D01*
X103796769Y-74347504D01*
X103808964Y-74358199D01*
X104595124Y-75144359D01*
X104628609Y-75205682D01*
X104631443Y-75232040D01*
X104631443Y-75519087D01*
X104611758Y-75586126D01*
X104572540Y-75624625D01*
X104471096Y-75687196D01*
X104471091Y-75687200D01*
X104456768Y-75701523D01*
X104395444Y-75735007D01*
X104325752Y-75730021D01*
X104281408Y-75701521D01*
X104267481Y-75687594D01*
X104267477Y-75687591D01*
X104120754Y-75597090D01*
X104120743Y-75597085D01*
X103957095Y-75542858D01*
X103856097Y-75532539D01*
X103756943Y-75532539D01*
X103756943Y-76633539D01*
X103737258Y-76700578D01*
X103684454Y-76746333D01*
X103632943Y-76757539D01*
X102469444Y-76757539D01*
X102469444Y-76794193D01*
X102479762Y-76895191D01*
X102533989Y-77058839D01*
X102533994Y-77058850D01*
X102624495Y-77205573D01*
X102624498Y-77205577D01*
X102632433Y-77213512D01*
X102665918Y-77274835D01*
X102660934Y-77344527D01*
X102632433Y-77388874D01*
X102620340Y-77400966D01*
X102620339Y-77400968D01*
X102619445Y-77402416D01*
X102618574Y-77403200D01*
X102615858Y-77406635D01*
X102615271Y-77406170D01*
X102567499Y-77449139D01*
X102513908Y-77461318D01*
X102463103Y-77461318D01*
X102455615Y-77461092D01*
X102395578Y-77457460D01*
X102395570Y-77457460D01*
X102336409Y-77468301D01*
X102329009Y-77469428D01*
X102269310Y-77476678D01*
X102269303Y-77476679D01*
X102259829Y-77480272D01*
X102238231Y-77486293D01*
X102228250Y-77488123D01*
X102228245Y-77488124D01*
X102173394Y-77512810D01*
X102166478Y-77515675D01*
X102110252Y-77536999D01*
X102110248Y-77537002D01*
X102101905Y-77542760D01*
X102082370Y-77553778D01*
X102073130Y-77557937D01*
X102073120Y-77557942D01*
X102025779Y-77595031D01*
X102019751Y-77599467D01*
X101970250Y-77633637D01*
X101930365Y-77678656D01*
X101925233Y-77684108D01*
X101522290Y-78087051D01*
X101516838Y-78092183D01*
X101471819Y-78132068D01*
X101437649Y-78181569D01*
X101433213Y-78187597D01*
X101396124Y-78234938D01*
X101396119Y-78234948D01*
X101391960Y-78244188D01*
X101380942Y-78263723D01*
X101375187Y-78272061D01*
X101375179Y-78272076D01*
X101353853Y-78328305D01*
X101350989Y-78335220D01*
X101326305Y-78390068D01*
X101324477Y-78400042D01*
X101318453Y-78421653D01*
X101314860Y-78431127D01*
X101314860Y-78431128D01*
X101307610Y-78490827D01*
X101306483Y-78498227D01*
X101295642Y-78557389D01*
X101295642Y-78557395D01*
X101299274Y-78617432D01*
X101299500Y-78624920D01*
X101299500Y-78674507D01*
X101280494Y-78740478D01*
X101274209Y-78750479D01*
X101214633Y-78920737D01*
X101214630Y-78920750D01*
X101194435Y-79099996D01*
X101194435Y-79100003D01*
X101214630Y-79279249D01*
X101214631Y-79279254D01*
X101274211Y-79449523D01*
X101362523Y-79590069D01*
X101370184Y-79602262D01*
X101497738Y-79729816D01*
X101552606Y-79764292D01*
X101643123Y-79821168D01*
X101650478Y-79825789D01*
X101804878Y-79879816D01*
X101820745Y-79885368D01*
X101820750Y-79885369D01*
X101999996Y-79905565D01*
X102000000Y-79905565D01*
X102000004Y-79905565D01*
X102179249Y-79885369D01*
X102179252Y-79885368D01*
X102179255Y-79885368D01*
X102349522Y-79825789D01*
X102502262Y-79729816D01*
X102558941Y-79673137D01*
X102620264Y-79639652D01*
X102646622Y-79636818D01*
X104403843Y-79636818D01*
X104415674Y-79640292D01*
X105411394Y-79640292D01*
X105478433Y-79659977D01*
X105524188Y-79712781D01*
X105535394Y-79764292D01*
X105535394Y-80016292D01*
X105515709Y-80083331D01*
X105462905Y-80129086D01*
X105411394Y-80140292D01*
X104322230Y-80140292D01*
X104310399Y-80136818D01*
X102465680Y-80136818D01*
X102465680Y-80235972D01*
X102475998Y-80336970D01*
X102530225Y-80500618D01*
X102530230Y-80500629D01*
X102620731Y-80647352D01*
X102620734Y-80647356D01*
X102683413Y-80710035D01*
X102716898Y-80771358D01*
X102711914Y-80841050D01*
X102683413Y-80885397D01*
X102567160Y-81001649D01*
X102567159Y-81001650D01*
X102543138Y-81040596D01*
X102491190Y-81087321D01*
X102437599Y-81099500D01*
X102151212Y-81099500D01*
X102084173Y-81079815D01*
X102045673Y-81040596D01*
X102040307Y-81031896D01*
X102011615Y-80985379D01*
X101889625Y-80863389D01*
X101798404Y-80807124D01*
X101742793Y-80772822D01*
X101742788Y-80772820D01*
X101719406Y-80765072D01*
X101579028Y-80718555D01*
X101579026Y-80718554D01*
X101477953Y-80708229D01*
X100804605Y-80708229D01*
X100804587Y-80708230D01*
X100703522Y-80718554D01*
X100539759Y-80772821D01*
X100539756Y-80772822D01*
X100392923Y-80863390D01*
X100353601Y-80902712D01*
X100292278Y-80936197D01*
X100222586Y-80931211D01*
X100178240Y-80902711D01*
X100139313Y-80863784D01*
X100139309Y-80863781D01*
X99992586Y-80773280D01*
X99992575Y-80773275D01*
X99828926Y-80719048D01*
X99726741Y-80708608D01*
X99662049Y-80682212D01*
X99621898Y-80625031D01*
X99619035Y-80555220D01*
X99651660Y-80497573D01*
X100068535Y-80080698D01*
X100129856Y-80047215D01*
X100142311Y-80045163D01*
X100229255Y-80035368D01*
X100399522Y-79975789D01*
X100552262Y-79879816D01*
X100679816Y-79752262D01*
X100775789Y-79599522D01*
X100835368Y-79429255D01*
X100835369Y-79429249D01*
X100855565Y-79250003D01*
X100855565Y-79249996D01*
X100835369Y-79070750D01*
X100835368Y-79070745D01*
X100806955Y-78989546D01*
X100775789Y-78900478D01*
X100765835Y-78884637D01*
X100690699Y-78765058D01*
X100679816Y-78747738D01*
X100552262Y-78620184D01*
X100547882Y-78617432D01*
X100399523Y-78524211D01*
X100229254Y-78464631D01*
X100229249Y-78464630D01*
X100050004Y-78444435D01*
X100049996Y-78444435D01*
X99870750Y-78464630D01*
X99870745Y-78464631D01*
X99700476Y-78524211D01*
X99547737Y-78620184D01*
X99420184Y-78747737D01*
X99324210Y-78900478D01*
X99264630Y-79070750D01*
X99254837Y-79157668D01*
X99227770Y-79222082D01*
X99219298Y-79231465D01*
X98744549Y-79706215D01*
X98683226Y-79739700D01*
X98613535Y-79734716D01*
X98557601Y-79692845D01*
X98533184Y-79627380D01*
X98548036Y-79559107D01*
X98555287Y-79547418D01*
X98674035Y-79377830D01*
X98773903Y-79163663D01*
X98835063Y-78935408D01*
X98855659Y-78700000D01*
X98853182Y-78671694D01*
X98845014Y-78578334D01*
X98835063Y-78464592D01*
X98773903Y-78236337D01*
X98674035Y-78022171D01*
X98655646Y-77995909D01*
X98538496Y-77828600D01*
X98503029Y-77793133D01*
X98416567Y-77706671D01*
X98383084Y-77645351D01*
X98388068Y-77575659D01*
X98429939Y-77519725D01*
X98460915Y-77502810D01*
X98592331Y-77453796D01*
X98707546Y-77367546D01*
X98793796Y-77252331D01*
X98811158Y-77205781D01*
X98835258Y-77141167D01*
X98877129Y-77085233D01*
X98942593Y-77060816D01*
X98951440Y-77060500D01*
X99659373Y-77060500D01*
X99678772Y-77062027D01*
X99692612Y-77064219D01*
X99760337Y-77060670D01*
X99766826Y-77060500D01*
X99787191Y-77060500D01*
X99787192Y-77060500D01*
X99800939Y-77059055D01*
X99807448Y-77058371D01*
X99813906Y-77057862D01*
X99881646Y-77054313D01*
X99895187Y-77050683D01*
X99914313Y-77047138D01*
X99928256Y-77045674D01*
X99992786Y-77024706D01*
X99998951Y-77022880D01*
X100064488Y-77005320D01*
X100076976Y-76998956D01*
X100094950Y-76991510D01*
X100108284Y-76987179D01*
X100167051Y-76953248D01*
X100172693Y-76950185D01*
X100233149Y-76919383D01*
X100244031Y-76910569D01*
X100260083Y-76899537D01*
X100272216Y-76892533D01*
X100322654Y-76847117D01*
X100327540Y-76842945D01*
X100343380Y-76830119D01*
X100357801Y-76815696D01*
X100362472Y-76811264D01*
X100412888Y-76765871D01*
X100421130Y-76754525D01*
X100433760Y-76739737D01*
X100915958Y-76257539D01*
X102469443Y-76257539D01*
X103256943Y-76257539D01*
X103256943Y-75532538D01*
X103157803Y-75532539D01*
X103157787Y-75532540D01*
X103056790Y-75542858D01*
X102893142Y-75597085D01*
X102893131Y-75597090D01*
X102746408Y-75687591D01*
X102746404Y-75687594D01*
X102624498Y-75809500D01*
X102624495Y-75809504D01*
X102533994Y-75956227D01*
X102533989Y-75956238D01*
X102479762Y-76119886D01*
X102469443Y-76220884D01*
X102469443Y-76257539D01*
X100915958Y-76257539D01*
X101379737Y-75793760D01*
X101394525Y-75781130D01*
X101405871Y-75772888D01*
X101451265Y-75722471D01*
X101455718Y-75717780D01*
X101459138Y-75714360D01*
X101470119Y-75703380D01*
X101528650Y-75644852D01*
X101528692Y-75644805D01*
X103384659Y-73788838D01*
X103445981Y-73755355D01*
X103515673Y-73760339D01*
G37*
G04 #@! TD.AperFunction*
G04 #@! TA.AperFunction,Conductor*
G36*
X96095870Y-75120185D02*
G01*
X96141625Y-75172989D01*
X96152120Y-75237752D01*
X96149500Y-75262127D01*
X96149500Y-75262131D01*
X96149500Y-75262132D01*
X96149500Y-75262135D01*
X96149501Y-77057861D01*
X96149501Y-77057876D01*
X96155908Y-77117483D01*
X96206202Y-77252328D01*
X96206206Y-77252335D01*
X96292452Y-77367544D01*
X96292455Y-77367547D01*
X96407664Y-77453793D01*
X96407671Y-77453797D01*
X96539081Y-77502810D01*
X96595015Y-77544681D01*
X96619432Y-77610145D01*
X96604580Y-77678418D01*
X96583430Y-77706673D01*
X96461503Y-77828600D01*
X96325965Y-78022169D01*
X96325964Y-78022171D01*
X96226098Y-78236335D01*
X96226094Y-78236344D01*
X96164938Y-78464586D01*
X96164936Y-78464596D01*
X96144341Y-78699999D01*
X96144341Y-78700000D01*
X96164936Y-78935403D01*
X96164938Y-78935413D01*
X96226094Y-79163655D01*
X96226096Y-79163659D01*
X96226097Y-79163663D01*
X96309909Y-79343397D01*
X96325965Y-79377830D01*
X96325967Y-79377834D01*
X96461501Y-79571395D01*
X96461506Y-79571402D01*
X96628597Y-79738494D01*
X96659885Y-79760402D01*
X96741781Y-79817746D01*
X96746623Y-79821136D01*
X96790248Y-79875713D01*
X96799500Y-79922711D01*
X96799500Y-80849481D01*
X96779815Y-80916520D01*
X96727011Y-80962275D01*
X96657853Y-80972219D01*
X96594297Y-80943194D01*
X96587819Y-80937162D01*
X94762651Y-79111994D01*
X94729166Y-79050671D01*
X94730558Y-78992217D01*
X94735063Y-78975408D01*
X94755659Y-78740000D01*
X94735063Y-78504592D01*
X94673903Y-78276337D01*
X94574035Y-78062171D01*
X94571451Y-78058481D01*
X94438496Y-77868600D01*
X94391285Y-77821389D01*
X94316567Y-77746671D01*
X94283084Y-77685351D01*
X94288068Y-77615659D01*
X94329939Y-77559725D01*
X94360915Y-77542810D01*
X94492331Y-77493796D01*
X94607546Y-77407546D01*
X94693796Y-77292331D01*
X94744091Y-77157483D01*
X94750500Y-77097873D01*
X94750499Y-75302128D01*
X94744091Y-75242517D01*
X94743579Y-75237753D01*
X94755986Y-75168994D01*
X94803597Y-75117857D01*
X94866869Y-75100500D01*
X96028831Y-75100500D01*
X96095870Y-75120185D01*
G37*
G04 #@! TD.AperFunction*
G04 #@! TA.AperFunction,Conductor*
G36*
X112574892Y-78920185D02*
G01*
X112620647Y-78972989D01*
X112630792Y-79008316D01*
X112640442Y-79081622D01*
X112640445Y-79081634D01*
X112648837Y-79101895D01*
X112656304Y-79171364D01*
X112648838Y-79196794D01*
X112639956Y-79218238D01*
X112639955Y-79218239D01*
X112624500Y-79335638D01*
X112624500Y-79614363D01*
X112639953Y-79731753D01*
X112639957Y-79731765D01*
X112648566Y-79752550D01*
X112656033Y-79822019D01*
X112648566Y-79847450D01*
X112639957Y-79868234D01*
X112639955Y-79868239D01*
X112624500Y-79985638D01*
X112624500Y-80022630D01*
X112604815Y-80089669D01*
X112552011Y-80135424D01*
X112482853Y-80145368D01*
X112434528Y-80127624D01*
X112408553Y-80111303D01*
X112349522Y-80074211D01*
X112339085Y-80070559D01*
X112179254Y-80014631D01*
X112179249Y-80014630D01*
X112000004Y-79994435D01*
X111999996Y-79994435D01*
X111820750Y-80014630D01*
X111820745Y-80014631D01*
X111650476Y-80074211D01*
X111497734Y-80170186D01*
X111497731Y-80170188D01*
X111496245Y-80171675D01*
X111495049Y-80172327D01*
X111492290Y-80174528D01*
X111491904Y-80174044D01*
X111434916Y-80205150D01*
X111365225Y-80200155D01*
X111320896Y-80171661D01*
X110261416Y-79112181D01*
X110227931Y-79050858D01*
X110232915Y-78981166D01*
X110274787Y-78925233D01*
X110340251Y-78900816D01*
X110349097Y-78900500D01*
X112507853Y-78900500D01*
X112574892Y-78920185D01*
G37*
G04 #@! TD.AperFunction*
G04 #@! TA.AperFunction,Conductor*
G36*
X128625520Y-68020185D02*
G01*
X128646162Y-68036819D01*
X129163181Y-68553837D01*
X129196666Y-68615160D01*
X129199500Y-68641518D01*
X129199500Y-78058481D01*
X129179815Y-78125520D01*
X129163181Y-78146162D01*
X128706162Y-78603181D01*
X128644839Y-78636666D01*
X128618481Y-78639500D01*
X128614499Y-78639500D01*
X128547460Y-78619815D01*
X128501705Y-78567011D01*
X128490499Y-78515500D01*
X128490499Y-78442129D01*
X128490498Y-78442123D01*
X128489316Y-78431128D01*
X128484091Y-78382517D01*
X128482810Y-78379083D01*
X128433797Y-78247671D01*
X128433793Y-78247664D01*
X128347547Y-78132455D01*
X128347544Y-78132452D01*
X128232335Y-78046206D01*
X128232328Y-78046202D01*
X128100401Y-77996997D01*
X128044467Y-77955126D01*
X128020050Y-77889662D01*
X128034902Y-77821389D01*
X128056053Y-77793133D01*
X128178108Y-77671078D01*
X128313600Y-77477578D01*
X128413429Y-77263492D01*
X128413432Y-77263486D01*
X128470636Y-77050000D01*
X127573686Y-77050000D01*
X127599493Y-77009844D01*
X127640000Y-76871889D01*
X127640000Y-76728111D01*
X127599493Y-76590156D01*
X127573686Y-76550000D01*
X128470636Y-76550000D01*
X128470635Y-76549999D01*
X128413432Y-76336513D01*
X128413429Y-76336507D01*
X128313600Y-76122422D01*
X128313599Y-76122420D01*
X128178113Y-75928926D01*
X128178108Y-75928920D01*
X128011082Y-75761894D01*
X127824968Y-75631575D01*
X127781344Y-75576998D01*
X127774151Y-75507499D01*
X127805673Y-75445145D01*
X127824968Y-75428425D01*
X128011082Y-75298105D01*
X128178105Y-75131082D01*
X128313600Y-74937578D01*
X128413429Y-74723492D01*
X128413432Y-74723486D01*
X128470636Y-74510000D01*
X127573686Y-74510000D01*
X127599493Y-74469844D01*
X127640000Y-74331889D01*
X127640000Y-74188111D01*
X127599493Y-74050156D01*
X127573686Y-74010000D01*
X128470636Y-74010000D01*
X128470635Y-74009999D01*
X128413432Y-73796513D01*
X128413429Y-73796507D01*
X128313600Y-73582422D01*
X128313599Y-73582420D01*
X128178113Y-73388926D01*
X128178108Y-73388920D01*
X128011078Y-73221890D01*
X127825405Y-73091879D01*
X127781780Y-73037302D01*
X127774588Y-72967804D01*
X127806110Y-72905449D01*
X127825406Y-72888730D01*
X127825842Y-72888425D01*
X128011401Y-72758495D01*
X128178495Y-72591401D01*
X128314035Y-72397830D01*
X128413903Y-72183663D01*
X128475063Y-71955408D01*
X128495659Y-71720000D01*
X128475063Y-71484592D01*
X128414325Y-71257913D01*
X128413905Y-71256344D01*
X128413904Y-71256343D01*
X128413903Y-71256337D01*
X128314035Y-71042171D01*
X128308425Y-71034158D01*
X128178494Y-70848597D01*
X128011402Y-70681506D01*
X128011401Y-70681505D01*
X127825405Y-70551269D01*
X127781781Y-70496692D01*
X127774588Y-70427193D01*
X127806110Y-70364839D01*
X127825405Y-70348119D01*
X128011082Y-70218105D01*
X128178105Y-70051082D01*
X128313600Y-69857578D01*
X128413429Y-69643492D01*
X128413432Y-69643486D01*
X128470636Y-69430000D01*
X127573686Y-69430000D01*
X127599493Y-69389844D01*
X127640000Y-69251889D01*
X127640000Y-69108111D01*
X127599493Y-68970156D01*
X127573686Y-68930000D01*
X128470636Y-68930000D01*
X128470635Y-68929999D01*
X128413432Y-68716513D01*
X128413429Y-68716507D01*
X128313600Y-68502422D01*
X128313599Y-68502420D01*
X128178113Y-68308926D01*
X128178108Y-68308920D01*
X128081369Y-68212181D01*
X128047884Y-68150858D01*
X128052868Y-68081166D01*
X128094740Y-68025233D01*
X128160204Y-68000816D01*
X128169050Y-68000500D01*
X128558481Y-68000500D01*
X128625520Y-68020185D01*
G37*
G04 #@! TD.AperFunction*
G04 #@! TA.AperFunction,Conductor*
G36*
X90943039Y-65220185D02*
G01*
X90988794Y-65272989D01*
X91000000Y-65324500D01*
X91000000Y-65950000D01*
X92176000Y-65950000D01*
X92243039Y-65969685D01*
X92288794Y-66022489D01*
X92300000Y-66074000D01*
X92300000Y-67600000D01*
X92476000Y-67600000D01*
X92543039Y-67619685D01*
X92588794Y-67672489D01*
X92600000Y-67724000D01*
X92600000Y-68300000D01*
X95025500Y-68300000D01*
X95092539Y-68319685D01*
X95138294Y-68372489D01*
X95149500Y-68424000D01*
X95149500Y-70176000D01*
X95129815Y-70243039D01*
X95077011Y-70288794D01*
X95025500Y-70300000D01*
X92600000Y-70300000D01*
X92600000Y-70876000D01*
X92580315Y-70943039D01*
X92527511Y-70988794D01*
X92476000Y-71000000D01*
X92300000Y-71000000D01*
X92300000Y-73800000D01*
X92647828Y-73800000D01*
X92647844Y-73799999D01*
X92707372Y-73793598D01*
X92707379Y-73793596D01*
X92842086Y-73743354D01*
X92842093Y-73743350D01*
X92957187Y-73657190D01*
X92957190Y-73657187D01*
X93043350Y-73542093D01*
X93043354Y-73542086D01*
X93093596Y-73407379D01*
X93095380Y-73399832D01*
X93097543Y-73400343D01*
X93119975Y-73346192D01*
X93177368Y-73306345D01*
X93216525Y-73300000D01*
X93530332Y-73300000D01*
X93597371Y-73319685D01*
X93643126Y-73372489D01*
X93653070Y-73441647D01*
X93624045Y-73505203D01*
X93608371Y-73520364D01*
X93596617Y-73529882D01*
X93582203Y-73544296D01*
X93577497Y-73548761D01*
X93527113Y-73594127D01*
X93527105Y-73594136D01*
X93518872Y-73605468D01*
X93506238Y-73620260D01*
X92820263Y-74306236D01*
X92805474Y-74318869D01*
X92794126Y-74327114D01*
X92748751Y-74377508D01*
X92744288Y-74382211D01*
X92729891Y-74396609D01*
X92729875Y-74396627D01*
X92717058Y-74412452D01*
X92712852Y-74417376D01*
X92667469Y-74467781D01*
X92667466Y-74467785D01*
X92660458Y-74479923D01*
X92649444Y-74495948D01*
X92640626Y-74506837D01*
X92640616Y-74506853D01*
X92609819Y-74567294D01*
X92606722Y-74572997D01*
X92572821Y-74631713D01*
X92568487Y-74645053D01*
X92561045Y-74663020D01*
X92554680Y-74675512D01*
X92537126Y-74741018D01*
X92535285Y-74747233D01*
X92526305Y-74774875D01*
X92486870Y-74832552D01*
X92449052Y-74851233D01*
X92449785Y-74853198D01*
X92307671Y-74906202D01*
X92307664Y-74906206D01*
X92192455Y-74992452D01*
X92192452Y-74992455D01*
X92106206Y-75107664D01*
X92106202Y-75107671D01*
X92055908Y-75242517D01*
X92049890Y-75298495D01*
X92049501Y-75302123D01*
X92049500Y-75302135D01*
X92049500Y-76652374D01*
X92029815Y-76719413D01*
X91977011Y-76765168D01*
X91907853Y-76775112D01*
X91844297Y-76746087D01*
X91837819Y-76740055D01*
X90206728Y-75108964D01*
X90196032Y-75096767D01*
X90176815Y-75071722D01*
X90176812Y-75071720D01*
X90176811Y-75071718D01*
X90051370Y-74975464D01*
X90036532Y-74969318D01*
X89905291Y-74914956D01*
X89905289Y-74914955D01*
X89748530Y-74894318D01*
X89748529Y-74894318D01*
X89717226Y-74898439D01*
X89701042Y-74899500D01*
X87908040Y-74899500D01*
X87841001Y-74879815D01*
X87795246Y-74827011D01*
X87785302Y-74757853D01*
X87814327Y-74694297D01*
X87820359Y-74687819D01*
X87920142Y-74588035D01*
X87920145Y-74588031D01*
X88009112Y-74443795D01*
X88009117Y-74443784D01*
X88062425Y-74282909D01*
X88072569Y-74183625D01*
X88072570Y-74183612D01*
X88072570Y-73460303D01*
X86996570Y-73460303D01*
X86929531Y-73440618D01*
X86883776Y-73387814D01*
X86872570Y-73336303D01*
X86872570Y-72253254D01*
X86892255Y-72186215D01*
X86902858Y-72172050D01*
X86914447Y-72158676D01*
X86974235Y-72027760D01*
X86994717Y-71885303D01*
X86994717Y-71560303D01*
X87372570Y-71560303D01*
X87372570Y-72960303D01*
X88072569Y-72960303D01*
X88072569Y-72650000D01*
X91000000Y-72650000D01*
X91000000Y-73347844D01*
X91006401Y-73407372D01*
X91006403Y-73407379D01*
X91056645Y-73542086D01*
X91056649Y-73542093D01*
X91142809Y-73657187D01*
X91142812Y-73657190D01*
X91257906Y-73743350D01*
X91257913Y-73743354D01*
X91392620Y-73793596D01*
X91392627Y-73793598D01*
X91452155Y-73799999D01*
X91452172Y-73800000D01*
X91800000Y-73800000D01*
X91800000Y-72650000D01*
X91000000Y-72650000D01*
X88072569Y-72650000D01*
X88072569Y-72236995D01*
X88072568Y-72236980D01*
X88063682Y-72150000D01*
X91000000Y-72150000D01*
X91800000Y-72150000D01*
X91800000Y-71000000D01*
X91452155Y-71000000D01*
X91392627Y-71006401D01*
X91392620Y-71006403D01*
X91257913Y-71056645D01*
X91257906Y-71056649D01*
X91142812Y-71142809D01*
X91142809Y-71142812D01*
X91056649Y-71257906D01*
X91056645Y-71257913D01*
X91006403Y-71392620D01*
X91006401Y-71392627D01*
X91000000Y-71452155D01*
X91000000Y-72150000D01*
X88063682Y-72150000D01*
X88062425Y-72137695D01*
X88009117Y-71976821D01*
X88009112Y-71976810D01*
X87920145Y-71832574D01*
X87920142Y-71832570D01*
X87800302Y-71712730D01*
X87800298Y-71712727D01*
X87656062Y-71623760D01*
X87656051Y-71623755D01*
X87495176Y-71570447D01*
X87395892Y-71560303D01*
X87372570Y-71560303D01*
X86994717Y-71560303D01*
X86994717Y-67760303D01*
X86989570Y-67688342D01*
X86984915Y-67672489D01*
X86949024Y-67550252D01*
X86949023Y-67550250D01*
X86871213Y-67429175D01*
X86762443Y-67334926D01*
X86762441Y-67334925D01*
X86631526Y-67275137D01*
X86524862Y-67259802D01*
X86489070Y-67254656D01*
X84756070Y-67254656D01*
X84756067Y-67254656D01*
X84684109Y-67259802D01*
X84684104Y-67259803D01*
X84546019Y-67300348D01*
X84424943Y-67378159D01*
X84330693Y-67486929D01*
X84330692Y-67486931D01*
X84270904Y-67617846D01*
X84252997Y-67742396D01*
X84250424Y-67760300D01*
X84250423Y-67760304D01*
X84250423Y-71435803D01*
X84230738Y-71502842D01*
X84177934Y-71548597D01*
X84126423Y-71559803D01*
X83849233Y-71559803D01*
X83849214Y-71559804D01*
X83749862Y-71569953D01*
X83749859Y-71569954D01*
X83588875Y-71623299D01*
X83588864Y-71623304D01*
X83444529Y-71712332D01*
X83444525Y-71712335D01*
X83324602Y-71832258D01*
X83324599Y-71832262D01*
X83235571Y-71976597D01*
X83235566Y-71976608D01*
X83182221Y-72137593D01*
X83176008Y-72198406D01*
X83149611Y-72263098D01*
X83092430Y-72303249D01*
X83052650Y-72309803D01*
X81806061Y-72309803D01*
X81739022Y-72290118D01*
X81718380Y-72273484D01*
X81641569Y-72196673D01*
X81608084Y-72135350D01*
X81613068Y-72065658D01*
X81654940Y-72009725D01*
X81685915Y-71992810D01*
X81817331Y-71943796D01*
X81932546Y-71857546D01*
X82018796Y-71742331D01*
X82069091Y-71607483D01*
X82075500Y-71547873D01*
X82075499Y-69752128D01*
X82069091Y-69692517D01*
X82064422Y-69680000D01*
X82018797Y-69557671D01*
X82018793Y-69557664D01*
X81932547Y-69442455D01*
X81932544Y-69442452D01*
X81817335Y-69356206D01*
X81817329Y-69356203D01*
X81706166Y-69314741D01*
X81650233Y-69272869D01*
X81625816Y-69207405D01*
X81625500Y-69198559D01*
X81625500Y-66499361D01*
X81639994Y-66450000D01*
X91000000Y-66450000D01*
X91000000Y-67147844D01*
X91006401Y-67207372D01*
X91006403Y-67207379D01*
X91056645Y-67342086D01*
X91056649Y-67342093D01*
X91142809Y-67457187D01*
X91142812Y-67457190D01*
X91257906Y-67543350D01*
X91257913Y-67543354D01*
X91392620Y-67593596D01*
X91392627Y-67593598D01*
X91452155Y-67599999D01*
X91452172Y-67600000D01*
X91800000Y-67600000D01*
X91800000Y-66450000D01*
X91000000Y-66450000D01*
X81639994Y-66450000D01*
X81645185Y-66432322D01*
X81661819Y-66411680D01*
X82836680Y-65236819D01*
X82898003Y-65203334D01*
X82924361Y-65200500D01*
X90876000Y-65200500D01*
X90943039Y-65220185D01*
G37*
G04 #@! TD.AperFunction*
G04 #@! TA.AperFunction,Conductor*
G36*
X127390000Y-76364498D02*
G01*
X127282315Y-76315320D01*
X127175763Y-76300000D01*
X127104237Y-76300000D01*
X126997685Y-76315320D01*
X126890000Y-76364498D01*
X126890000Y-74695501D01*
X126997685Y-74744680D01*
X127104237Y-74760000D01*
X127175763Y-74760000D01*
X127282315Y-74744680D01*
X127390000Y-74695501D01*
X127390000Y-76364498D01*
G37*
G04 #@! TD.AperFunction*
G04 #@! TA.AperFunction,Conductor*
G36*
X110893039Y-72769685D02*
G01*
X110938794Y-72822489D01*
X110950000Y-72874000D01*
X110950000Y-74550000D01*
X111501402Y-74550000D01*
X111568441Y-74569685D01*
X111614196Y-74622489D01*
X111624140Y-74691647D01*
X111595115Y-74755203D01*
X111589083Y-74761681D01*
X110112584Y-76238181D01*
X110051261Y-76271666D01*
X110024903Y-76274500D01*
X109980433Y-76274500D01*
X109913394Y-76254815D01*
X109867639Y-76202011D01*
X109857695Y-76132853D01*
X109865872Y-76103048D01*
X109877586Y-76074767D01*
X109885044Y-76056762D01*
X109892451Y-76000500D01*
X109898280Y-75956227D01*
X109905682Y-75900001D01*
X109905682Y-75899998D01*
X109901561Y-75868697D01*
X109900500Y-75852512D01*
X109900500Y-74847487D01*
X109901561Y-74831301D01*
X109902855Y-74821475D01*
X109905682Y-74800000D01*
X109905431Y-74798095D01*
X109891225Y-74690185D01*
X109901991Y-74621150D01*
X109948371Y-74568894D01*
X110014164Y-74550000D01*
X110450000Y-74550000D01*
X110450000Y-72874000D01*
X110469685Y-72806961D01*
X110522489Y-72761206D01*
X110574000Y-72750000D01*
X110826000Y-72750000D01*
X110893039Y-72769685D01*
G37*
G04 #@! TD.AperFunction*
G04 #@! TA.AperFunction,Conductor*
G36*
X109325520Y-62520185D02*
G01*
X109346162Y-62536819D01*
X114562058Y-67752715D01*
X114567178Y-67758153D01*
X114607071Y-67803183D01*
X114648923Y-67832071D01*
X114656569Y-67837349D01*
X114662601Y-67841788D01*
X114709938Y-67878874D01*
X114709943Y-67878877D01*
X114719174Y-67883031D01*
X114738727Y-67894059D01*
X114747070Y-67899818D01*
X114803322Y-67921151D01*
X114810228Y-67924012D01*
X114865063Y-67948692D01*
X114865064Y-67948692D01*
X114865068Y-67948694D01*
X114875030Y-67950519D01*
X114896651Y-67956546D01*
X114906125Y-67960139D01*
X114906128Y-67960140D01*
X114950234Y-67965495D01*
X114965830Y-67967389D01*
X114973235Y-67968516D01*
X114992608Y-67972066D01*
X115032394Y-67979357D01*
X115092423Y-67975726D01*
X115099910Y-67975500D01*
X117017948Y-67975500D01*
X117084987Y-67995185D01*
X117105629Y-68011819D01*
X117193629Y-68099819D01*
X117227114Y-68161142D01*
X117222130Y-68230834D01*
X117193629Y-68275181D01*
X117079661Y-68389148D01*
X116989093Y-68535981D01*
X116989091Y-68535986D01*
X116971141Y-68590156D01*
X116934826Y-68699747D01*
X116934826Y-68699748D01*
X116934825Y-68699748D01*
X116924500Y-68800815D01*
X116924500Y-69399169D01*
X116924501Y-69399187D01*
X116934825Y-69500252D01*
X116989092Y-69664015D01*
X116989093Y-69664018D01*
X117019108Y-69712679D01*
X117079660Y-69810850D01*
X117201650Y-69932840D01*
X117240597Y-69956862D01*
X117287320Y-70008807D01*
X117299500Y-70062400D01*
X117299500Y-73217587D01*
X117279815Y-73284626D01*
X117272450Y-73294896D01*
X117270186Y-73297734D01*
X117174211Y-73450476D01*
X117114631Y-73620745D01*
X117114630Y-73620750D01*
X117094435Y-73799996D01*
X117094435Y-73800000D01*
X117114630Y-73979249D01*
X117114631Y-73979254D01*
X117174211Y-74149523D01*
X117219878Y-74222201D01*
X117270184Y-74302262D01*
X117397738Y-74429816D01*
X117458159Y-74467781D01*
X117549322Y-74525063D01*
X117550478Y-74525789D01*
X117685391Y-74572997D01*
X117720745Y-74585368D01*
X117720750Y-74585369D01*
X117899996Y-74605565D01*
X117900000Y-74605565D01*
X117900004Y-74605565D01*
X118079249Y-74585369D01*
X118079252Y-74585368D01*
X118079255Y-74585368D01*
X118249522Y-74525789D01*
X118402262Y-74429816D01*
X118529816Y-74302262D01*
X118625789Y-74149522D01*
X118685368Y-73979255D01*
X118686455Y-73969612D01*
X118705565Y-73800000D01*
X118705565Y-73799996D01*
X118685369Y-73620750D01*
X118685368Y-73620745D01*
X118671958Y-73582422D01*
X118625789Y-73450478D01*
X118610036Y-73425408D01*
X118587111Y-73388922D01*
X118529816Y-73297738D01*
X118529814Y-73297736D01*
X118529813Y-73297734D01*
X118527550Y-73294896D01*
X118526659Y-73292715D01*
X118526111Y-73291842D01*
X118526264Y-73291745D01*
X118501144Y-73230209D01*
X118500500Y-73217587D01*
X118500500Y-70062400D01*
X118520185Y-69995361D01*
X118559401Y-69956863D01*
X118598350Y-69932840D01*
X118720340Y-69810850D01*
X118752072Y-69759404D01*
X118804020Y-69712679D01*
X118857611Y-69700500D01*
X119636428Y-69700500D01*
X119703467Y-69720185D01*
X119738001Y-69753374D01*
X119860894Y-69928883D01*
X120015615Y-70083604D01*
X120194853Y-70209108D01*
X120393162Y-70301581D01*
X120604515Y-70358213D01*
X120787418Y-70374214D01*
X120822490Y-70377283D01*
X120822492Y-70377283D01*
X120822494Y-70377283D01*
X120850746Y-70374811D01*
X121040469Y-70358213D01*
X121251822Y-70301581D01*
X121450131Y-70209108D01*
X121629369Y-70083604D01*
X121784090Y-69928883D01*
X121891573Y-69775380D01*
X121946149Y-69731757D01*
X121993147Y-69722506D01*
X123283865Y-69722506D01*
X123350904Y-69742191D01*
X123396247Y-69794101D01*
X123425964Y-69857829D01*
X123425965Y-69857831D01*
X123520748Y-69993194D01*
X123561501Y-70051396D01*
X123561506Y-70051402D01*
X123728597Y-70218493D01*
X123728603Y-70218498D01*
X123914158Y-70348425D01*
X123957783Y-70403002D01*
X123964977Y-70472500D01*
X123933454Y-70534855D01*
X123914158Y-70551575D01*
X123728597Y-70681505D01*
X123561505Y-70848597D01*
X123425965Y-71042169D01*
X123425964Y-71042171D01*
X123326098Y-71256335D01*
X123326094Y-71256344D01*
X123264938Y-71484586D01*
X123264936Y-71484596D01*
X123244341Y-71719999D01*
X123244341Y-71720000D01*
X123264936Y-71955403D01*
X123264938Y-71955413D01*
X123326094Y-72183655D01*
X123326096Y-72183659D01*
X123326097Y-72183663D01*
X123401449Y-72345256D01*
X123425965Y-72397830D01*
X123425967Y-72397834D01*
X123516582Y-72527245D01*
X123561501Y-72591396D01*
X123561506Y-72591402D01*
X123728597Y-72758493D01*
X123728603Y-72758498D01*
X123914158Y-72888425D01*
X123957783Y-72943002D01*
X123964977Y-73012500D01*
X123933454Y-73074855D01*
X123914158Y-73091575D01*
X123728597Y-73221505D01*
X123561505Y-73388597D01*
X123425965Y-73582169D01*
X123425964Y-73582171D01*
X123326098Y-73796335D01*
X123326094Y-73796344D01*
X123264938Y-74024586D01*
X123264936Y-74024596D01*
X123244341Y-74259999D01*
X123244341Y-74260000D01*
X123264936Y-74495403D01*
X123264938Y-74495413D01*
X123326094Y-74723655D01*
X123326097Y-74723664D01*
X123332321Y-74737011D01*
X123360806Y-74798097D01*
X123371298Y-74867172D01*
X123342779Y-74930956D01*
X123284302Y-74969196D01*
X123248424Y-74974500D01*
X114876257Y-74974500D01*
X114809218Y-74954815D01*
X114803900Y-74951075D01*
X114802836Y-74950461D01*
X114656765Y-74889957D01*
X114656760Y-74889955D01*
X114539370Y-74874501D01*
X114539367Y-74874500D01*
X114539361Y-74874500D01*
X114539354Y-74874500D01*
X113474095Y-74874500D01*
X113407056Y-74854815D01*
X113361301Y-74802011D01*
X113351357Y-74732853D01*
X113380382Y-74669297D01*
X113386400Y-74662833D01*
X113391043Y-74658190D01*
X113403223Y-74647509D01*
X113428282Y-74628282D01*
X113450740Y-74599012D01*
X113507167Y-74557810D01*
X113549116Y-74550499D01*
X113947871Y-74550499D01*
X113947872Y-74550499D01*
X114007483Y-74544091D01*
X114142331Y-74493796D01*
X114257546Y-74407546D01*
X114343796Y-74292331D01*
X114394091Y-74157483D01*
X114400500Y-74097873D01*
X114400499Y-73984676D01*
X114420183Y-73917639D01*
X114472987Y-73871884D01*
X114542145Y-73861940D01*
X114589595Y-73879138D01*
X114709183Y-73952901D01*
X114872946Y-74007167D01*
X114974022Y-74017493D01*
X115547375Y-74017492D01*
X115547383Y-74017491D01*
X115547386Y-74017491D01*
X115620728Y-74009999D01*
X115648452Y-74007167D01*
X115812215Y-73952901D01*
X115959049Y-73862333D01*
X116081039Y-73740343D01*
X116171607Y-73593509D01*
X116225873Y-73429746D01*
X116236199Y-73328670D01*
X116236198Y-72630317D01*
X116233681Y-72605680D01*
X116225873Y-72529240D01*
X116207847Y-72474842D01*
X116171607Y-72365477D01*
X116081039Y-72218643D01*
X116066716Y-72204320D01*
X116033231Y-72142997D01*
X116038215Y-72073305D01*
X116066720Y-72028953D01*
X116080646Y-72015028D01*
X116171147Y-71868304D01*
X116171152Y-71868293D01*
X116225379Y-71704645D01*
X116235698Y-71603647D01*
X116235699Y-71603634D01*
X116235699Y-71504493D01*
X115134699Y-71504493D01*
X115067660Y-71484808D01*
X115021905Y-71432004D01*
X115010699Y-71380493D01*
X115010699Y-70216993D01*
X115510699Y-70216993D01*
X115510699Y-71004493D01*
X116235698Y-71004493D01*
X116235698Y-70905353D01*
X116235697Y-70905338D01*
X116225379Y-70804340D01*
X116171152Y-70640692D01*
X116171147Y-70640681D01*
X116080646Y-70493958D01*
X116080643Y-70493954D01*
X115958737Y-70372048D01*
X115958733Y-70372045D01*
X115812010Y-70281544D01*
X115811999Y-70281539D01*
X115648351Y-70227312D01*
X115547353Y-70216993D01*
X115510699Y-70216993D01*
X115010699Y-70216993D01*
X114974060Y-70216993D01*
X114974042Y-70216994D01*
X114873046Y-70227312D01*
X114709398Y-70281539D01*
X114709387Y-70281544D01*
X114559140Y-70374219D01*
X114491748Y-70392660D01*
X114425084Y-70371738D01*
X114406362Y-70356362D01*
X114400000Y-70350000D01*
X112874000Y-70350000D01*
X112806961Y-70330315D01*
X112761206Y-70277511D01*
X112750000Y-70226000D01*
X112750000Y-69974000D01*
X112769685Y-69906961D01*
X112822489Y-69861206D01*
X112874000Y-69850000D01*
X114400000Y-69850000D01*
X114400000Y-69002172D01*
X114399999Y-69002155D01*
X114393598Y-68942627D01*
X114393596Y-68942620D01*
X114343354Y-68807913D01*
X114343350Y-68807906D01*
X114257190Y-68692812D01*
X114257187Y-68692809D01*
X114142093Y-68606649D01*
X114142086Y-68606645D01*
X114007379Y-68556403D01*
X114007372Y-68556401D01*
X113947844Y-68550000D01*
X113431801Y-68550000D01*
X113364762Y-68530315D01*
X113319007Y-68477511D01*
X113309063Y-68408353D01*
X113326263Y-68360903D01*
X113378366Y-68276431D01*
X113378371Y-68276420D01*
X113432598Y-68112772D01*
X113442917Y-68011774D01*
X113442918Y-68011761D01*
X113442918Y-67975120D01*
X112279418Y-67975120D01*
X112212379Y-67955435D01*
X112166624Y-67902631D01*
X112155418Y-67851120D01*
X112155418Y-66750120D01*
X112655418Y-66750120D01*
X112655418Y-67475120D01*
X113442917Y-67475120D01*
X113442917Y-67438480D01*
X113442916Y-67438465D01*
X113432598Y-67337467D01*
X113378371Y-67173819D01*
X113378366Y-67173808D01*
X113287865Y-67027085D01*
X113287862Y-67027081D01*
X113165956Y-66905175D01*
X113165952Y-66905172D01*
X113019229Y-66814671D01*
X113019218Y-66814666D01*
X112855570Y-66760439D01*
X112754572Y-66750120D01*
X112655418Y-66750120D01*
X112155418Y-66750120D01*
X112155418Y-66750119D01*
X112056278Y-66750120D01*
X112056262Y-66750121D01*
X111955265Y-66760439D01*
X111791617Y-66814666D01*
X111791606Y-66814671D01*
X111644883Y-66905172D01*
X111630950Y-66919105D01*
X111569626Y-66952588D01*
X111499934Y-66947602D01*
X111455590Y-66919102D01*
X111441269Y-66904781D01*
X111441268Y-66904780D01*
X111307519Y-66822283D01*
X111294436Y-66814213D01*
X111294431Y-66814211D01*
X111292987Y-66813732D01*
X111130671Y-66759946D01*
X111130669Y-66759945D01*
X111029596Y-66749620D01*
X110331248Y-66749620D01*
X110331230Y-66749621D01*
X110230165Y-66759945D01*
X110066402Y-66814212D01*
X110066399Y-66814213D01*
X109919566Y-66904781D01*
X109797579Y-67026768D01*
X109707011Y-67173601D01*
X109707009Y-67173606D01*
X109695658Y-67207861D01*
X109652744Y-67337367D01*
X109652744Y-67337368D01*
X109652743Y-67337368D01*
X109642418Y-67438435D01*
X109642418Y-68011789D01*
X109642419Y-68011807D01*
X109652743Y-68112872D01*
X109679805Y-68194538D01*
X109707010Y-68276636D01*
X109758986Y-68360903D01*
X109765299Y-68371137D01*
X109783739Y-68438530D01*
X109762816Y-68505193D01*
X109709174Y-68549963D01*
X109699747Y-68553097D01*
X109699785Y-68553198D01*
X109557671Y-68606202D01*
X109557664Y-68606206D01*
X109442455Y-68692452D01*
X109442452Y-68692455D01*
X109356206Y-68807664D01*
X109356202Y-68807671D01*
X109305908Y-68942517D01*
X109299501Y-69002116D01*
X109299500Y-69002135D01*
X109299500Y-69115010D01*
X109279815Y-69182049D01*
X109227011Y-69227804D01*
X109157853Y-69237748D01*
X109110404Y-69220549D01*
X109021134Y-69165487D01*
X109021129Y-69165485D01*
X109021128Y-69165484D01*
X108857365Y-69111218D01*
X108857363Y-69111217D01*
X108756290Y-69100892D01*
X108182942Y-69100892D01*
X108182924Y-69100893D01*
X108081859Y-69111217D01*
X107918096Y-69165484D01*
X107918093Y-69165485D01*
X107771260Y-69256053D01*
X107649273Y-69378040D01*
X107558705Y-69524873D01*
X107558704Y-69524876D01*
X107504438Y-69688639D01*
X107504438Y-69688640D01*
X107504437Y-69688640D01*
X107494112Y-69789707D01*
X107494112Y-70388061D01*
X107494113Y-70388079D01*
X107504437Y-70489144D01*
X107523266Y-70545965D01*
X107558704Y-70652908D01*
X107625733Y-70761580D01*
X107649273Y-70799743D01*
X107763241Y-70913711D01*
X107796726Y-70975034D01*
X107791742Y-71044726D01*
X107763241Y-71089073D01*
X107649273Y-71203040D01*
X107558705Y-71349873D01*
X107558703Y-71349878D01*
X107531489Y-71432004D01*
X107504438Y-71513639D01*
X107504438Y-71513640D01*
X107504437Y-71513640D01*
X107494112Y-71614707D01*
X107494112Y-72213061D01*
X107494113Y-72213079D01*
X107504437Y-72314144D01*
X107540721Y-72423641D01*
X107558704Y-72477908D01*
X107649272Y-72624742D01*
X107771262Y-72746732D01*
X107810209Y-72770754D01*
X107856932Y-72822699D01*
X107869112Y-72876292D01*
X107869112Y-73922124D01*
X107868051Y-73938309D01*
X107863930Y-73969610D01*
X107863930Y-73969612D01*
X107870234Y-74017493D01*
X107870234Y-74017494D01*
X107884567Y-74126372D01*
X107884568Y-74126374D01*
X107892561Y-74145672D01*
X107945076Y-74272453D01*
X108040358Y-74396627D01*
X108041331Y-74397895D01*
X108066381Y-74417116D01*
X108078576Y-74427811D01*
X108313584Y-74662819D01*
X108347069Y-74724142D01*
X108342085Y-74793834D01*
X108300213Y-74849767D01*
X108234749Y-74874184D01*
X108225903Y-74874500D01*
X107600098Y-74874500D01*
X107533059Y-74854815D01*
X107512417Y-74838181D01*
X106236819Y-73562583D01*
X106203334Y-73501260D01*
X106200500Y-73474902D01*
X106200500Y-71190060D01*
X106220185Y-71123021D01*
X106253373Y-71088487D01*
X106406877Y-70981003D01*
X106561598Y-70826282D01*
X106687102Y-70647044D01*
X106779575Y-70448735D01*
X106836207Y-70237382D01*
X106855277Y-70019405D01*
X106853173Y-69995361D01*
X106849805Y-69956860D01*
X106836207Y-69801428D01*
X106793888Y-69643492D01*
X106779577Y-69590082D01*
X106779576Y-69590081D01*
X106779575Y-69590075D01*
X106687102Y-69391767D01*
X106687100Y-69391764D01*
X106687099Y-69391762D01*
X106561599Y-69212529D01*
X106494544Y-69145474D01*
X106406877Y-69057807D01*
X106395607Y-69049915D01*
X106253376Y-68950323D01*
X106209751Y-68895746D01*
X106200500Y-68848749D01*
X106200500Y-67274900D01*
X106220185Y-67207861D01*
X106259401Y-67169363D01*
X106298350Y-67145340D01*
X106420340Y-67023350D01*
X106510908Y-66876516D01*
X106565174Y-66712753D01*
X106575500Y-66611677D01*
X106575499Y-66013324D01*
X106574909Y-66007552D01*
X106565174Y-65912247D01*
X106534327Y-65819158D01*
X106510908Y-65748484D01*
X106420340Y-65601650D01*
X106306370Y-65487680D01*
X106272886Y-65426358D01*
X106277870Y-65356666D01*
X106306371Y-65312319D01*
X106345701Y-65272989D01*
X106420340Y-65198350D01*
X106510908Y-65051516D01*
X106565174Y-64887753D01*
X106575500Y-64786677D01*
X106575499Y-64188324D01*
X106565174Y-64087247D01*
X106510908Y-63923484D01*
X106420340Y-63776650D01*
X106298350Y-63654660D01*
X106151516Y-63564092D01*
X105987753Y-63509826D01*
X105987751Y-63509825D01*
X105886684Y-63499500D01*
X105886677Y-63499500D01*
X105512597Y-63499500D01*
X105445558Y-63479815D01*
X105424916Y-63463181D01*
X105196819Y-63235084D01*
X105163334Y-63173761D01*
X105160500Y-63147403D01*
X105160500Y-63089090D01*
X105180185Y-63022051D01*
X105232101Y-62976706D01*
X105237830Y-62974035D01*
X105431401Y-62838495D01*
X105553329Y-62716566D01*
X105614648Y-62683084D01*
X105684340Y-62688068D01*
X105740274Y-62729939D01*
X105757189Y-62760917D01*
X105806202Y-62892328D01*
X105806206Y-62892335D01*
X105892452Y-63007544D01*
X105892455Y-63007547D01*
X106007664Y-63093793D01*
X106007671Y-63093797D01*
X106142517Y-63144091D01*
X106142516Y-63144091D01*
X106149444Y-63144835D01*
X106202127Y-63150500D01*
X107997872Y-63150499D01*
X108057483Y-63144091D01*
X108192331Y-63093796D01*
X108307546Y-63007546D01*
X108393796Y-62892331D01*
X108444091Y-62757483D01*
X108450500Y-62697873D01*
X108450500Y-62624500D01*
X108470185Y-62557461D01*
X108522989Y-62511706D01*
X108574500Y-62500500D01*
X109258481Y-62500500D01*
X109325520Y-62520185D01*
G37*
G04 #@! TD.AperFunction*
G04 #@! TA.AperFunction,Conductor*
G36*
X102716313Y-65620185D02*
G01*
X102762068Y-65672989D01*
X102772012Y-65742147D01*
X102756661Y-65786500D01*
X102672821Y-65931715D01*
X102672818Y-65931722D01*
X102614327Y-66111740D01*
X102614326Y-66111744D01*
X102599500Y-66252808D01*
X102599500Y-66252811D01*
X102599500Y-71975638D01*
X102579815Y-72042677D01*
X102563181Y-72063319D01*
X101905880Y-72720619D01*
X101844557Y-72754104D01*
X101774865Y-72749120D01*
X101718932Y-72707248D01*
X101695612Y-72644727D01*
X101695329Y-72644772D01*
X101695107Y-72643371D01*
X101694515Y-72641784D01*
X101694369Y-72639423D01*
X101694313Y-72638358D01*
X101694313Y-72638355D01*
X101690685Y-72624814D01*
X101687139Y-72605688D01*
X101685674Y-72591744D01*
X101664708Y-72527221D01*
X101662872Y-72521017D01*
X101654724Y-72490606D01*
X101650499Y-72458515D01*
X101650499Y-71382129D01*
X101650498Y-71382123D01*
X101644091Y-71322516D01*
X101593797Y-71187671D01*
X101593793Y-71187664D01*
X101507547Y-71072455D01*
X101507544Y-71072452D01*
X101392335Y-70986206D01*
X101392328Y-70986202D01*
X101260917Y-70937189D01*
X101204983Y-70895318D01*
X101180566Y-70829853D01*
X101195418Y-70761580D01*
X101216563Y-70733332D01*
X101338495Y-70611401D01*
X101474035Y-70417830D01*
X101573903Y-70203663D01*
X101635063Y-69975408D01*
X101655659Y-69740000D01*
X101635063Y-69504592D01*
X101588626Y-69331285D01*
X101573905Y-69276344D01*
X101573904Y-69276343D01*
X101573903Y-69276337D01*
X101474035Y-69062171D01*
X101470980Y-69057807D01*
X101338494Y-68868597D01*
X101171402Y-68701506D01*
X101171401Y-68701505D01*
X100985405Y-68571269D01*
X100941781Y-68516692D01*
X100934588Y-68447193D01*
X100966110Y-68384839D01*
X100985405Y-68368119D01*
X101171082Y-68238105D01*
X101338105Y-68071082D01*
X101473600Y-67877578D01*
X101573429Y-67663492D01*
X101573432Y-67663486D01*
X101630636Y-67450000D01*
X100733686Y-67450000D01*
X100759493Y-67409844D01*
X100800000Y-67271889D01*
X100800000Y-67128111D01*
X100759493Y-66990156D01*
X100733686Y-66950000D01*
X101630636Y-66950000D01*
X101630635Y-66949999D01*
X101573432Y-66736513D01*
X101573429Y-66736507D01*
X101473600Y-66522422D01*
X101473599Y-66522420D01*
X101338113Y-66328926D01*
X101338108Y-66328920D01*
X101171082Y-66161894D01*
X100977578Y-66026399D01*
X100763492Y-65926570D01*
X100763486Y-65926567D01*
X100550000Y-65869364D01*
X100550000Y-66764498D01*
X100442315Y-66715320D01*
X100335763Y-66700000D01*
X100264237Y-66700000D01*
X100157685Y-66715320D01*
X100050000Y-66764498D01*
X100050000Y-65869364D01*
X100049999Y-65869364D01*
X99836513Y-65926567D01*
X99836507Y-65926570D01*
X99622422Y-66026399D01*
X99622420Y-66026400D01*
X99428926Y-66161886D01*
X99428920Y-66161891D01*
X99261891Y-66328920D01*
X99261886Y-66328926D01*
X99126400Y-66522420D01*
X99126399Y-66522422D01*
X99026570Y-66736507D01*
X99026567Y-66736513D01*
X98969364Y-66949999D01*
X98969364Y-66950000D01*
X99866314Y-66950000D01*
X99840507Y-66990156D01*
X99800000Y-67128111D01*
X99800000Y-67271889D01*
X99840507Y-67409844D01*
X99866314Y-67450000D01*
X98969364Y-67450000D01*
X99026567Y-67663486D01*
X99026570Y-67663492D01*
X99126399Y-67877578D01*
X99261894Y-68071082D01*
X99428917Y-68238105D01*
X99614595Y-68368119D01*
X99658219Y-68422696D01*
X99665412Y-68492195D01*
X99633890Y-68554549D01*
X99614595Y-68571269D01*
X99428597Y-68701506D01*
X99298768Y-68831334D01*
X99249406Y-68861583D01*
X99207246Y-68875282D01*
X99201023Y-68877125D01*
X99135515Y-68894678D01*
X99135503Y-68894683D01*
X99123022Y-68901043D01*
X99105049Y-68908488D01*
X99091715Y-68912820D01*
X99032997Y-68946722D01*
X99027294Y-68949819D01*
X98966853Y-68980616D01*
X98966837Y-68980626D01*
X98955948Y-68989444D01*
X98939923Y-69000458D01*
X98927785Y-69007466D01*
X98927781Y-69007469D01*
X98877376Y-69052852D01*
X98872452Y-69057058D01*
X98856627Y-69069875D01*
X98856609Y-69069891D01*
X98842211Y-69084288D01*
X98837508Y-69088751D01*
X98787114Y-69134126D01*
X98778869Y-69145474D01*
X98766236Y-69160263D01*
X97020263Y-70906236D01*
X97005474Y-70918869D01*
X96994126Y-70927114D01*
X96948751Y-70977508D01*
X96944288Y-70982211D01*
X96929891Y-70996609D01*
X96929875Y-70996627D01*
X96917058Y-71012452D01*
X96912852Y-71017376D01*
X96867469Y-71067781D01*
X96867466Y-71067785D01*
X96860458Y-71079923D01*
X96849444Y-71095948D01*
X96840618Y-71106847D01*
X96837364Y-71111859D01*
X96784342Y-71157361D01*
X96715136Y-71166973D01*
X96659060Y-71143587D01*
X96542335Y-71056206D01*
X96542329Y-71056203D01*
X96431166Y-71014741D01*
X96375233Y-70972869D01*
X96350816Y-70907405D01*
X96350500Y-70898559D01*
X96350500Y-67701439D01*
X96370185Y-67634400D01*
X96422989Y-67588645D01*
X96431168Y-67585257D01*
X96542326Y-67543798D01*
X96542326Y-67543797D01*
X96542331Y-67543796D01*
X96657546Y-67457546D01*
X96743796Y-67342331D01*
X96794091Y-67207483D01*
X96800500Y-67147873D01*
X96800499Y-66050096D01*
X96820184Y-65983058D01*
X96836818Y-65962416D01*
X97162416Y-65636819D01*
X97223739Y-65603334D01*
X97250097Y-65600500D01*
X102649274Y-65600500D01*
X102716313Y-65620185D01*
G37*
G04 #@! TD.AperFunction*
G04 #@! TA.AperFunction,Conductor*
G36*
X138742539Y-54020185D02*
G01*
X138788294Y-54072989D01*
X138799500Y-54124500D01*
X138799500Y-101175500D01*
X138779815Y-101242539D01*
X138727011Y-101288294D01*
X138675500Y-101299500D01*
X70024500Y-101299500D01*
X69957461Y-101279815D01*
X69911706Y-101227011D01*
X69900500Y-101175500D01*
X69900500Y-89349306D01*
X76009726Y-89349306D01*
X76009726Y-90072628D01*
X76019869Y-90171913D01*
X76073177Y-90332787D01*
X76073182Y-90332798D01*
X76162149Y-90477034D01*
X76162152Y-90477038D01*
X76281992Y-90596878D01*
X76281996Y-90596881D01*
X76426232Y-90685848D01*
X76426243Y-90685853D01*
X76587118Y-90739161D01*
X76686408Y-90749305D01*
X76709725Y-90749304D01*
X76709725Y-89349306D01*
X76009726Y-89349306D01*
X69900500Y-89349306D01*
X69900500Y-86200002D01*
X73044723Y-86200002D01*
X73051609Y-86278705D01*
X73061928Y-86396664D01*
X73063793Y-86417975D01*
X73063793Y-86417979D01*
X73120422Y-86629322D01*
X73120424Y-86629326D01*
X73120425Y-86629330D01*
X73141919Y-86675424D01*
X73212897Y-86827638D01*
X73223183Y-86842328D01*
X73338402Y-87006877D01*
X73493123Y-87161598D01*
X73672361Y-87287102D01*
X73870670Y-87379575D01*
X73870676Y-87379576D01*
X73870677Y-87379577D01*
X73891207Y-87385078D01*
X74082023Y-87436207D01*
X74252450Y-87451117D01*
X74299998Y-87455277D01*
X74300000Y-87455277D01*
X74300002Y-87455277D01*
X74328816Y-87452756D01*
X74517977Y-87436207D01*
X74582108Y-87419023D01*
X74651957Y-87420686D01*
X74701882Y-87451117D01*
X74741105Y-87490340D01*
X74751799Y-87502534D01*
X74771021Y-87527585D01*
X74771022Y-87527586D01*
X74771024Y-87527588D01*
X74855249Y-87592216D01*
X74896465Y-87623842D01*
X75042544Y-87684350D01*
X75109395Y-87693151D01*
X75199305Y-87704988D01*
X75199306Y-87704988D01*
X75230608Y-87700866D01*
X75246793Y-87699806D01*
X75956471Y-87699806D01*
X76023510Y-87719491D01*
X76069265Y-87772295D01*
X76079209Y-87841453D01*
X76074177Y-87862810D01*
X76019869Y-88026699D01*
X76009725Y-88125983D01*
X76009725Y-88849306D01*
X77085725Y-88849306D01*
X77152764Y-88868991D01*
X77198519Y-88921795D01*
X77209725Y-88973306D01*
X77209725Y-90056355D01*
X77190040Y-90123394D01*
X77179439Y-90137556D01*
X77167849Y-90150931D01*
X77167846Y-90150935D01*
X77108059Y-90281849D01*
X77087578Y-90424307D01*
X77087578Y-94549308D01*
X77092724Y-94621266D01*
X77092725Y-94621271D01*
X77133270Y-94759356D01*
X77133272Y-94759359D01*
X77211082Y-94880434D01*
X77319852Y-94974683D01*
X77450768Y-95034471D01*
X77593225Y-95054953D01*
X77593228Y-95054953D01*
X79326225Y-95054953D01*
X79398186Y-95049806D01*
X79398188Y-95049805D01*
X79398190Y-95049805D01*
X79536275Y-95009260D01*
X79536275Y-95009259D01*
X79536278Y-95009259D01*
X79657353Y-94931449D01*
X79751602Y-94822679D01*
X79811390Y-94691763D01*
X79831872Y-94549306D01*
X79831872Y-90873805D01*
X79851557Y-90806766D01*
X79904361Y-90761011D01*
X79955872Y-90749805D01*
X80233063Y-90749805D01*
X80233069Y-90749805D01*
X80233077Y-90749804D01*
X80233080Y-90749804D01*
X80288370Y-90744156D01*
X80332433Y-90739655D01*
X80493422Y-90686309D01*
X80637769Y-90597274D01*
X80757693Y-90477350D01*
X80846728Y-90333003D01*
X80900074Y-90172014D01*
X80903330Y-90140139D01*
X80929725Y-90075448D01*
X80986905Y-90035296D01*
X81026688Y-90028741D01*
X81260192Y-90028741D01*
X81327231Y-90048426D01*
X81372986Y-90101230D01*
X81376374Y-90109408D01*
X81414104Y-90210569D01*
X81414108Y-90210576D01*
X81500354Y-90325785D01*
X81500357Y-90325788D01*
X81615566Y-90412034D01*
X81615573Y-90412038D01*
X81742466Y-90459366D01*
X81798400Y-90501237D01*
X81806519Y-90513547D01*
X81824627Y-90544910D01*
X81827725Y-90550615D01*
X81861469Y-90616840D01*
X81859541Y-90617822D01*
X81876665Y-90675145D01*
X81857294Y-90742276D01*
X81804704Y-90788277D01*
X81796000Y-90791907D01*
X81757670Y-90806203D01*
X81757664Y-90806206D01*
X81642455Y-90892452D01*
X81642452Y-90892455D01*
X81556206Y-91007664D01*
X81556202Y-91007671D01*
X81505908Y-91142517D01*
X81499511Y-91202027D01*
X81499501Y-91202123D01*
X81499500Y-91202135D01*
X81499500Y-98797870D01*
X81499501Y-98797876D01*
X81505908Y-98857483D01*
X81556202Y-98992328D01*
X81556206Y-98992335D01*
X81642452Y-99107544D01*
X81642455Y-99107547D01*
X81757664Y-99193793D01*
X81757671Y-99193797D01*
X81892517Y-99244091D01*
X81892516Y-99244091D01*
X81899444Y-99244835D01*
X81952127Y-99250500D01*
X85047872Y-99250499D01*
X85107483Y-99244091D01*
X85242331Y-99193796D01*
X85357546Y-99107546D01*
X85400858Y-99049687D01*
X85456791Y-99007818D01*
X85500124Y-99000000D01*
X86499876Y-99000000D01*
X86566915Y-99019685D01*
X86599140Y-99049686D01*
X86642454Y-99107546D01*
X86688643Y-99142123D01*
X86757664Y-99193793D01*
X86757671Y-99193797D01*
X86892517Y-99244091D01*
X86892516Y-99244091D01*
X86899444Y-99244835D01*
X86952127Y-99250500D01*
X90047872Y-99250499D01*
X90107483Y-99244091D01*
X90242331Y-99193796D01*
X90357546Y-99107546D01*
X90443796Y-98992331D01*
X90494091Y-98857483D01*
X90500500Y-98797873D01*
X90500500Y-98762792D01*
X109748514Y-98762792D01*
X109748514Y-98799446D01*
X109758832Y-98900444D01*
X109813059Y-99064092D01*
X109813064Y-99064103D01*
X109903565Y-99210826D01*
X109903568Y-99210830D01*
X110025474Y-99332736D01*
X110025478Y-99332739D01*
X110172201Y-99423240D01*
X110172212Y-99423245D01*
X110335860Y-99477472D01*
X110436864Y-99487791D01*
X110536013Y-99487790D01*
X110536013Y-98762792D01*
X109748514Y-98762792D01*
X90500500Y-98762792D01*
X90500499Y-96350000D01*
X100170669Y-96350000D01*
X100170669Y-96386654D01*
X100180987Y-96487652D01*
X100235214Y-96651300D01*
X100235219Y-96651311D01*
X100325720Y-96798034D01*
X100325723Y-96798038D01*
X100447629Y-96919944D01*
X100447633Y-96919947D01*
X100594356Y-97010448D01*
X100594367Y-97010453D01*
X100758015Y-97064680D01*
X100859019Y-97074999D01*
X100908167Y-97074998D01*
X100908168Y-97074998D01*
X100908168Y-96350000D01*
X100170669Y-96350000D01*
X90500499Y-96350000D01*
X90500499Y-94370965D01*
X97573494Y-94370965D01*
X97573494Y-94470119D01*
X97583812Y-94571117D01*
X97638039Y-94734765D01*
X97638044Y-94734776D01*
X97728545Y-94881499D01*
X97728548Y-94881503D01*
X97850454Y-95003409D01*
X97850458Y-95003412D01*
X97997181Y-95093913D01*
X97997192Y-95093918D01*
X98160840Y-95148145D01*
X98261845Y-95158464D01*
X98298493Y-95158464D01*
X98298493Y-94370965D01*
X97573494Y-94370965D01*
X90500499Y-94370965D01*
X90500499Y-91202128D01*
X90494091Y-91142517D01*
X90492764Y-91138960D01*
X90443797Y-91007671D01*
X90443793Y-91007664D01*
X90357547Y-90892455D01*
X90357544Y-90892452D01*
X90242335Y-90806206D01*
X90242328Y-90806202D01*
X90107482Y-90755908D01*
X90107483Y-90755908D01*
X90047883Y-90749501D01*
X90047881Y-90749500D01*
X90047873Y-90749500D01*
X90047865Y-90749500D01*
X89524500Y-90749500D01*
X89457461Y-90729815D01*
X89411706Y-90677011D01*
X89400500Y-90625500D01*
X89400500Y-90224360D01*
X89420185Y-90157321D01*
X89436814Y-90136684D01*
X91679737Y-87893760D01*
X91694525Y-87881130D01*
X91705871Y-87872888D01*
X91751264Y-87822472D01*
X91755696Y-87817801D01*
X91770119Y-87803380D01*
X91782945Y-87787540D01*
X91787117Y-87782654D01*
X91832533Y-87732216D01*
X91839538Y-87720080D01*
X91850570Y-87704031D01*
X91859381Y-87693151D01*
X91859383Y-87693149D01*
X91890185Y-87632693D01*
X91893248Y-87627051D01*
X91927179Y-87568284D01*
X91931509Y-87554956D01*
X91938960Y-87536969D01*
X91945319Y-87524490D01*
X91945319Y-87524489D01*
X91945320Y-87524488D01*
X91962880Y-87458947D01*
X91964699Y-87452804D01*
X91985674Y-87388256D01*
X91987139Y-87374307D01*
X91990684Y-87355183D01*
X91994312Y-87341646D01*
X91997862Y-87273906D01*
X91998370Y-87267455D01*
X92000499Y-87247197D01*
X92000500Y-87247191D01*
X92000500Y-87226819D01*
X92000670Y-87220329D01*
X92004219Y-87152612D01*
X92002027Y-87138772D01*
X92000500Y-87119373D01*
X92000500Y-85948071D01*
X92020185Y-85881032D01*
X92072989Y-85835277D01*
X92142147Y-85825333D01*
X92165455Y-85831030D01*
X92320737Y-85885366D01*
X92320743Y-85885367D01*
X92320745Y-85885368D01*
X92320746Y-85885368D01*
X92320750Y-85885369D01*
X92499996Y-85905565D01*
X92500000Y-85905565D01*
X92500004Y-85905565D01*
X92679249Y-85885369D01*
X92679252Y-85885368D01*
X92679255Y-85885368D01*
X92849522Y-85825789D01*
X92850488Y-85825181D01*
X92859523Y-85819506D01*
X92925494Y-85800500D01*
X95274506Y-85800500D01*
X95340477Y-85819506D01*
X95350474Y-85825787D01*
X95350475Y-85825787D01*
X95350478Y-85825789D01*
X95518822Y-85884695D01*
X95520745Y-85885368D01*
X95520750Y-85885369D01*
X95699996Y-85905565D01*
X95700000Y-85905565D01*
X95700004Y-85905565D01*
X95861617Y-85887356D01*
X95930439Y-85899411D01*
X95981818Y-85946760D01*
X95999500Y-86010576D01*
X95999500Y-87375078D01*
X95999274Y-87382566D01*
X95997069Y-87419023D01*
X95995642Y-87442606D01*
X95996591Y-87447783D01*
X96006483Y-87501770D01*
X96007610Y-87509171D01*
X96014859Y-87568871D01*
X96014860Y-87568874D01*
X96018451Y-87578343D01*
X96024474Y-87599946D01*
X96026304Y-87609930D01*
X96026305Y-87609932D01*
X96046821Y-87655518D01*
X96050991Y-87664782D01*
X96053854Y-87671694D01*
X96075182Y-87727930D01*
X96079826Y-87734657D01*
X96080936Y-87736266D01*
X96091961Y-87755813D01*
X96096120Y-87765055D01*
X96096124Y-87765060D01*
X96133215Y-87812403D01*
X96137655Y-87818438D01*
X96171812Y-87867924D01*
X96171816Y-87867929D01*
X96216828Y-87907805D01*
X96222283Y-87912940D01*
X97811674Y-89502331D01*
X97845159Y-89563654D01*
X97847993Y-89590012D01*
X97847993Y-91463913D01*
X97828308Y-91530952D01*
X97811674Y-91551594D01*
X97728154Y-91635113D01*
X97637586Y-91781946D01*
X97637585Y-91781949D01*
X97583319Y-91945712D01*
X97583319Y-91945713D01*
X97583318Y-91945713D01*
X97572993Y-92046780D01*
X97572993Y-92745134D01*
X97572994Y-92745152D01*
X97583318Y-92846217D01*
X97611498Y-92931256D01*
X97637585Y-93009981D01*
X97725891Y-93153148D01*
X97728154Y-93156816D01*
X97742475Y-93171137D01*
X97775960Y-93232460D01*
X97770976Y-93302152D01*
X97742478Y-93346497D01*
X97728545Y-93360430D01*
X97638044Y-93507153D01*
X97638039Y-93507164D01*
X97583812Y-93670812D01*
X97573493Y-93771810D01*
X97573493Y-93870965D01*
X98674493Y-93870965D01*
X98741532Y-93890650D01*
X98787287Y-93943454D01*
X98798493Y-93994965D01*
X98798493Y-95158464D01*
X98835133Y-95158464D01*
X98835147Y-95158463D01*
X98936145Y-95148145D01*
X99099793Y-95093918D01*
X99099804Y-95093913D01*
X99246527Y-95003412D01*
X99246531Y-95003409D01*
X99368436Y-94881504D01*
X99453556Y-94743504D01*
X99505504Y-94696780D01*
X99574467Y-94685557D01*
X99638549Y-94713401D01*
X99665827Y-94745480D01*
X99705084Y-94811861D01*
X99705091Y-94811870D01*
X99821297Y-94928076D01*
X99821301Y-94928079D01*
X99821303Y-94928081D01*
X99962770Y-95011744D01*
X99986341Y-95018592D01*
X100120594Y-95057597D01*
X100120597Y-95057597D01*
X100120599Y-95057598D01*
X100157474Y-95060500D01*
X100157482Y-95060500D01*
X100368555Y-95060500D01*
X100435594Y-95080185D01*
X100481349Y-95132989D01*
X100491293Y-95202147D01*
X100462268Y-95265703D01*
X100452669Y-95274880D01*
X100452737Y-95274948D01*
X100325723Y-95401961D01*
X100325720Y-95401965D01*
X100235219Y-95548688D01*
X100235214Y-95548699D01*
X100180987Y-95712347D01*
X100170668Y-95813345D01*
X100170668Y-95850000D01*
X101284168Y-95850000D01*
X101351207Y-95869685D01*
X101396962Y-95922489D01*
X101408168Y-95974000D01*
X101408168Y-97074999D01*
X101457308Y-97074999D01*
X101457322Y-97074998D01*
X101558320Y-97064680D01*
X101721968Y-97010453D01*
X101721979Y-97010448D01*
X101868701Y-96919948D01*
X101982632Y-96806017D01*
X102043955Y-96772532D01*
X102113647Y-96777516D01*
X102157995Y-96806017D01*
X102272318Y-96920340D01*
X102419152Y-97010908D01*
X102582915Y-97065174D01*
X102683991Y-97075500D01*
X103282344Y-97075499D01*
X103282352Y-97075498D01*
X103282355Y-97075498D01*
X103337698Y-97069844D01*
X103383421Y-97065174D01*
X103547184Y-97010908D01*
X103694018Y-96920340D01*
X103816008Y-96798350D01*
X103906576Y-96651516D01*
X103960842Y-96487753D01*
X103971168Y-96386677D01*
X103971167Y-95813324D01*
X103960842Y-95712247D01*
X103906576Y-95548484D01*
X103816008Y-95401650D01*
X103694018Y-95279660D01*
X103694015Y-95279658D01*
X103694014Y-95279657D01*
X103670069Y-95264887D01*
X103623345Y-95212938D01*
X103611168Y-95159350D01*
X103611168Y-95154932D01*
X103630853Y-95087893D01*
X103683657Y-95042138D01*
X103700561Y-95035859D01*
X103783566Y-95011744D01*
X103925033Y-94928081D01*
X103956294Y-94896820D01*
X104017616Y-94863334D01*
X104043976Y-94860500D01*
X104169041Y-94860500D01*
X104236080Y-94880185D01*
X104256722Y-94896819D01*
X104372318Y-95012415D01*
X104519152Y-95102983D01*
X104682915Y-95157249D01*
X104783991Y-95167575D01*
X105357344Y-95167574D01*
X105357352Y-95167573D01*
X105357355Y-95167573D01*
X105437853Y-95159350D01*
X105458421Y-95157249D01*
X105622184Y-95102983D01*
X105769018Y-95012415D01*
X105891008Y-94890425D01*
X105942144Y-94807521D01*
X105994090Y-94760798D01*
X106063052Y-94749575D01*
X106127135Y-94777418D01*
X106153219Y-94807521D01*
X106200093Y-94883515D01*
X106322000Y-95005422D01*
X106322004Y-95005425D01*
X106468727Y-95095926D01*
X106468738Y-95095931D01*
X106632386Y-95150158D01*
X106733391Y-95160477D01*
X106770039Y-95160477D01*
X106770039Y-94372978D01*
X107270039Y-94372978D01*
X107270039Y-95160477D01*
X107306679Y-95160477D01*
X107306693Y-95160476D01*
X107407691Y-95150158D01*
X107571339Y-95095931D01*
X107571350Y-95095926D01*
X107718073Y-95005425D01*
X107718077Y-95005422D01*
X107839983Y-94883516D01*
X107839986Y-94883512D01*
X107930487Y-94736789D01*
X107930492Y-94736778D01*
X107984719Y-94573130D01*
X107995038Y-94472132D01*
X107995039Y-94472119D01*
X107995039Y-94372978D01*
X107270039Y-94372978D01*
X106770039Y-94372978D01*
X106770039Y-93996978D01*
X106789724Y-93929939D01*
X106842528Y-93884184D01*
X106894039Y-93872978D01*
X107995038Y-93872978D01*
X107995038Y-93773838D01*
X107995037Y-93773823D01*
X107984719Y-93672825D01*
X107930492Y-93509177D01*
X107930489Y-93509170D01*
X107917169Y-93487576D01*
X107898728Y-93420184D01*
X107919650Y-93353520D01*
X107973291Y-93308750D01*
X108022707Y-93298478D01*
X108134590Y-93298478D01*
X108141077Y-93298648D01*
X108146461Y-93298930D01*
X108181989Y-93300791D01*
X108247905Y-93323955D01*
X108290835Y-93379081D01*
X108299500Y-93424621D01*
X108299500Y-96375078D01*
X108299274Y-96382566D01*
X108295642Y-96442603D01*
X108295642Y-96442605D01*
X108306483Y-96501770D01*
X108307610Y-96509171D01*
X108314859Y-96568871D01*
X108314860Y-96568874D01*
X108318451Y-96578343D01*
X108324474Y-96599946D01*
X108326304Y-96609930D01*
X108350991Y-96664782D01*
X108353854Y-96671694D01*
X108375182Y-96727930D01*
X108375183Y-96727931D01*
X108380936Y-96736266D01*
X108391961Y-96755813D01*
X108396120Y-96765055D01*
X108396124Y-96765060D01*
X108433215Y-96812403D01*
X108437655Y-96818438D01*
X108471812Y-96867924D01*
X108471816Y-96867929D01*
X108516828Y-96907805D01*
X108522283Y-96912940D01*
X109087058Y-97477715D01*
X109092178Y-97483153D01*
X109132071Y-97528183D01*
X109132073Y-97528185D01*
X109181563Y-97562345D01*
X109187569Y-97566763D01*
X109234943Y-97603878D01*
X109244180Y-97608035D01*
X109263726Y-97619058D01*
X109272070Y-97624818D01*
X109328317Y-97646149D01*
X109335223Y-97649010D01*
X109390068Y-97673694D01*
X109400030Y-97675519D01*
X109421651Y-97681546D01*
X109431125Y-97685139D01*
X109431128Y-97685140D01*
X109454444Y-97687971D01*
X109490830Y-97692389D01*
X109498235Y-97693516D01*
X109519400Y-97697394D01*
X109557394Y-97704357D01*
X109617423Y-97700726D01*
X109624910Y-97700500D01*
X109751865Y-97700500D01*
X109818904Y-97720185D01*
X109864659Y-97772989D01*
X109874603Y-97842147D01*
X109857404Y-97889597D01*
X109813061Y-97961486D01*
X109813059Y-97961491D01*
X109758832Y-98125139D01*
X109748513Y-98226137D01*
X109748513Y-98262792D01*
X110912013Y-98262792D01*
X110979052Y-98282477D01*
X111024807Y-98335281D01*
X111036013Y-98386792D01*
X111036013Y-99487791D01*
X111135153Y-99487791D01*
X111135167Y-99487790D01*
X111236165Y-99477472D01*
X111399813Y-99423245D01*
X111399824Y-99423240D01*
X111546548Y-99332739D01*
X111560473Y-99318813D01*
X111621795Y-99285325D01*
X111691486Y-99290306D01*
X111735840Y-99318809D01*
X111750163Y-99333132D01*
X111896997Y-99423700D01*
X112060760Y-99477966D01*
X112161836Y-99488292D01*
X112860189Y-99488291D01*
X112860197Y-99488290D01*
X112860200Y-99488290D01*
X112915543Y-99482636D01*
X112961266Y-99477966D01*
X113125029Y-99423700D01*
X113271863Y-99333132D01*
X113393853Y-99211142D01*
X113417875Y-99172196D01*
X113469823Y-99125471D01*
X113523414Y-99113292D01*
X114788604Y-99113292D01*
X114855643Y-99132977D01*
X114899692Y-99182198D01*
X114932967Y-99249292D01*
X114932969Y-99249295D01*
X115052277Y-99397721D01*
X115052278Y-99397722D01*
X115200704Y-99517030D01*
X115200707Y-99517032D01*
X115371302Y-99601639D01*
X115371303Y-99601639D01*
X115371307Y-99601641D01*
X115556111Y-99647600D01*
X115598877Y-99650500D01*
X117001122Y-99650499D01*
X117043889Y-99647600D01*
X117228693Y-99601641D01*
X117399296Y-99517030D01*
X117547722Y-99397722D01*
X117667030Y-99249296D01*
X117751641Y-99078693D01*
X117797600Y-98893889D01*
X117800500Y-98851123D01*
X117800499Y-97948878D01*
X117797600Y-97906111D01*
X117751641Y-97721307D01*
X117733703Y-97685139D01*
X117667032Y-97550707D01*
X117667030Y-97550704D01*
X117547722Y-97402278D01*
X117547721Y-97402277D01*
X117478514Y-97346647D01*
X117438595Y-97289304D01*
X117436015Y-97219482D01*
X117471594Y-97159349D01*
X117478514Y-97153353D01*
X117493910Y-97140977D01*
X117547722Y-97097722D01*
X117588644Y-97046813D01*
X117645987Y-97006894D01*
X117685291Y-97000500D01*
X118219373Y-97000500D01*
X118238772Y-97002027D01*
X118252612Y-97004219D01*
X118320337Y-97000670D01*
X118326826Y-97000500D01*
X118347191Y-97000500D01*
X118347192Y-97000500D01*
X118358393Y-96999322D01*
X118367448Y-96998371D01*
X118373906Y-96997862D01*
X118441646Y-96994313D01*
X118455187Y-96990683D01*
X118474313Y-96987138D01*
X118488256Y-96985674D01*
X118552786Y-96964706D01*
X118558951Y-96962880D01*
X118624488Y-96945320D01*
X118636976Y-96938956D01*
X118654950Y-96931510D01*
X118668284Y-96927179D01*
X118727051Y-96893248D01*
X118732693Y-96890185D01*
X118793149Y-96859383D01*
X118804031Y-96850569D01*
X118820083Y-96839537D01*
X118832216Y-96832533D01*
X118882654Y-96787117D01*
X118887540Y-96782945D01*
X118903380Y-96770119D01*
X118917801Y-96755696D01*
X118922472Y-96751264D01*
X118972888Y-96705871D01*
X118981130Y-96694525D01*
X118993762Y-96679736D01*
X119212318Y-96461180D01*
X119273641Y-96427695D01*
X119343333Y-96432679D01*
X119387680Y-96461180D01*
X119606236Y-96679736D01*
X119618871Y-96694529D01*
X119627110Y-96705869D01*
X119627115Y-96705875D01*
X119677504Y-96751244D01*
X119682197Y-96755697D01*
X119696620Y-96770120D01*
X119712456Y-96782943D01*
X119717375Y-96787145D01*
X119729820Y-96798350D01*
X119767784Y-96832533D01*
X119779920Y-96839540D01*
X119795952Y-96850557D01*
X119806851Y-96859383D01*
X119806852Y-96859383D01*
X119806854Y-96859385D01*
X119867281Y-96890174D01*
X119872988Y-96893272D01*
X119931716Y-96927179D01*
X119945051Y-96931511D01*
X119963018Y-96938953D01*
X119975513Y-96945320D01*
X120041031Y-96962875D01*
X120047217Y-96964707D01*
X120111744Y-96985674D01*
X120125688Y-96987139D01*
X120144814Y-96990685D01*
X120154441Y-96993264D01*
X120158355Y-96994313D01*
X120226098Y-96997862D01*
X120232552Y-96998371D01*
X120241379Y-96999298D01*
X120252808Y-97000500D01*
X120273175Y-97000500D01*
X120279664Y-97000670D01*
X120347388Y-97004219D01*
X120361228Y-97002027D01*
X120380627Y-97000500D01*
X120975501Y-97000500D01*
X121042540Y-97020185D01*
X121088295Y-97072989D01*
X121099501Y-97124500D01*
X121099501Y-97558034D01*
X121110113Y-97677415D01*
X121166089Y-97873045D01*
X121166090Y-97873048D01*
X121166091Y-97873049D01*
X121260302Y-98053407D01*
X121260304Y-98053409D01*
X121388890Y-98211109D01*
X121407294Y-98226115D01*
X121546593Y-98339698D01*
X121726951Y-98433909D01*
X121922582Y-98489886D01*
X122041963Y-98500500D01*
X123158036Y-98500499D01*
X123277418Y-98489886D01*
X123473049Y-98433909D01*
X123653407Y-98339698D01*
X123811109Y-98211109D01*
X123939698Y-98053407D01*
X124033909Y-97873049D01*
X124089886Y-97677418D01*
X124100500Y-97558037D01*
X124100500Y-97124500D01*
X124120185Y-97057461D01*
X124172989Y-97011706D01*
X124224500Y-97000500D01*
X124609600Y-97000500D01*
X124674696Y-97018961D01*
X124767789Y-97076381D01*
X124767790Y-97076381D01*
X124767796Y-97076385D01*
X124931559Y-97130651D01*
X125032635Y-97140977D01*
X125605988Y-97140976D01*
X125605996Y-97140975D01*
X125605999Y-97140975D01*
X125661342Y-97135321D01*
X125707065Y-97130651D01*
X125870828Y-97076385D01*
X126017662Y-96985817D01*
X126139652Y-96863827D01*
X126230220Y-96716993D01*
X126284486Y-96553230D01*
X126294812Y-96452154D01*
X126294811Y-95753801D01*
X126290576Y-95712347D01*
X126284486Y-95652724D01*
X126250015Y-95548699D01*
X126230220Y-95488961D01*
X126139652Y-95342127D01*
X126125329Y-95327804D01*
X126091844Y-95266481D01*
X126096828Y-95196789D01*
X126125333Y-95152437D01*
X126139259Y-95138512D01*
X126229760Y-94991788D01*
X126229765Y-94991777D01*
X126283992Y-94828129D01*
X126294311Y-94727131D01*
X126294312Y-94727118D01*
X126294312Y-94627977D01*
X124344313Y-94627977D01*
X124328267Y-94644022D01*
X124324628Y-94656417D01*
X124299740Y-94677982D01*
X124305702Y-94680705D01*
X124343476Y-94739483D01*
X124347857Y-94761817D01*
X124354630Y-94828128D01*
X124408858Y-94991777D01*
X124408862Y-94991786D01*
X124420346Y-95010404D01*
X124438786Y-95077797D01*
X124417863Y-95144460D01*
X124364221Y-95189229D01*
X124314807Y-95199500D01*
X124224499Y-95199500D01*
X124157460Y-95179815D01*
X124111705Y-95127011D01*
X124100499Y-95075500D01*
X124100499Y-94774418D01*
X124120184Y-94707379D01*
X124145071Y-94685813D01*
X124139110Y-94683091D01*
X124101336Y-94624313D01*
X124096800Y-94600358D01*
X124094379Y-94573130D01*
X124089886Y-94522582D01*
X124033909Y-94326951D01*
X123939698Y-94146593D01*
X123924519Y-94127977D01*
X124344312Y-94127977D01*
X125069312Y-94127977D01*
X125069312Y-93340477D01*
X125569312Y-93340477D01*
X125569312Y-94127977D01*
X126294311Y-94127977D01*
X126294311Y-94028837D01*
X126294310Y-94028822D01*
X126283992Y-93927824D01*
X126229765Y-93764176D01*
X126229760Y-93764165D01*
X126139259Y-93617442D01*
X126139256Y-93617438D01*
X126017350Y-93495532D01*
X126017346Y-93495529D01*
X125870623Y-93405028D01*
X125870612Y-93405023D01*
X125706964Y-93350796D01*
X125605966Y-93340477D01*
X125569312Y-93340477D01*
X125069312Y-93340477D01*
X125032673Y-93340477D01*
X125032655Y-93340478D01*
X124931659Y-93350796D01*
X124768011Y-93405023D01*
X124768000Y-93405028D01*
X124621277Y-93495529D01*
X124621273Y-93495532D01*
X124499367Y-93617438D01*
X124499364Y-93617442D01*
X124408863Y-93764165D01*
X124408858Y-93764176D01*
X124354631Y-93927824D01*
X124344312Y-94028822D01*
X124344312Y-94127977D01*
X123924519Y-94127977D01*
X123843681Y-94028837D01*
X123811109Y-93988890D01*
X123653409Y-93860304D01*
X123653410Y-93860304D01*
X123653407Y-93860302D01*
X123473049Y-93766091D01*
X123473048Y-93766090D01*
X123473045Y-93766089D01*
X123355829Y-93732550D01*
X123277418Y-93710114D01*
X123277415Y-93710113D01*
X123277413Y-93710113D01*
X123211102Y-93704217D01*
X123158037Y-93699500D01*
X123158032Y-93699500D01*
X122041971Y-93699500D01*
X122041965Y-93699500D01*
X122041964Y-93699501D01*
X122030316Y-93700536D01*
X121922584Y-93710113D01*
X121726954Y-93766089D01*
X121636772Y-93813196D01*
X121546593Y-93860302D01*
X121546591Y-93860303D01*
X121546590Y-93860304D01*
X121388890Y-93988890D01*
X121260304Y-94146590D01*
X121166089Y-94326954D01*
X121124304Y-94472989D01*
X121110783Y-94520246D01*
X121110114Y-94522583D01*
X121110113Y-94522586D01*
X121105799Y-94571117D01*
X121100744Y-94627977D01*
X121099500Y-94641966D01*
X121099500Y-95075500D01*
X121079815Y-95142539D01*
X121027011Y-95188294D01*
X120975500Y-95199500D01*
X120724362Y-95199500D01*
X120657323Y-95179815D01*
X120636681Y-95163181D01*
X120236819Y-94763319D01*
X120203334Y-94701996D01*
X120200500Y-94675638D01*
X120200500Y-93280626D01*
X120202027Y-93261225D01*
X120203001Y-93255075D01*
X120204219Y-93247388D01*
X120200670Y-93179663D01*
X120200500Y-93173174D01*
X120200500Y-93152809D01*
X120200499Y-93152800D01*
X120198371Y-93132552D01*
X120197862Y-93126098D01*
X120194313Y-93058355D01*
X120192839Y-93052853D01*
X120190685Y-93044814D01*
X120187139Y-93025688D01*
X120185674Y-93011744D01*
X120164710Y-92947227D01*
X120162871Y-92941015D01*
X120162310Y-92938922D01*
X120145320Y-92875512D01*
X120138956Y-92863022D01*
X120131511Y-92845050D01*
X120127179Y-92831716D01*
X120110183Y-92802278D01*
X120093265Y-92772975D01*
X120090178Y-92767292D01*
X120059383Y-92706851D01*
X120059382Y-92706849D01*
X120050560Y-92695955D01*
X120039538Y-92679918D01*
X120032532Y-92667783D01*
X120032531Y-92667781D01*
X119987146Y-92617376D01*
X119982931Y-92612441D01*
X119970119Y-92596620D01*
X119955706Y-92582207D01*
X119951254Y-92577515D01*
X119905872Y-92527113D01*
X119895516Y-92519589D01*
X119894525Y-92518869D01*
X119879734Y-92506235D01*
X116016819Y-88643320D01*
X115983334Y-88581997D01*
X115980500Y-88555639D01*
X115980500Y-87151439D01*
X116000185Y-87084400D01*
X116052989Y-87038645D01*
X116061168Y-87035257D01*
X116172326Y-86993798D01*
X116172326Y-86993797D01*
X116172331Y-86993796D01*
X116287546Y-86907546D01*
X116373796Y-86792331D01*
X116424091Y-86657483D01*
X116430500Y-86597873D01*
X116430499Y-84802128D01*
X116424091Y-84742517D01*
X116423130Y-84739941D01*
X116373797Y-84607671D01*
X116373793Y-84607664D01*
X116287547Y-84492455D01*
X116287544Y-84492452D01*
X116172335Y-84406206D01*
X116172328Y-84406202D01*
X116037482Y-84355908D01*
X116037483Y-84355908D01*
X115977883Y-84349501D01*
X115977881Y-84349500D01*
X115977873Y-84349500D01*
X115977864Y-84349500D01*
X114182129Y-84349500D01*
X114182123Y-84349501D01*
X114122516Y-84355908D01*
X113987671Y-84406202D01*
X113987664Y-84406206D01*
X113872455Y-84492452D01*
X113872452Y-84492455D01*
X113786206Y-84607664D01*
X113786203Y-84607669D01*
X113737189Y-84739083D01*
X113695317Y-84795016D01*
X113629853Y-84819433D01*
X113561580Y-84804581D01*
X113533326Y-84783430D01*
X113411402Y-84661506D01*
X113411395Y-84661501D01*
X113408657Y-84659584D01*
X113334518Y-84607671D01*
X113217834Y-84525967D01*
X113217830Y-84525965D01*
X113158852Y-84498463D01*
X113003663Y-84426097D01*
X113003659Y-84426096D01*
X113003655Y-84426094D01*
X112775413Y-84364938D01*
X112775403Y-84364936D01*
X112540001Y-84344341D01*
X112539999Y-84344341D01*
X112304596Y-84364936D01*
X112304586Y-84364938D01*
X112076344Y-84426094D01*
X112076335Y-84426098D01*
X111862171Y-84525964D01*
X111795622Y-84572562D01*
X111729416Y-84594889D01*
X111661649Y-84577877D01*
X111613837Y-84526929D01*
X111600500Y-84470986D01*
X111600500Y-81683062D01*
X111620185Y-81616023D01*
X111672989Y-81570268D01*
X111742147Y-81560324D01*
X111765448Y-81566018D01*
X111820745Y-81585368D01*
X111820748Y-81585368D01*
X111820750Y-81585369D01*
X111999996Y-81605565D01*
X112000000Y-81605565D01*
X112000004Y-81605565D01*
X112179249Y-81585369D01*
X112179252Y-81585368D01*
X112179255Y-81585368D01*
X112349522Y-81525789D01*
X112435122Y-81472002D01*
X112502358Y-81453002D01*
X112569193Y-81473369D01*
X112614407Y-81526637D01*
X112624033Y-81560812D01*
X112639954Y-81681753D01*
X112639956Y-81681762D01*
X112694992Y-81814632D01*
X112700464Y-81827841D01*
X112796718Y-81953282D01*
X112922159Y-82049536D01*
X113068238Y-82110044D01*
X113185639Y-82125500D01*
X114539360Y-82125499D01*
X114539363Y-82125499D01*
X114656753Y-82110046D01*
X114656757Y-82110044D01*
X114656762Y-82110044D01*
X114802841Y-82049536D01*
X114802845Y-82049532D01*
X114809876Y-82045474D01*
X114810882Y-82047216D01*
X114865932Y-82025931D01*
X114876257Y-82025500D01*
X119224903Y-82025500D01*
X119291942Y-82045185D01*
X119312584Y-82061819D01*
X119663181Y-82412416D01*
X119696666Y-82473739D01*
X119699500Y-82500097D01*
X119699500Y-86929345D01*
X119679815Y-86996384D01*
X119646623Y-87030920D01*
X119493121Y-87138402D01*
X119338402Y-87293121D01*
X119212900Y-87472357D01*
X119212898Y-87472361D01*
X119134199Y-87641131D01*
X119120696Y-87670090D01*
X119120426Y-87670668D01*
X119120422Y-87670677D01*
X119063793Y-87882020D01*
X119063793Y-87882024D01*
X119047773Y-88065142D01*
X119044723Y-88100000D01*
X119063386Y-88313330D01*
X119063793Y-88317975D01*
X119063793Y-88317979D01*
X119120422Y-88529322D01*
X119120424Y-88529326D01*
X119120425Y-88529330D01*
X119132693Y-88555639D01*
X119212897Y-88727638D01*
X119212898Y-88727639D01*
X119338402Y-88906877D01*
X119493123Y-89061598D01*
X119672361Y-89187102D01*
X119870670Y-89279575D01*
X119870676Y-89279576D01*
X119870677Y-89279577D01*
X119879720Y-89282000D01*
X120082023Y-89336207D01*
X120264926Y-89352208D01*
X120299998Y-89355277D01*
X120300000Y-89355277D01*
X120300002Y-89355277D01*
X120328254Y-89352805D01*
X120517977Y-89336207D01*
X120729330Y-89279575D01*
X120927639Y-89187102D01*
X121106877Y-89061598D01*
X121261598Y-88906877D01*
X121369081Y-88753374D01*
X121423657Y-88709751D01*
X121470655Y-88700500D01*
X121960030Y-88700500D01*
X122027069Y-88720185D01*
X122047711Y-88736819D01*
X122070110Y-88759218D01*
X122070114Y-88759221D01*
X122070116Y-88759223D01*
X122211583Y-88842886D01*
X122253205Y-88854978D01*
X122369407Y-88888739D01*
X122369410Y-88888739D01*
X122369412Y-88888740D01*
X122406287Y-88891642D01*
X122406295Y-88891642D01*
X123712667Y-88891642D01*
X123712675Y-88891642D01*
X123749550Y-88888740D01*
X123749552Y-88888739D01*
X123749554Y-88888739D01*
X123791172Y-88876647D01*
X123907379Y-88842886D01*
X124048846Y-88759223D01*
X124165062Y-88643007D01*
X124248725Y-88501540D01*
X124294579Y-88343711D01*
X124297481Y-88306836D01*
X124297481Y-88065142D01*
X124317166Y-87998103D01*
X124369970Y-87952348D01*
X124421481Y-87941142D01*
X124684481Y-87941142D01*
X124684481Y-87391142D01*
X125184481Y-87391142D01*
X125184481Y-87941142D01*
X125587615Y-87941142D01*
X125587630Y-87941141D01*
X125624470Y-87938242D01*
X125624476Y-87938241D01*
X125782174Y-87892425D01*
X125782177Y-87892424D01*
X125923533Y-87808827D01*
X125923542Y-87808820D01*
X126039659Y-87692703D01*
X126039666Y-87692694D01*
X126123262Y-87551340D01*
X126169081Y-87393628D01*
X126169276Y-87391143D01*
X126169276Y-87391142D01*
X125184481Y-87391142D01*
X124684481Y-87391142D01*
X124028796Y-87391142D01*
X123965675Y-87373874D01*
X123934055Y-87355174D01*
X123907379Y-87339398D01*
X123907378Y-87339397D01*
X123907377Y-87339397D01*
X123907374Y-87339396D01*
X123749554Y-87293544D01*
X123749548Y-87293543D01*
X123712682Y-87290642D01*
X123712675Y-87290642D01*
X122406287Y-87290642D01*
X122406279Y-87290642D01*
X122369413Y-87293543D01*
X122369407Y-87293544D01*
X122211587Y-87339396D01*
X122211584Y-87339397D01*
X122070118Y-87423059D01*
X122070110Y-87423065D01*
X122029997Y-87463180D01*
X121968674Y-87496666D01*
X121942315Y-87499500D01*
X121470655Y-87499500D01*
X121403616Y-87479815D01*
X121369080Y-87446623D01*
X121261599Y-87293124D01*
X121188804Y-87220329D01*
X121106877Y-87138402D01*
X121079701Y-87119373D01*
X120953376Y-87030918D01*
X120909751Y-86976341D01*
X120900500Y-86929344D01*
X120900500Y-82247494D01*
X120901561Y-82231308D01*
X120905683Y-82200000D01*
X120905683Y-82199999D01*
X120885044Y-82043238D01*
X120877697Y-82025500D01*
X120824536Y-81897159D01*
X120809683Y-81877802D01*
X120728282Y-81771718D01*
X120728280Y-81771716D01*
X120728279Y-81771715D01*
X120703228Y-81752493D01*
X120691034Y-81741799D01*
X119983199Y-81033964D01*
X119972503Y-81021767D01*
X119953285Y-80996721D01*
X119953283Y-80996719D01*
X119953282Y-80996718D01*
X119908395Y-80962275D01*
X119886838Y-80945733D01*
X119845636Y-80889304D01*
X119838326Y-80847358D01*
X119838326Y-80151652D01*
X120338326Y-80151652D01*
X120338326Y-80939151D01*
X120374966Y-80939151D01*
X120374980Y-80939150D01*
X120475978Y-80928832D01*
X120639626Y-80874605D01*
X120639637Y-80874600D01*
X120786360Y-80784099D01*
X120786364Y-80784096D01*
X120908270Y-80662190D01*
X120908273Y-80662186D01*
X120998774Y-80515463D01*
X120998779Y-80515452D01*
X121053006Y-80351804D01*
X121063325Y-80250806D01*
X121063326Y-80250793D01*
X121063326Y-80151652D01*
X120338326Y-80151652D01*
X119838326Y-80151652D01*
X119251453Y-80151652D01*
X119242935Y-80156303D01*
X119216577Y-80159137D01*
X117295735Y-80159137D01*
X117278881Y-80154188D01*
X115441885Y-80154188D01*
X115441885Y-80253342D01*
X115452203Y-80354340D01*
X115506430Y-80517988D01*
X115506433Y-80517995D01*
X115578852Y-80635402D01*
X115597293Y-80702795D01*
X115576371Y-80769458D01*
X115522729Y-80814228D01*
X115473314Y-80824500D01*
X115224499Y-80824500D01*
X115157460Y-80804815D01*
X115111705Y-80752011D01*
X115100499Y-80700500D01*
X115100499Y-80635638D01*
X115089912Y-80555220D01*
X115085044Y-80518238D01*
X115084943Y-80517995D01*
X115076435Y-80497455D01*
X115068965Y-80427986D01*
X115076435Y-80402545D01*
X115085044Y-80381762D01*
X115100500Y-80264361D01*
X115100499Y-79985640D01*
X115100370Y-79984663D01*
X115093153Y-79929837D01*
X115085044Y-79868238D01*
X115085042Y-79868234D01*
X115076435Y-79847455D01*
X115068965Y-79777986D01*
X115076435Y-79752545D01*
X115076552Y-79752262D01*
X115085044Y-79731762D01*
X115100500Y-79614361D01*
X115100499Y-79335640D01*
X115100499Y-79335638D01*
X115100499Y-79335636D01*
X115085046Y-79218246D01*
X115085044Y-79218239D01*
X115085044Y-79218238D01*
X115076162Y-79196797D01*
X115068694Y-79127328D01*
X115076164Y-79101890D01*
X115084555Y-79081632D01*
X115084555Y-79081631D01*
X115097500Y-78983314D01*
X115125767Y-78919418D01*
X115184091Y-78880947D01*
X115220439Y-78875500D01*
X115487530Y-78875500D01*
X115554569Y-78895185D01*
X115593065Y-78934398D01*
X115594980Y-78937502D01*
X115596545Y-78940039D01*
X115610866Y-78954360D01*
X115644351Y-79015683D01*
X115639367Y-79085375D01*
X115610869Y-79129720D01*
X115596936Y-79143653D01*
X115506435Y-79290376D01*
X115506430Y-79290387D01*
X115452203Y-79454035D01*
X115441884Y-79555033D01*
X115441884Y-79654188D01*
X117378573Y-79654188D01*
X117395427Y-79659137D01*
X119094297Y-79659137D01*
X119102815Y-79654486D01*
X119129173Y-79651652D01*
X121063325Y-79651652D01*
X121064028Y-79650948D01*
X121083010Y-79586305D01*
X121135814Y-79540550D01*
X121204972Y-79530606D01*
X121268528Y-79559631D01*
X121275006Y-79565663D01*
X121763181Y-80053838D01*
X121796666Y-80115161D01*
X121799500Y-80141519D01*
X121799500Y-81275078D01*
X121799274Y-81282566D01*
X121795642Y-81342603D01*
X121795642Y-81342605D01*
X121806483Y-81401770D01*
X121807610Y-81409171D01*
X121814859Y-81468871D01*
X121814860Y-81468874D01*
X121818451Y-81478343D01*
X121824474Y-81499946D01*
X121826304Y-81509930D01*
X121826305Y-81509932D01*
X121850801Y-81564361D01*
X121850991Y-81564782D01*
X121853854Y-81571694D01*
X121875182Y-81627930D01*
X121875183Y-81627931D01*
X121880936Y-81636266D01*
X121891961Y-81655813D01*
X121896120Y-81665055D01*
X121896124Y-81665060D01*
X121933215Y-81712403D01*
X121937655Y-81718438D01*
X121971812Y-81767924D01*
X121971816Y-81767929D01*
X122016828Y-81807805D01*
X122022283Y-81812940D01*
X122621661Y-82412318D01*
X122655146Y-82473641D01*
X122650162Y-82543333D01*
X122621660Y-82587681D01*
X122578595Y-82630745D01*
X122573144Y-82635876D01*
X122528134Y-82675753D01*
X122493964Y-82725254D01*
X122489528Y-82731282D01*
X122452439Y-82778623D01*
X122452434Y-82778633D01*
X122448275Y-82787873D01*
X122437257Y-82807408D01*
X122431502Y-82815746D01*
X122431494Y-82815761D01*
X122410168Y-82871990D01*
X122407304Y-82878905D01*
X122382620Y-82933753D01*
X122380792Y-82943727D01*
X122374768Y-82965338D01*
X122371175Y-82974812D01*
X122371175Y-82974813D01*
X122363925Y-83034512D01*
X122362798Y-83041912D01*
X122351957Y-83101074D01*
X122351957Y-83101080D01*
X122355589Y-83161117D01*
X122355815Y-83168605D01*
X122355815Y-83425417D01*
X122336130Y-83492456D01*
X122300884Y-83527056D01*
X122301131Y-83527368D01*
X122298230Y-83529661D01*
X122296915Y-83530953D01*
X122295469Y-83531844D01*
X122295468Y-83531845D01*
X122173474Y-83653840D01*
X122082908Y-83800670D01*
X122082906Y-83800675D01*
X122058278Y-83874998D01*
X122028641Y-83964436D01*
X122028641Y-83964437D01*
X122028640Y-83964437D01*
X122018315Y-84065504D01*
X122018315Y-84638858D01*
X122018316Y-84638876D01*
X122028640Y-84739941D01*
X122061142Y-84838022D01*
X122082907Y-84903705D01*
X122173475Y-85050539D01*
X122295465Y-85172529D01*
X122296913Y-85173422D01*
X122297697Y-85174293D01*
X122301132Y-85177010D01*
X122300667Y-85177596D01*
X122343636Y-85225369D01*
X122355815Y-85278960D01*
X122355815Y-85304392D01*
X122336130Y-85371431D01*
X122283326Y-85417186D01*
X122266411Y-85423468D01*
X122211586Y-85439396D01*
X122211584Y-85439397D01*
X122070118Y-85523059D01*
X122070110Y-85523065D01*
X121953904Y-85639271D01*
X121953898Y-85639279D01*
X121870236Y-85780745D01*
X121870235Y-85780748D01*
X121824383Y-85938568D01*
X121824382Y-85938574D01*
X121821481Y-85975440D01*
X121821481Y-86406843D01*
X121824382Y-86443709D01*
X121824383Y-86443715D01*
X121870235Y-86601535D01*
X121870236Y-86601538D01*
X121870237Y-86601540D01*
X121887032Y-86629939D01*
X121953898Y-86743004D01*
X121953904Y-86743012D01*
X122070110Y-86859218D01*
X122070114Y-86859221D01*
X122070116Y-86859223D01*
X122211583Y-86942886D01*
X122253205Y-86954978D01*
X122369407Y-86988739D01*
X122369410Y-86988739D01*
X122369412Y-86988740D01*
X122406287Y-86991642D01*
X122406295Y-86991642D01*
X123712667Y-86991642D01*
X123712675Y-86991642D01*
X123749550Y-86988740D01*
X123749552Y-86988739D01*
X123749554Y-86988739D01*
X123800626Y-86973901D01*
X123907379Y-86942886D01*
X123965675Y-86908410D01*
X124028796Y-86891142D01*
X124684481Y-86891142D01*
X124684481Y-86341142D01*
X125184481Y-86341142D01*
X125184481Y-86891142D01*
X126169276Y-86891142D01*
X126169276Y-86891140D01*
X126169081Y-86888655D01*
X126123262Y-86730943D01*
X126039666Y-86589589D01*
X126039659Y-86589580D01*
X125923542Y-86473463D01*
X125923533Y-86473456D01*
X125782177Y-86389859D01*
X125782174Y-86389858D01*
X125624476Y-86344042D01*
X125624470Y-86344041D01*
X125587630Y-86341142D01*
X125184481Y-86341142D01*
X124684481Y-86341142D01*
X124421481Y-86341142D01*
X124354442Y-86321457D01*
X124308687Y-86268653D01*
X124297481Y-86217142D01*
X124297481Y-85975455D01*
X124297480Y-85975440D01*
X124294579Y-85938574D01*
X124294578Y-85938568D01*
X124260817Y-85822366D01*
X124248725Y-85780744D01*
X124165062Y-85639277D01*
X124165060Y-85639275D01*
X124165057Y-85639271D01*
X124048851Y-85523065D01*
X124048843Y-85523059D01*
X123913152Y-85442812D01*
X123907379Y-85439398D01*
X123907378Y-85439397D01*
X123907377Y-85439397D01*
X123846218Y-85421628D01*
X123787333Y-85384021D01*
X123758128Y-85320548D01*
X123756815Y-85302552D01*
X123756815Y-85278960D01*
X123776500Y-85211921D01*
X123811748Y-85177318D01*
X123811502Y-85177007D01*
X123814395Y-85174718D01*
X123815716Y-85173422D01*
X123817165Y-85172529D01*
X123831486Y-85158207D01*
X123892804Y-85124722D01*
X123962496Y-85129703D01*
X124006849Y-85158206D01*
X124020776Y-85172133D01*
X124020780Y-85172136D01*
X124167503Y-85262637D01*
X124167514Y-85262642D01*
X124331162Y-85316869D01*
X124432166Y-85327188D01*
X124531315Y-85327187D01*
X124531315Y-84602189D01*
X125031315Y-84602189D01*
X125031315Y-85327188D01*
X125130455Y-85327188D01*
X125130469Y-85327187D01*
X125231467Y-85316869D01*
X125395115Y-85262642D01*
X125395126Y-85262637D01*
X125541849Y-85172136D01*
X125541853Y-85172133D01*
X125663759Y-85050227D01*
X125663762Y-85050223D01*
X125754263Y-84903500D01*
X125754268Y-84903489D01*
X125808495Y-84739841D01*
X125818814Y-84638843D01*
X125818815Y-84638830D01*
X125818815Y-84602189D01*
X125031315Y-84602189D01*
X124531315Y-84602189D01*
X124531315Y-84226189D01*
X124551000Y-84159150D01*
X124603804Y-84113395D01*
X124655315Y-84102189D01*
X125818814Y-84102189D01*
X125818814Y-84065549D01*
X125818813Y-84065534D01*
X125808495Y-83964536D01*
X125754268Y-83800888D01*
X125754263Y-83800877D01*
X125663762Y-83654154D01*
X125663759Y-83654150D01*
X125541853Y-83532244D01*
X125541849Y-83532241D01*
X125395126Y-83441740D01*
X125388575Y-83438686D01*
X125389276Y-83437180D01*
X125339090Y-83402433D01*
X125312267Y-83337917D01*
X125324582Y-83269141D01*
X125372125Y-83217942D01*
X125435539Y-83200500D01*
X126475079Y-83200500D01*
X126482566Y-83200725D01*
X126542606Y-83204358D01*
X126601782Y-83193513D01*
X126609185Y-83192387D01*
X126612921Y-83191933D01*
X126668872Y-83185140D01*
X126678335Y-83181550D01*
X126699961Y-83175522D01*
X126700893Y-83175351D01*
X126709932Y-83173695D01*
X126764808Y-83148996D01*
X126771678Y-83146150D01*
X126827930Y-83124818D01*
X126836266Y-83119062D01*
X126855821Y-83108034D01*
X126865057Y-83103878D01*
X126912413Y-83066775D01*
X126918404Y-83062366D01*
X126967929Y-83028183D01*
X127007822Y-82983151D01*
X127012924Y-82977731D01*
X127617731Y-82372924D01*
X127623151Y-82367822D01*
X127668183Y-82327929D01*
X127702362Y-82278411D01*
X127706789Y-82272396D01*
X127709293Y-82269200D01*
X127743878Y-82225056D01*
X127748037Y-82215813D01*
X127759061Y-82196268D01*
X127764818Y-82187930D01*
X127782263Y-82141930D01*
X127786145Y-82131694D01*
X127789013Y-82124770D01*
X127813693Y-82069936D01*
X127813693Y-82069934D01*
X127813695Y-82069931D01*
X127815522Y-82059959D01*
X127821546Y-82038347D01*
X127825140Y-82028872D01*
X127832387Y-81969184D01*
X127833514Y-81961777D01*
X127844358Y-81902606D01*
X127840726Y-81842565D01*
X127840500Y-81835078D01*
X127840500Y-80814499D01*
X127860185Y-80747460D01*
X127912989Y-80701705D01*
X127964500Y-80690499D01*
X128037871Y-80690499D01*
X128037872Y-80690499D01*
X128097483Y-80684091D01*
X128232331Y-80633796D01*
X128347546Y-80547546D01*
X128433796Y-80432331D01*
X128484091Y-80297483D01*
X128490500Y-80237873D01*
X128490500Y-80164500D01*
X128510185Y-80097461D01*
X128562989Y-80051706D01*
X128614500Y-80040500D01*
X128935079Y-80040500D01*
X128942566Y-80040725D01*
X129002606Y-80044358D01*
X129061782Y-80033513D01*
X129069185Y-80032387D01*
X129072921Y-80031933D01*
X129128872Y-80025140D01*
X129138335Y-80021550D01*
X129159961Y-80015522D01*
X129160893Y-80015351D01*
X129169932Y-80013695D01*
X129224808Y-79988996D01*
X129231678Y-79986150D01*
X129287930Y-79964818D01*
X129296266Y-79959062D01*
X129315821Y-79948034D01*
X129325057Y-79943878D01*
X129372413Y-79906775D01*
X129378404Y-79902366D01*
X129427929Y-79868183D01*
X129467822Y-79823151D01*
X129472924Y-79817731D01*
X130377731Y-78912924D01*
X130383151Y-78907822D01*
X130428183Y-78867929D01*
X130462362Y-78818411D01*
X130466789Y-78812396D01*
X130503878Y-78765056D01*
X130508037Y-78755813D01*
X130519061Y-78736268D01*
X130524818Y-78727930D01*
X130546145Y-78671694D01*
X130549013Y-78664770D01*
X130573693Y-78609936D01*
X130573693Y-78609934D01*
X130573695Y-78609931D01*
X130575522Y-78599959D01*
X130581546Y-78578347D01*
X130585140Y-78568872D01*
X130592387Y-78509184D01*
X130593514Y-78501777D01*
X130595521Y-78490827D01*
X130604358Y-78442606D01*
X130600726Y-78382565D01*
X130600500Y-78375078D01*
X130600500Y-68324920D01*
X130600726Y-68317432D01*
X130604358Y-68257394D01*
X130593514Y-68198221D01*
X130592387Y-68190815D01*
X130588695Y-68160408D01*
X130585140Y-68131128D01*
X130581548Y-68121656D01*
X130575521Y-68100034D01*
X130573695Y-68090071D01*
X130573693Y-68090063D01*
X130558615Y-68056563D01*
X130549003Y-68035208D01*
X130546154Y-68028331D01*
X130524818Y-67972070D01*
X130519062Y-67963731D01*
X130508034Y-67944177D01*
X130503881Y-67934949D01*
X130503878Y-67934945D01*
X130503878Y-67934944D01*
X130466788Y-67887603D01*
X130462352Y-67881574D01*
X130460490Y-67878877D01*
X130428183Y-67832071D01*
X130383145Y-67792171D01*
X130377707Y-67787051D01*
X129412940Y-66822283D01*
X129407805Y-66816828D01*
X129405487Y-66814212D01*
X129403378Y-66811831D01*
X129367929Y-66771816D01*
X129367924Y-66771812D01*
X129318438Y-66737655D01*
X129312403Y-66733215D01*
X129265060Y-66696124D01*
X129265055Y-66696120D01*
X129255813Y-66691961D01*
X129236266Y-66680936D01*
X129227931Y-66675183D01*
X129227932Y-66675183D01*
X129227930Y-66675182D01*
X129171694Y-66653854D01*
X129164790Y-66650994D01*
X129109932Y-66626305D01*
X129109930Y-66626304D01*
X129099946Y-66624474D01*
X129078343Y-66618451D01*
X129068874Y-66614860D01*
X129068871Y-66614859D01*
X129009171Y-66607610D01*
X129001770Y-66606483D01*
X128942609Y-66595642D01*
X128942603Y-66595642D01*
X128882567Y-66599274D01*
X128875079Y-66599500D01*
X118807052Y-66599500D01*
X118740013Y-66579815D01*
X118719371Y-66563181D01*
X118598351Y-66442161D01*
X118598350Y-66442160D01*
X118451516Y-66351592D01*
X118287753Y-66297326D01*
X118287751Y-66297325D01*
X118186678Y-66287000D01*
X117613330Y-66287000D01*
X117613312Y-66287001D01*
X117512247Y-66297325D01*
X117348484Y-66351592D01*
X117348481Y-66351593D01*
X117201648Y-66442161D01*
X117105629Y-66538181D01*
X117044306Y-66571666D01*
X117017948Y-66574500D01*
X115416519Y-66574500D01*
X115349480Y-66554815D01*
X115328838Y-66538181D01*
X110112940Y-61322283D01*
X110107805Y-61316828D01*
X110067929Y-61271816D01*
X110067924Y-61271812D01*
X110018438Y-61237655D01*
X110012403Y-61233215D01*
X109965060Y-61196124D01*
X109965055Y-61196120D01*
X109955813Y-61191961D01*
X109936266Y-61180936D01*
X109927931Y-61175183D01*
X109927932Y-61175183D01*
X109927930Y-61175182D01*
X109871694Y-61153854D01*
X109864790Y-61150994D01*
X109809932Y-61126305D01*
X109809930Y-61126304D01*
X109799946Y-61124474D01*
X109778343Y-61118451D01*
X109768874Y-61114860D01*
X109768871Y-61114859D01*
X109709171Y-61107610D01*
X109701770Y-61106483D01*
X109642609Y-61095642D01*
X109642603Y-61095642D01*
X109582567Y-61099274D01*
X109575079Y-61099500D01*
X108574499Y-61099500D01*
X108507460Y-61079815D01*
X108461705Y-61027011D01*
X108450499Y-60975500D01*
X108450499Y-60902129D01*
X108450498Y-60902123D01*
X108444091Y-60842516D01*
X108393797Y-60707671D01*
X108393793Y-60707664D01*
X108307547Y-60592455D01*
X108307544Y-60592452D01*
X108192335Y-60506206D01*
X108192328Y-60506202D01*
X108057482Y-60455908D01*
X108057483Y-60455908D01*
X107997883Y-60449501D01*
X107997881Y-60449500D01*
X107997873Y-60449500D01*
X107997864Y-60449500D01*
X106202129Y-60449500D01*
X106202123Y-60449501D01*
X106142516Y-60455908D01*
X106007671Y-60506202D01*
X106007664Y-60506206D01*
X105892455Y-60592452D01*
X105892452Y-60592455D01*
X105806206Y-60707664D01*
X105806203Y-60707669D01*
X105757189Y-60839083D01*
X105715317Y-60895016D01*
X105649853Y-60919433D01*
X105581580Y-60904581D01*
X105553326Y-60883430D01*
X105431402Y-60761506D01*
X105431395Y-60761501D01*
X105237834Y-60625967D01*
X105237830Y-60625965D01*
X105237828Y-60625964D01*
X105023663Y-60526097D01*
X105023659Y-60526096D01*
X105023655Y-60526094D01*
X104795413Y-60464938D01*
X104795403Y-60464936D01*
X104560001Y-60444341D01*
X104559999Y-60444341D01*
X104324596Y-60464936D01*
X104324586Y-60464938D01*
X104096344Y-60526094D01*
X104096335Y-60526098D01*
X103882171Y-60625964D01*
X103882169Y-60625965D01*
X103688597Y-60761505D01*
X103521508Y-60928594D01*
X103391269Y-61114595D01*
X103336692Y-61158219D01*
X103267193Y-61165412D01*
X103204839Y-61133890D01*
X103188119Y-61114594D01*
X103058113Y-60928926D01*
X103058108Y-60928920D01*
X102891082Y-60761894D01*
X102697578Y-60626399D01*
X102483492Y-60526570D01*
X102483486Y-60526567D01*
X102270000Y-60469364D01*
X102270000Y-61364498D01*
X102162315Y-61315320D01*
X102055763Y-61300000D01*
X101984237Y-61300000D01*
X101877685Y-61315320D01*
X101770000Y-61364498D01*
X101770000Y-60469364D01*
X101769999Y-60469364D01*
X101556513Y-60526567D01*
X101556507Y-60526570D01*
X101342422Y-60626399D01*
X101342420Y-60626400D01*
X101148926Y-60761886D01*
X101148920Y-60761891D01*
X100981891Y-60928920D01*
X100981886Y-60928926D01*
X100846400Y-61122420D01*
X100846399Y-61122422D01*
X100746570Y-61336507D01*
X100746567Y-61336513D01*
X100689364Y-61549999D01*
X100689364Y-61550000D01*
X101586314Y-61550000D01*
X101560507Y-61590156D01*
X101520000Y-61728111D01*
X101520000Y-61871889D01*
X101560507Y-62009844D01*
X101586314Y-62050000D01*
X100689364Y-62050000D01*
X100746567Y-62263486D01*
X100746570Y-62263492D01*
X100846399Y-62477578D01*
X100981894Y-62671082D01*
X101148917Y-62838105D01*
X101342421Y-62973600D01*
X101556507Y-63073429D01*
X101556516Y-63073433D01*
X101770000Y-63130634D01*
X101770000Y-62235501D01*
X101877685Y-62284680D01*
X101984237Y-62300000D01*
X102055763Y-62300000D01*
X102162315Y-62284680D01*
X102270000Y-62235501D01*
X102270000Y-63130634D01*
X102291749Y-63147323D01*
X102332952Y-63203750D01*
X102337107Y-63273496D01*
X102302895Y-63334417D01*
X102272560Y-63356183D01*
X102214075Y-63385984D01*
X102157778Y-63399500D01*
X82580627Y-63399500D01*
X82561228Y-63397973D01*
X82547388Y-63395780D01*
X82479663Y-63399330D01*
X82473174Y-63399500D01*
X82452808Y-63399500D01*
X82441715Y-63400665D01*
X82432552Y-63401628D01*
X82426091Y-63402136D01*
X82358352Y-63405686D01*
X82344812Y-63409315D01*
X82325686Y-63412860D01*
X82311745Y-63414325D01*
X82311742Y-63414326D01*
X82247234Y-63435284D01*
X82241018Y-63437126D01*
X82175512Y-63454680D01*
X82163020Y-63461045D01*
X82145053Y-63468487D01*
X82131713Y-63472821D01*
X82072997Y-63506722D01*
X82067294Y-63509819D01*
X82006853Y-63540616D01*
X82006837Y-63540626D01*
X81995948Y-63549444D01*
X81979923Y-63560458D01*
X81967785Y-63567466D01*
X81967781Y-63567469D01*
X81917376Y-63612852D01*
X81912452Y-63617058D01*
X81896627Y-63629875D01*
X81896609Y-63629891D01*
X81882211Y-63644288D01*
X81877508Y-63648751D01*
X81827114Y-63694126D01*
X81818869Y-63705474D01*
X81806236Y-63720263D01*
X80145263Y-65381236D01*
X80130474Y-65393869D01*
X80119126Y-65402114D01*
X80073751Y-65452508D01*
X80069288Y-65457211D01*
X80054891Y-65471609D01*
X80054875Y-65471627D01*
X80042058Y-65487452D01*
X80037852Y-65492376D01*
X79992469Y-65542781D01*
X79992466Y-65542785D01*
X79985458Y-65554923D01*
X79974444Y-65570948D01*
X79965626Y-65581837D01*
X79965616Y-65581853D01*
X79934819Y-65642294D01*
X79931722Y-65647997D01*
X79897821Y-65706713D01*
X79893487Y-65720053D01*
X79886045Y-65738020D01*
X79879680Y-65750512D01*
X79862126Y-65816018D01*
X79860284Y-65822234D01*
X79839326Y-65886742D01*
X79839325Y-65886745D01*
X79837860Y-65900686D01*
X79834315Y-65919812D01*
X79830686Y-65933352D01*
X79827136Y-66001091D01*
X79826628Y-66007552D01*
X79824500Y-66027811D01*
X79824500Y-66048174D01*
X79824330Y-66054663D01*
X79820781Y-66122387D01*
X79822973Y-66136225D01*
X79824500Y-66155626D01*
X79824500Y-69198560D01*
X79804815Y-69265599D01*
X79752011Y-69311354D01*
X79743833Y-69314742D01*
X79632671Y-69356202D01*
X79632664Y-69356206D01*
X79517455Y-69442452D01*
X79517452Y-69442455D01*
X79431206Y-69557664D01*
X79431202Y-69557671D01*
X79380908Y-69692517D01*
X79375568Y-69742191D01*
X79374501Y-69752123D01*
X79374500Y-69752135D01*
X79374500Y-71547870D01*
X79374501Y-71547876D01*
X79380908Y-71607483D01*
X79431202Y-71742328D01*
X79431206Y-71742335D01*
X79517452Y-71857544D01*
X79517455Y-71857547D01*
X79632664Y-71943793D01*
X79632671Y-71943797D01*
X79764081Y-71992810D01*
X79820015Y-72034681D01*
X79844432Y-72100145D01*
X79829580Y-72168418D01*
X79808430Y-72196673D01*
X79686503Y-72318600D01*
X79550965Y-72512169D01*
X79550964Y-72512171D01*
X79451098Y-72726335D01*
X79451094Y-72726344D01*
X79389938Y-72954586D01*
X79389936Y-72954596D01*
X79369341Y-73189999D01*
X79369341Y-73190000D01*
X79389936Y-73425403D01*
X79389938Y-73425413D01*
X79451094Y-73653655D01*
X79451096Y-73653659D01*
X79451097Y-73653663D01*
X79541341Y-73847191D01*
X79550965Y-73867830D01*
X79550967Y-73867834D01*
X79635288Y-73988256D01*
X79686505Y-74061401D01*
X79853599Y-74228495D01*
X79931310Y-74282909D01*
X80047165Y-74364032D01*
X80047167Y-74364033D01*
X80047170Y-74364035D01*
X80261337Y-74463903D01*
X80489592Y-74525063D01*
X80677918Y-74541539D01*
X80724999Y-74545659D01*
X80725000Y-74545659D01*
X80725001Y-74545659D01*
X80764234Y-74542226D01*
X80960408Y-74525063D01*
X81188663Y-74463903D01*
X81402830Y-74364035D01*
X81596401Y-74228495D01*
X81677774Y-74147122D01*
X81739097Y-74113637D01*
X81765455Y-74110803D01*
X83052651Y-74110803D01*
X83119690Y-74130488D01*
X83165445Y-74183292D01*
X83176009Y-74222201D01*
X83182221Y-74283011D01*
X83182221Y-74283013D01*
X83235566Y-74443997D01*
X83235571Y-74444008D01*
X83324599Y-74588343D01*
X83324602Y-74588347D01*
X83444525Y-74708270D01*
X83444529Y-74708273D01*
X83588864Y-74797301D01*
X83588867Y-74797302D01*
X83588873Y-74797306D01*
X83749862Y-74850652D01*
X83849225Y-74860803D01*
X84395914Y-74860802D01*
X84395922Y-74860801D01*
X84395925Y-74860801D01*
X84454524Y-74854815D01*
X84495278Y-74850652D01*
X84656267Y-74797306D01*
X84728526Y-74752735D01*
X84795916Y-74734295D01*
X84862580Y-74755217D01*
X84874825Y-74764562D01*
X84899192Y-74785677D01*
X84899195Y-74785678D01*
X84899197Y-74785680D01*
X84934957Y-74802011D01*
X84977576Y-74821475D01*
X85030380Y-74867230D01*
X85040625Y-74886815D01*
X85068792Y-74954815D01*
X85098034Y-75025411D01*
X85179115Y-75131078D01*
X85194289Y-75150853D01*
X85219339Y-75170074D01*
X85231534Y-75180769D01*
X85938584Y-75887819D01*
X85972069Y-75949142D01*
X85967085Y-76018834D01*
X85925213Y-76074767D01*
X85859749Y-76099184D01*
X85850903Y-76099500D01*
X80980627Y-76099500D01*
X80961228Y-76097973D01*
X80947388Y-76095781D01*
X80879664Y-76099330D01*
X80873175Y-76099500D01*
X80852808Y-76099500D01*
X80841715Y-76100665D01*
X80832552Y-76101628D01*
X80826091Y-76102136D01*
X80758358Y-76105686D01*
X80758353Y-76105687D01*
X80744803Y-76109317D01*
X80725691Y-76112859D01*
X80711749Y-76114325D01*
X80711736Y-76114327D01*
X80647242Y-76135283D01*
X80641033Y-76137122D01*
X80596976Y-76148928D01*
X80575515Y-76154679D01*
X80575514Y-76154679D01*
X80575512Y-76154680D01*
X80563020Y-76161045D01*
X80545053Y-76168487D01*
X80531713Y-76172821D01*
X80472997Y-76206722D01*
X80467294Y-76209819D01*
X80406853Y-76240616D01*
X80406837Y-76240626D01*
X80395948Y-76249444D01*
X80379923Y-76260458D01*
X80367785Y-76267466D01*
X80367781Y-76267469D01*
X80317376Y-76312852D01*
X80312452Y-76317058D01*
X80296627Y-76329875D01*
X80296609Y-76329891D01*
X80282211Y-76344288D01*
X80277508Y-76348751D01*
X80227114Y-76394126D01*
X80218869Y-76405474D01*
X80206236Y-76420263D01*
X79880263Y-76746236D01*
X79865474Y-76758869D01*
X79854126Y-76767114D01*
X79808751Y-76817508D01*
X79804288Y-76822211D01*
X79789891Y-76836609D01*
X79789875Y-76836627D01*
X79777058Y-76852452D01*
X79772852Y-76857376D01*
X79727469Y-76907781D01*
X79727466Y-76907785D01*
X79720458Y-76919923D01*
X79709444Y-76935948D01*
X79700626Y-76946837D01*
X79700616Y-76946853D01*
X79669819Y-77007294D01*
X79666722Y-77012997D01*
X79632821Y-77071713D01*
X79628487Y-77085053D01*
X79621045Y-77103020D01*
X79614680Y-77115512D01*
X79597126Y-77181018D01*
X79595284Y-77187234D01*
X79574326Y-77251742D01*
X79574325Y-77251745D01*
X79572860Y-77265686D01*
X79569315Y-77284812D01*
X79565686Y-77298352D01*
X79562782Y-77353764D01*
X79539615Y-77419681D01*
X79484488Y-77462608D01*
X79482286Y-77463454D01*
X79367669Y-77506203D01*
X79367664Y-77506206D01*
X79252455Y-77592452D01*
X79252452Y-77592455D01*
X79166206Y-77707664D01*
X79166202Y-77707671D01*
X79115908Y-77842517D01*
X79109501Y-77902116D01*
X79109500Y-77902135D01*
X79109500Y-77913007D01*
X79089815Y-77980046D01*
X79037011Y-78025801D01*
X78985500Y-78037007D01*
X78571876Y-78037007D01*
X78504837Y-78017322D01*
X78459082Y-77964518D01*
X78455704Y-77956366D01*
X78451531Y-77945176D01*
X78451528Y-77945172D01*
X78451528Y-77945171D01*
X78365282Y-77829962D01*
X78365279Y-77829959D01*
X78250070Y-77743713D01*
X78250063Y-77743709D01*
X78115217Y-77693415D01*
X78115218Y-77693415D01*
X78055618Y-77687008D01*
X78055616Y-77687007D01*
X78055608Y-77687007D01*
X78055599Y-77687007D01*
X76959864Y-77687007D01*
X76959858Y-77687008D01*
X76900255Y-77693415D01*
X76892709Y-77695199D01*
X76892363Y-77693737D01*
X76831357Y-77698091D01*
X76816335Y-77693679D01*
X76815217Y-77693415D01*
X76755618Y-77687008D01*
X76755616Y-77687007D01*
X76755608Y-77687007D01*
X76755599Y-77687007D01*
X75659864Y-77687007D01*
X75659858Y-77687008D01*
X75600250Y-77693416D01*
X75592706Y-77695199D01*
X75592410Y-77693946D01*
X75530661Y-77698362D01*
X75517092Y-77694377D01*
X75515107Y-77693908D01*
X75455579Y-77687507D01*
X75157735Y-77687507D01*
X75157735Y-80187507D01*
X75455563Y-80187507D01*
X75455564Y-80187506D01*
X75469973Y-80185957D01*
X75538733Y-80198359D01*
X75589873Y-80245967D01*
X75607235Y-80309246D01*
X75607235Y-82660247D01*
X75606174Y-82676432D01*
X75602053Y-82707733D01*
X75602053Y-82707735D01*
X75618248Y-82830746D01*
X75618249Y-82830750D01*
X75622690Y-82864495D01*
X75622691Y-82864497D01*
X75683199Y-83010577D01*
X75777907Y-83134003D01*
X75803101Y-83199172D01*
X75795714Y-83252820D01*
X75780908Y-83292517D01*
X75774501Y-83352116D01*
X75774500Y-83352135D01*
X75774500Y-84247870D01*
X75774501Y-84247876D01*
X75780908Y-84307483D01*
X75831202Y-84442328D01*
X75831206Y-84442335D01*
X75917452Y-84557544D01*
X75917455Y-84557547D01*
X76032664Y-84643793D01*
X76032671Y-84643797D01*
X76074999Y-84659584D01*
X76167517Y-84694091D01*
X76227127Y-84700500D01*
X76872872Y-84700499D01*
X76932483Y-84694091D01*
X76981665Y-84675746D01*
X77051355Y-84670761D01*
X77068333Y-84675747D01*
X77117508Y-84694088D01*
X77117511Y-84694089D01*
X77117517Y-84694091D01*
X77177127Y-84700500D01*
X77822872Y-84700499D01*
X77882483Y-84694091D01*
X77931665Y-84675746D01*
X78001355Y-84670761D01*
X78018333Y-84675747D01*
X78067508Y-84694088D01*
X78067511Y-84694089D01*
X78067517Y-84694091D01*
X78127127Y-84700500D01*
X78772872Y-84700499D01*
X78832483Y-84694091D01*
X78967331Y-84643796D01*
X79082546Y-84557546D01*
X79095432Y-84540331D01*
X79151361Y-84498463D01*
X79221053Y-84493477D01*
X79282374Y-84526959D01*
X79282378Y-84526963D01*
X79378804Y-84623389D01*
X79412289Y-84684712D01*
X79407305Y-84754404D01*
X79378805Y-84798751D01*
X79264874Y-84912682D01*
X79174373Y-85059405D01*
X79174368Y-85059416D01*
X79120141Y-85223064D01*
X79117741Y-85246554D01*
X79091343Y-85311245D01*
X79034162Y-85351395D01*
X78964351Y-85354257D01*
X78951050Y-85350131D01*
X78832486Y-85305910D01*
X78832485Y-85305909D01*
X78832483Y-85305909D01*
X78772873Y-85299500D01*
X78772863Y-85299500D01*
X78127129Y-85299500D01*
X78127123Y-85299501D01*
X78067516Y-85305908D01*
X77932671Y-85356202D01*
X77932664Y-85356206D01*
X77817455Y-85442452D01*
X77817452Y-85442455D01*
X77731206Y-85557664D01*
X77731202Y-85557671D01*
X77700765Y-85639279D01*
X77680909Y-85692517D01*
X77674500Y-85752127D01*
X77674500Y-86124952D01*
X77674501Y-86374806D01*
X77654817Y-86441845D01*
X77602013Y-86487600D01*
X77550501Y-86498806D01*
X77425168Y-86498806D01*
X77358129Y-86479121D01*
X77337487Y-86462487D01*
X77325000Y-86450000D01*
X76424000Y-86450000D01*
X76356961Y-86430315D01*
X76311206Y-86377511D01*
X76300000Y-86326000D01*
X76300000Y-85300000D01*
X76800000Y-85300000D01*
X76800000Y-85950000D01*
X77325000Y-85950000D01*
X77325000Y-85752172D01*
X77324999Y-85752155D01*
X77318598Y-85692627D01*
X77318596Y-85692620D01*
X77268354Y-85557913D01*
X77268350Y-85557906D01*
X77182190Y-85442812D01*
X77182187Y-85442809D01*
X77067093Y-85356649D01*
X77067086Y-85356645D01*
X76932379Y-85306403D01*
X76932372Y-85306401D01*
X76872844Y-85300000D01*
X76800000Y-85300000D01*
X76300000Y-85300000D01*
X76227155Y-85300000D01*
X76167627Y-85306401D01*
X76167620Y-85306403D01*
X76032913Y-85356645D01*
X76032906Y-85356649D01*
X75917812Y-85442809D01*
X75917809Y-85442812D01*
X75831649Y-85557906D01*
X75831645Y-85557913D01*
X75781403Y-85692620D01*
X75781401Y-85692627D01*
X75775000Y-85752155D01*
X75775000Y-85931337D01*
X75755315Y-85998376D01*
X75702511Y-86044131D01*
X75633353Y-86054075D01*
X75569797Y-86025050D01*
X75532023Y-85966272D01*
X75531225Y-85963430D01*
X75479577Y-85770677D01*
X75479576Y-85770676D01*
X75479575Y-85770670D01*
X75387102Y-85572362D01*
X75387100Y-85572359D01*
X75387099Y-85572357D01*
X75261599Y-85393124D01*
X75185344Y-85316869D01*
X75106877Y-85238402D01*
X74951639Y-85129703D01*
X74927638Y-85112897D01*
X74810379Y-85058219D01*
X74729330Y-85020425D01*
X74729326Y-85020424D01*
X74729322Y-85020422D01*
X74517977Y-84963793D01*
X74300002Y-84944723D01*
X74299998Y-84944723D01*
X74154682Y-84957436D01*
X74082023Y-84963793D01*
X74082020Y-84963793D01*
X73870677Y-85020422D01*
X73870670Y-85020424D01*
X73870670Y-85020425D01*
X73863743Y-85023655D01*
X73672361Y-85112898D01*
X73672357Y-85112900D01*
X73493121Y-85238402D01*
X73338402Y-85393121D01*
X73212900Y-85572357D01*
X73212898Y-85572361D01*
X73120426Y-85770668D01*
X73120422Y-85770677D01*
X73063793Y-85982020D01*
X73063793Y-85982024D01*
X73044723Y-86199997D01*
X73044723Y-86200002D01*
X69900500Y-86200002D01*
X69900500Y-79187507D01*
X73907735Y-79187507D01*
X73907735Y-79735351D01*
X73914136Y-79794879D01*
X73914138Y-79794886D01*
X73964380Y-79929593D01*
X73964384Y-79929600D01*
X74050544Y-80044694D01*
X74050547Y-80044697D01*
X74165641Y-80130857D01*
X74165648Y-80130861D01*
X74300355Y-80181103D01*
X74300362Y-80181105D01*
X74359890Y-80187506D01*
X74359907Y-80187507D01*
X74657735Y-80187507D01*
X74657735Y-79187507D01*
X73907735Y-79187507D01*
X69900500Y-79187507D01*
X69900500Y-78687507D01*
X73907735Y-78687507D01*
X74657735Y-78687507D01*
X74657735Y-77687507D01*
X74359890Y-77687507D01*
X74300362Y-77693908D01*
X74300355Y-77693910D01*
X74165648Y-77744152D01*
X74165641Y-77744156D01*
X74050547Y-77830316D01*
X74050544Y-77830319D01*
X73964384Y-77945413D01*
X73964380Y-77945420D01*
X73914138Y-78080127D01*
X73914136Y-78080134D01*
X73907735Y-78139662D01*
X73907735Y-78687507D01*
X69900500Y-78687507D01*
X69900500Y-54124500D01*
X69920185Y-54057461D01*
X69972989Y-54011706D01*
X70024500Y-54000500D01*
X138675500Y-54000500D01*
X138742539Y-54020185D01*
G37*
G04 #@! TD.AperFunction*
M02*
