M48
; DRILL file {KiCad 7.0.11-7.0.11~ubuntu22.04.1} date mer. 10 avril 2024 13:53:48
; FORMAT={-:-/ absolute / metric / decimal}
; #@! TF.CreationDate,2024-04-10T13:53:48+02:00
; #@! TF.GenerationSoftware,Kicad,Pcbnew,7.0.11-7.0.11~ubuntu22.04.1
; #@! TF.FileFunction,Plated,1,2,PTH
FMAT,2
METRIC
; #@! TA.AperFunction,Plated,PTH,ViaDrill
T1C0.300
; #@! TA.AperFunction,Plated,PTH,ComponentDrill
T2C1.000
%
G90
G05
T1
X72.1Y-87.5
X72.2Y-78.8
X73.7Y-95.3
X73.9Y-72.4
X75.4Y-59.4
X75.5Y-83.0
X79.6Y-96.9
X81.2Y-87.1
X84.2Y-75.6
X85.1Y-99.8
X87.1Y-78.4
X88.0Y-85.1
X88.1Y-82.9
X88.2Y-87.4
X89.1Y-69.1
X89.5Y-72.7
X91.6Y-89.8
X91.9Y-98.7
X92.5Y-85.1
X94.7Y-82.6
X95.4Y-76.5
X95.4Y-87.6
X95.7Y-85.1
X96.5Y-61.6
X97.8Y-69.3
X98.2Y-81.1
X98.7Y-96.1
X99.7Y-93.3
X99.8Y-78.1
X100.05Y-79.25
X100.9Y-80.2
X102.0Y-79.1
X102.0Y-90.6
X102.1Y-66.2
X102.1Y-71.7
X102.6Y-64.2
X102.9Y-74.8
X103.5Y-66.3
X104.7Y-88.2
X107.019Y-82.919
X107.3Y-68.6
X107.5Y-74.5
X108.3Y-92.4
X110.6Y-92.3
X110.7Y-95.9
X110.8Y-74.8
X111.9Y-79.4
X112.0Y-80.8
X112.4Y-66.4
X112.4Y-77.5
X112.5Y-83.3
X112.54Y-87.06
X115.0Y-69.6
X116.1Y-74.4
X117.0Y-61.6
X117.9Y-73.8
X118.3Y-83.0
X121.3Y-81.2
X126.5Y-99.2
X129.8Y-86.3
X131.7Y-71.9
X133.8Y-60.8
T2
X80.46Y-78.8
X80.725Y-70.65
X80.725Y-73.19
X83.0Y-78.8
X93.4Y-76.2
X93.4Y-78.74
X97.5Y-76.16
X97.5Y-78.7
X100.3Y-67.2
X100.3Y-69.74
X100.3Y-72.28
X101.6Y-84.56
X101.6Y-87.1
X102.02Y-61.8
X104.56Y-61.8
X107.1Y-61.8
X107.46Y-85.7
X110.0Y-85.7
X112.54Y-85.7
X115.08Y-85.7
X124.6Y-69.18
X124.6Y-71.72
X124.6Y-74.26
X124.6Y-76.8
X124.6Y-79.34
X127.14Y-69.18
X127.14Y-71.72
X127.14Y-74.26
X127.14Y-76.8
X127.14Y-79.34
M30
